SplineFontDB: 3.0
FontName: OpenGostTypeATT-Regular
FullName: OpenGost Type A TT Regular
FamilyName: OpenGost Type A TT
Weight: Book
Copyright: Copyright (c) 2011-2012, Nikita Volchenkov <nikitavolchenkov@gmail.com>\n\nCreated with FontForge 2.0 (http://fontforge.sf.net)
Version: 0.3
ItalicAngle: 0
UnderlinePosition: -100
UnderlineWidth: 100
Ascent: 1800
Descent: 400
InvalidEm: 0
sfntRevision: 0x00004ccc
LayerCount: 2
Layer: 0 1 "+BBcEMAQ0BD0EOAQ5 +BD8EOwQwBD0A" 1
Layer: 1 1 "+BB8ENQRABDUENAQ9BDgEOQAA +BD8EOwQwBD0A" 0
XUID: [1021 655 1312083872 9567]
FSType: 0
OS2Version: 4
OS2_WeightWidthSlopeOnly: 0
OS2_UseTypoMetrics: 1
CreationTime: 1321552375
ModificationTime: 1346584385
PfmFamily: 17
TTFWeight: 400
TTFWidth: 5
LineGap: 0
VLineGap: 0
Panose: 2 0 5 3 0 0 0 0 0 0
OS2TypoAscent: 1800
OS2TypoAOffset: 0
OS2TypoDescent: -400
OS2TypoDOffset: 0
OS2TypoLinegap: 0
OS2WinAscent: 1800
OS2WinAOffset: 0
OS2WinDescent: 400
OS2WinDOffset: 0
HheadAscent: 1800
HheadAOffset: 0
HheadDescent: -400
HheadDOffset: 0
OS2SubXSize: 1430
OS2SubYSize: 1539
OS2SubXOff: 0
OS2SubYOff: 308
OS2SupXSize: 1430
OS2SupYSize: 1539
OS2SupXOff: 0
OS2SupYOff: 1055
OS2StrikeYSize: 109
OS2StrikeYPos: 569
OS2CapHeight: 0
OS2XHeight: 0
OS2Vendor: 'PfEd'
OS2CodePages: 00000004.00000000
OS2UnicodeRanges: 800002a7.100024fb.00000000.00000000
Lookup: 258 0 0 "'kern' Horizontal Kerning" { "'kern' Horizontal Kerning for Latin"  "'kern' Horizontal Kerning for Cyrillic"  } ['kern' ('DFLT' <'dflt' > 'cyrl' <'dflt' > 'grek' <'dflt' > 'latn' <'dflt' > ) ]
MarkAttachClasses: 1
DEI: 91125
KernClass2: 21 19 "'kern' Horizontal Kerning for Latin"
 50 A Agrave Aacute Acircumflex Atilde Adieresis Aring
 1 B
 1 C
 3 D O
 1 E
 1 F
 39 J U Ugrave Uacute Ucircumflex Udieresis
 3 K X
 1 L
 1 P
 1 R
 1 S
 1 T
 1 V
 1 W
 8 Y Yacute
 1 Z
 3 c k
 1 l
 3 x z
 53 A Agrave Aacute Acircumflex Atilde Adieresis Aring AE
 16 C G O Q Ccedilla
 1 J
 1 S
 1 T
 37 U Ugrave Uacute Ucircumflex Udieresis
 1 V
 1 W
 1 X
 8 Y Yacute
 1 Z

StartChar: .notdef
Encoding: 65536 -1 0
Width: 804
Flags: W
LayerCount: 2
Back
Fore
SplineSet
73 0 m 1,0,-1
 73 1466 l 1,1,-1
 658 1466 l 1,2,-1
 658 0 l 1,3,-1
 73 0 l 1,0,-1
146 73 m 1,4,-1
 585 73 l 1,5,-1
 585 1393 l 1,6,-1
 146 1393 l 1,7,-1
 146 73 l 1,4,-1
EndSplineSet
EndChar

StartChar: exclam
Encoding: 33 33 4
Width: 300
Flags: W
LayerCount: 2
Back
Fore
SplineSet
200 50 m 128,-1,1
 200 29 200 29 185.5 14.5 c 128,-1,2
 171 0 171 0 150 0 c 128,-1,3
 129 0 129 0 114.5 14.5 c 128,-1,4
 100 29 100 29 100 50 c 128,-1,5
 100 71 100 71 114.5 85.5 c 128,-1,6
 129 100 129 100 150 100 c 128,-1,7
 171 100 171 100 185.5 85.5 c 128,-1,0
 200 71 200 71 200 50 c 128,-1,1
150 1400 m 128,-1,9
 171 1400 171 1400 185.5 1385.5 c 128,-1,10
 200 1371 200 1371 200 1350 c 2,11,-1
 200 350 l 2,12,13
 200 329 200 329 185.5 314.5 c 128,-1,14
 171 300 171 300 150 300 c 128,-1,15
 129 300 129 300 114.5 314.5 c 128,-1,16
 100 329 100 329 100 350 c 2,17,-1
 100 1350 l 2,18,19
 100 1371 100 1371 114.5 1385.5 c 128,-1,8
 129 1400 129 1400 150 1400 c 128,-1,9
EndSplineSet
EndChar

StartChar: numbersign
Encoding: 35 35 6
Width: 900
Flags: W
LayerCount: 2
Back
Fore
SplineSet
300 1400 m 128,-1,1
 321 1400 321 1400 335.5 1385.5 c 128,-1,2
 350 1371 350 1371 350 1350 c 2,3,-1
 350 1050 l 1,4,-1
 550 1050 l 1,5,-1
 550 1350 l 2,6,7
 550 1371 550 1371 564.5 1385.5 c 128,-1,8
 579 1400 579 1400 600 1400 c 128,-1,9
 621 1400 621 1400 635.5 1385.5 c 128,-1,10
 650 1371 650 1371 650 1350 c 2,11,-1
 650 1050 l 1,12,-1
 750 1050 l 2,13,14
 771 1050 771 1050 785.5 1035.5 c 128,-1,15
 800 1021 800 1021 800 1000 c 128,-1,16
 800 979 800 979 785.5 964.5 c 128,-1,17
 771 950 771 950 750 950 c 2,18,-1
 650 950 l 1,19,-1
 650 450 l 1,20,-1
 750 450 l 2,21,22
 771 450 771 450 785.5 435.5 c 128,-1,23
 800 421 800 421 800 400 c 128,-1,24
 800 379 800 379 785.5 364.5 c 128,-1,25
 771 350 771 350 750 350 c 2,26,-1
 650 350 l 1,27,-1
 650 50 l 2,28,29
 650 29 650 29 635.5 14.5 c 128,-1,30
 621 0 621 0 600 0 c 128,-1,31
 579 0 579 0 564.5 14.5 c 128,-1,32
 550 29 550 29 550 50 c 2,33,-1
 550 350 l 1,34,-1
 350 350 l 1,35,-1
 350 50 l 2,36,37
 350 29 350 29 335.5 14.5 c 128,-1,38
 321 0 321 0 300 0 c 128,-1,39
 279 0 279 0 264.5 14.5 c 128,-1,40
 250 29 250 29 250 50 c 2,41,-1
 250 350 l 1,42,-1
 150 350 l 2,43,44
 129 350 129 350 114.5 364.5 c 128,-1,45
 100 379 100 379 100 400 c 128,-1,46
 100 421 100 421 114.5 435.5 c 128,-1,47
 129 450 129 450 150 450 c 2,48,-1
 250 450 l 1,49,-1
 250 950 l 1,50,-1
 150 950 l 2,51,52
 129 950 129 950 114.5 964.5 c 128,-1,53
 100 979 100 979 100 1000 c 128,-1,54
 100 1021 100 1021 114.5 1035.5 c 128,-1,55
 129 1050 129 1050 150 1050 c 2,56,-1
 250 1050 l 1,57,-1
 250 1350 l 2,58,59
 250 1371 250 1371 264.5 1385.5 c 128,-1,0
 279 1400 279 1400 300 1400 c 128,-1,1
350 950 m 1,60,-1
 350 450 l 1,61,-1
 550 450 l 1,62,-1
 550 950 l 1,63,-1
 350 950 l 1,60,-1
EndSplineSet
EndChar

StartChar: dollar
Encoding: 36 36 7
Width: 900
Flags: W
LayerCount: 2
Back
Fore
SplineSet
450 1600 m 128,-1,1
 471 1600 471 1600 485.5 1585.5 c 128,-1,2
 500 1571 500 1571 500 1550 c 2,3,-1
 500 1428 l 1,4,5
 675 1415 675 1415 755 1335 c 0,6,7
 770 1320 770 1320 770 1300 c 0,8,9
 770 1279 770 1279 755.5 1264.5 c 128,-1,10
 741 1250 741 1250 720 1250 c 0,11,12
 700 1250 700 1250 685 1265 c 0,13,14
 636 1314 636 1314 500 1327 c 1,15,-1
 500 745 l 1,16,-1
 733 460 l 2,17,18
 800 377 800 377 800 270 c 0,19,20
 800 138 800 138 713 57 c 0,21,22
 634 -16 634 -16 500 -28 c 1,23,-1
 500 -150 l 2,24,25
 500 -171 500 -171 485.5 -185.5 c 128,-1,26
 471 -200 471 -200 450 -200 c 128,-1,27
 429 -200 429 -200 414.5 -185.5 c 128,-1,28
 400 -171 400 -171 400 -150 c 2,29,-1
 400 -29 l 1,30,31
 201 -22 201 -22 115 65 c 0,32,33
 100 80 100 80 100 100 c 0,34,35
 100 121 100 121 114.5 135.5 c 128,-1,36
 129 150 129 150 150 150 c 0,37,38
 170 150 170 150 185 135 c 0,39,40
 242 78 242 78 400 71 c 1,41,-1
 400 709 l 1,42,-1
 158 1006 l 2,43,44
 100 1078 100 1078 100 1170 c 0,45,46
 100 1286 100 1286 186 1357 c 0,47,48
 264 1422 264 1422 400 1429 c 1,49,-1
 400 1550 l 2,50,51
 400 1571 400 1571 414.5 1585.5 c 128,-1,0
 429 1600 429 1600 450 1600 c 128,-1,1
400 1329 m 1,52,53
 299 1322 299 1322 249 1280 c 0,54,55
 200 1241 200 1241 200 1170 c 0,56,57
 200 1115 200 1115 236 1069 c 2,58,-1
 400 868 l 1,59,-1
 400 1329 l 1,52,53
500 587 m 1,60,-1
 500 72 l 1,61,62
 591 81 591 81 645 130 c 0,63,64
 700 181 700 181 700 270 c 0,65,66
 700 341 700 341 655 396 c 2,67,-1
 500 587 l 1,60,-1
EndSplineSet
EndChar

StartChar: percent
Encoding: 37 37 8
Width: 1700
Flags: W
LayerCount: 2
Back
Fore
SplineSet
400 1400 m 128,-1,1
 524 1400 524 1400 612 1312 c 128,-1,2
 700 1224 700 1224 700 1100 c 128,-1,3
 700 976 700 976 612 888 c 128,-1,4
 524 800 524 800 400 800 c 128,-1,5
 276 800 276 800 188 888 c 128,-1,6
 100 976 100 976 100 1100 c 128,-1,7
 100 1224 100 1224 188 1312 c 128,-1,0
 276 1400 276 1400 400 1400 c 128,-1,1
400 1300 m 128,-1,9
 317 1300 317 1300 258.5 1241.5 c 128,-1,10
 200 1183 200 1183 200 1100 c 128,-1,11
 200 1017 200 1017 258.5 958.5 c 128,-1,12
 317 900 317 900 400 900 c 128,-1,13
 483 900 483 900 541.5 958.5 c 128,-1,14
 600 1017 600 1017 600 1100 c 128,-1,15
 600 1183 600 1183 541.5 1241.5 c 128,-1,8
 483 1300 483 1300 400 1300 c 128,-1,9
1300 600 m 128,-1,17
 1424 600 1424 600 1512 512 c 128,-1,18
 1600 424 1600 424 1600 300 c 128,-1,19
 1600 176 1600 176 1512 88 c 128,-1,20
 1424 0 1424 0 1300 0 c 128,-1,21
 1176 0 1176 0 1088 88 c 128,-1,22
 1000 176 1000 176 1000 300 c 128,-1,23
 1000 424 1000 424 1088 512 c 128,-1,16
 1176 600 1176 600 1300 600 c 128,-1,17
1300 500 m 128,-1,25
 1217 500 1217 500 1158.5 441.5 c 128,-1,26
 1100 383 1100 383 1100 300 c 128,-1,27
 1100 217 1100 217 1158.5 158.5 c 128,-1,28
 1217 100 1217 100 1300 100 c 128,-1,29
 1383 100 1383 100 1441.5 158.5 c 128,-1,30
 1500 217 1500 217 1500 300 c 128,-1,31
 1500 383 1500 383 1441.5 441.5 c 128,-1,24
 1383 500 1383 500 1300 500 c 128,-1,25
1250 1400 m 0,32,33
 1271 1400 1271 1400 1285.5 1385.5 c 128,-1,34
 1300 1371 1300 1371 1300 1350 c 0,35,36
 1300 1336 1300 1336 1293 1324 c 2,37,-1
 493 24 l 2,38,39
 478 0 478 0 450 0 c 0,40,41
 429 0 429 0 414.5 14.5 c 128,-1,42
 400 29 400 29 400 50 c 0,43,44
 400 64 400 64 407 76 c 2,45,-1
 1207 1376 l 2,46,47
 1222 1400 1222 1400 1250 1400 c 0,32,33
EndSplineSet
EndChar

StartChar: ampersand
Encoding: 38 38 9
Width: 1100
Flags: W
LayerCount: 2
Back
Fore
SplineSet
425 1430 m 128,-1,1
 518 1430 518 1430 584 1364 c 128,-1,2
 650 1298 650 1298 650 1205 c 0,3,4
 650 1144 650 1144 618 1090 c 2,5,-1
 488 872 l 1,6,-1
 811 362 l 1,7,-1
 913 484 l 2,8,9
 927 500 927 500 950 500 c 0,10,11
 971 500 971 500 985.5 485.5 c 128,-1,12
 1000 471 1000 471 1000 450 c 0,13,14
 1000 431 1000 431 990 420 c 2,15,-1
 867 274 l 1,16,-1
 992 77 l 2,17,18
 1000 64 1000 64 1000 50 c 0,19,20
 1000 29 1000 29 985.5 14.5 c 128,-1,21
 971 0 971 0 950 0 c 0,22,23
 923 0 923 0 908 23 c 2,24,-1
 800 193 l 1,25,-1
 718 95 l 2,26,27
 669 36 669 36 599.5 3 c 128,-1,28
 530 -30 530 -30 450 -30 c 0,29,30
 305 -30 305 -30 202.5 72.5 c 128,-1,31
 100 175 100 175 100 320 c 0,32,33
 100 417 100 417 149 499 c 2,34,-1
 371 870 l 1,35,-1
 235 1084 l 2,36,37
 200 1140 200 1140 200 1205 c 0,38,39
 200 1298 200 1298 266 1364 c 128,-1,0
 332 1430 332 1430 425 1430 c 128,-1,1
425 1330 m 128,-1,41
 373 1330 373 1330 336.5 1293.5 c 128,-1,42
 300 1257 300 1257 300 1205 c 0,43,44
 300 1168 300 1168 319 1138 c 2,45,-1
 428 966 l 1,46,-1
 532 1141 l 2,47,48
 550 1172 550 1172 550 1205 c 0,49,50
 550 1257 550 1257 513.5 1293.5 c 128,-1,40
 477 1330 477 1330 425 1330 c 128,-1,41
431 776 m 1,51,-1
 235 448 l 2,52,53
 200 389 200 389 200 320 c 0,54,55
 200 216 200 216 273 143 c 128,-1,56
 346 70 346 70 450 70 c 0,57,58
 567 70 567 70 642 160 c 2,59,-1
 744 282 l 1,60,-1
 431 776 l 1,51,-1
EndSplineSet
EndChar

StartChar: quotesingle
Encoding: 39 39 10
Width: 250
Flags: W
LayerCount: 2
Back
Fore
SplineSet
150 1400 m 0,0,1
 171 1400 171 1400 185.5 1385.5 c 128,-1,2
 200 1371 200 1371 200 1350 c 0,3,4
 200 1342 200 1342 199 1338 c 2,5,-1
 149 1138 l 2,6,7
 145 1122 145 1122 131 1111 c 128,-1,8
 117 1100 117 1100 100 1100 c 0,9,10
 79 1100 79 1100 64.5 1114.5 c 128,-1,11
 50 1129 50 1129 50 1150 c 0,12,13
 50 1158 50 1158 51 1162 c 2,14,-1
 101 1362 l 2,15,16
 105 1378 105 1378 119 1389 c 128,-1,17
 133 1400 133 1400 150 1400 c 0,0,1
EndSplineSet
EndChar

StartChar: parenleft
Encoding: 40 40 11
Width: 400
Flags: W
LayerCount: 2
Back
Fore
SplineSet
250 1500 m 0,0,1
 271 1500 271 1500 285.5 1485.5 c 128,-1,2
 300 1471 300 1471 300 1450 c 0,3,4
 300 1441 300 1441 298 1437 c 0,5,6
 200 1066 200 1066 200 700 c 0,7,8
 200 329 200 329 298 -37 c 0,9,10
 300 -45 300 -45 300 -50 c 0,11,12
 300 -71 300 -71 285.5 -85.5 c 128,-1,13
 271 -100 271 -100 250 -100 c 0,14,15
 231 -100 231 -100 217.5 -86.5 c 128,-1,16
 204 -73 204 -73 199 -52 c 0,17,18
 100 350 100 350 100 700 c 0,19,20
 100 1047 100 1047 198 1452 c 0,21,22
 211 1500 211 1500 250 1500 c 0,0,1
EndSplineSet
EndChar

StartChar: parenright
Encoding: 41 41 12
Width: 400
Flags: W
LayerCount: 2
Back
Fore
SplineSet
150 1500 m 0,0,1
 189 1500 189 1500 202 1452 c 0,2,3
 300 1047 300 1047 300 700 c 128,-1,4
 300 353 300 353 202 -52 c 0,5,6
 189 -100 189 -100 150 -100 c 0,7,8
 130 -100 130 -100 115 -85.5 c 128,-1,9
 100 -71 100 -71 100 -50 c 0,10,11
 100 -45 100 -45 102 -37 c 0,12,13
 200 329 200 329 200 700 c 128,-1,14
 200 1071 200 1071 102 1437 c 0,15,16
 100 1445 100 1445 100 1450 c 0,17,18
 100 1471 100 1471 115 1485.5 c 128,-1,19
 130 1500 130 1500 150 1500 c 0,0,1
EndSplineSet
EndChar

StartChar: asterisk
Encoding: 42 42 13
Width: 900
Flags: W
LayerCount: 2
Back
Fore
SplineSet
350 1400 m 0,0,1
 381 1400 381 1400 395 1372 c 2,2,-1
 450 1262 l 1,3,-1
 505 1372 l 2,4,5
 519 1400 519 1400 550 1400 c 0,6,7
 571 1400 571 1400 585.5 1385.5 c 128,-1,8
 600 1371 600 1371 600 1350 c 0,9,10
 600 1338 600 1338 595 1328 c 2,11,-1
 531 1200 l 1,12,-1
 650 1200 l 2,13,14
 671 1200 671 1200 685.5 1185.5 c 128,-1,15
 700 1171 700 1171 700 1150 c 128,-1,16
 700 1129 700 1129 685.5 1114.5 c 128,-1,17
 671 1100 671 1100 650 1100 c 2,18,-1
 531 1100 l 1,19,-1
 595 972 l 2,20,21
 600 962 600 962 600 950 c 0,22,23
 600 929 600 929 585.5 914.5 c 128,-1,24
 571 900 571 900 550 900 c 0,25,26
 519 900 519 900 505 928 c 2,27,-1
 450 1038 l 1,28,-1
 395 928 l 2,29,30
 381 900 381 900 350 900 c 0,31,32
 329 900 329 900 314.5 914.5 c 128,-1,33
 300 929 300 929 300 950 c 0,34,35
 300 962 300 962 305 972 c 2,36,-1
 369 1100 l 1,37,-1
 250 1100 l 2,38,39
 229 1100 229 1100 214.5 1114.5 c 128,-1,40
 200 1129 200 1129 200 1150 c 128,-1,41
 200 1171 200 1171 214.5 1185.5 c 128,-1,42
 229 1200 229 1200 250 1200 c 2,43,-1
 369 1200 l 1,44,-1
 305 1328 l 2,45,46
 300 1338 300 1338 300 1350 c 0,47,48
 300 1371 300 1371 314.5 1385.5 c 128,-1,49
 329 1400 329 1400 350 1400 c 0,0,1
EndSplineSet
EndChar

StartChar: plus
Encoding: 43 43 14
Width: 700
Flags: W
LayerCount: 2
Back
Fore
SplineSet
350 800 m 128,-1,1
 371 800 371 800 385.5 785.5 c 128,-1,2
 400 771 400 771 400 750 c 2,3,-1
 400 550 l 1,4,-1
 600 550 l 2,5,6
 621 550 621 550 635.5 535.5 c 128,-1,7
 650 521 650 521 650 500 c 128,-1,8
 650 479 650 479 635.5 464.5 c 128,-1,9
 621 450 621 450 600 450 c 2,10,-1
 400 450 l 1,11,-1
 400 250 l 2,12,13
 400 229 400 229 385.5 214.5 c 128,-1,14
 371 200 371 200 350 200 c 128,-1,15
 329 200 329 200 314.5 214.5 c 128,-1,16
 300 229 300 229 300 250 c 2,17,-1
 300 450 l 1,18,-1
 100 450 l 2,19,20
 79 450 79 450 64.5 464.5 c 128,-1,21
 50 479 50 479 50 500 c 128,-1,22
 50 521 50 521 64.5 535.5 c 128,-1,23
 79 550 79 550 100 550 c 2,24,-1
 300 550 l 1,25,-1
 300 750 l 2,26,27
 300 771 300 771 314.5 785.5 c 128,-1,0
 329 800 329 800 350 800 c 128,-1,1
EndSplineSet
EndChar

StartChar: comma
Encoding: 44 44 15
Width: 300
Flags: W
LayerCount: 2
Back
Fore
SplineSet
150 100 m 0,0,1
 171 100 171 100 185.5 85.5 c 128,-1,2
 200 71 200 71 200 50 c 0,3,4
 200 44 200 44 199 38 c 2,5,-1
 149 -162 l 2,6,7
 144 -179 144 -179 130.5 -189.5 c 128,-1,8
 117 -200 117 -200 100 -200 c 0,9,10
 79 -200 79 -200 64.5 -185.5 c 128,-1,11
 50 -171 50 -171 50 -150 c 0,12,13
 50 -144 50 -144 51 -138 c 2,14,-1
 101 62 l 2,15,16
 106 79 106 79 119.5 89.5 c 128,-1,17
 133 100 133 100 150 100 c 0,0,1
EndSplineSet
EndChar

StartChar: hyphen
Encoding: 45 45 16
Width: 700
Flags: W
LayerCount: 2
Back
Fore
SplineSet
100 550 m 2,0,-1
 600 550 l 2,1,2
 621 550 621 550 635.5 535.5 c 128,-1,3
 650 521 650 521 650 500 c 128,-1,4
 650 479 650 479 635.5 464.5 c 128,-1,5
 621 450 621 450 600 450 c 2,6,-1
 100 450 l 2,7,8
 79 450 79 450 64.5 464.5 c 128,-1,9
 50 479 50 479 50 500 c 128,-1,10
 50 521 50 521 64.5 535.5 c 128,-1,11
 79 550 79 550 100 550 c 2,0,-1
EndSplineSet
EndChar

StartChar: period
Encoding: 46 46 17
Width: 300
Flags: W
LayerCount: 2
Back
Fore
SplineSet
200 50 m 128,-1,1
 200 29 200 29 185.5 14.5 c 128,-1,2
 171 0 171 0 150 0 c 128,-1,3
 129 0 129 0 114.5 14.5 c 128,-1,4
 100 29 100 29 100 50 c 128,-1,5
 100 71 100 71 114.5 85.5 c 128,-1,6
 129 100 129 100 150 100 c 128,-1,7
 171 100 171 100 185.5 85.5 c 128,-1,0
 200 71 200 71 200 50 c 128,-1,1
EndSplineSet
EndChar

StartChar: slash
Encoding: 47 47 18
Width: 1100
Flags: W
LayerCount: 2
Back
Fore
SplineSet
950 1700 m 0,0,1
 971 1700 971 1700 985.5 1685.5 c 128,-1,2
 1000 1671 1000 1671 1000 1650 c 0,3,4
 1000 1638 1000 1638 996 1630 c 2,5,-1
 196 -170 l 2,6,7
 182 -200 182 -200 150 -200 c 0,8,9
 129 -200 129 -200 114.5 -185.5 c 128,-1,10
 100 -171 100 -171 100 -150 c 0,11,12
 100 -138 100 -138 104 -130 c 2,13,-1
 904 1670 l 2,14,15
 918 1700 918 1700 950 1700 c 0,0,1
EndSplineSet
EndChar

StartChar: zero
Encoding: 48 48 19
Width: 900
Flags: W
LayerCount: 2
Back
Fore
SplineSet
450 1430 m 128,-1,1
 595 1430 595 1430 697.5 1327.5 c 128,-1,2
 800 1225 800 1225 800 1080 c 2,3,-1
 800 320 l 2,4,5
 800 175 800 175 697.5 72.5 c 128,-1,6
 595 -30 595 -30 450 -30 c 128,-1,7
 305 -30 305 -30 202.5 72.5 c 128,-1,8
 100 175 100 175 100 320 c 2,9,-1
 100 1080 l 2,10,11
 100 1225 100 1225 202.5 1327.5 c 128,-1,0
 305 1430 305 1430 450 1430 c 128,-1,1
450 1330 m 128,-1,13
 346 1330 346 1330 273 1257 c 128,-1,14
 200 1184 200 1184 200 1080 c 2,15,-1
 200 320 l 2,16,17
 200 216 200 216 273 143 c 128,-1,18
 346 70 346 70 450 70 c 128,-1,19
 554 70 554 70 627 143 c 128,-1,20
 700 216 700 216 700 320 c 2,21,-1
 700 1080 l 2,22,23
 700 1184 700 1184 627 1257 c 128,-1,12
 554 1330 554 1330 450 1330 c 128,-1,13
EndSplineSet
EndChar

StartChar: one
Encoding: 49 49 20
Width: 550
Flags: W
LayerCount: 2
Back
Fore
SplineSet
400 1400 m 0,0,1
 421 1400 421 1400 435.5 1385.5 c 128,-1,2
 450 1371 450 1371 450 1350 c 2,3,-1
 450 50 l 2,4,5
 450 29 450 29 435.5 14.5 c 128,-1,6
 421 0 421 0 400 0 c 128,-1,7
 379 0 379 0 364.5 14.5 c 128,-1,8
 350 29 350 29 350 50 c 2,9,-1
 350 1229 l 1,10,-1
 135 1015 l 2,11,12
 120 1000 120 1000 100 1000 c 0,13,14
 79 1000 79 1000 64.5 1014.5 c 128,-1,15
 50 1029 50 1029 50 1050 c 0,16,17
 50 1070 50 1070 65 1085 c 2,18,-1
 365 1385 l 2,19,20
 380 1400 380 1400 400 1400 c 0,0,1
EndSplineSet
EndChar

StartChar: two
Encoding: 50 50 21
Width: 900
Flags: W
LayerCount: 2
Back
Fore
SplineSet
450 1430 m 0,0,1
 595 1430 595 1430 697.5 1327.5 c 128,-1,2
 800 1225 800 1225 800 1080 c 0,3,4
 800 977 800 977 745 892 c 2,5,-1
 241 100 l 1,6,-1
 750 100 l 2,7,8
 771 100 771 100 785.5 85.5 c 128,-1,9
 800 71 800 71 800 50 c 128,-1,10
 800 29 800 29 785.5 14.5 c 128,-1,11
 771 0 771 0 750 0 c 2,12,-1
 150 0 l 2,13,14
 129 0 129 0 114.5 14.5 c 128,-1,15
 100 29 100 29 100 50 c 0,16,17
 100 64 100 64 108 77 c 2,18,-1
 661 946 l 2,19,20
 700 1007 700 1007 700 1080 c 0,21,22
 700 1184 700 1184 627 1257 c 128,-1,23
 554 1330 554 1330 450 1330 c 0,24,25
 361 1330 361 1330 289 1274.5 c 128,-1,26
 217 1219 217 1219 199 1140 c 0,27,28
 195 1123 195 1123 181.5 1111.5 c 128,-1,29
 168 1100 168 1100 150 1100 c 0,30,31
 129 1100 129 1100 114.5 1114.5 c 128,-1,32
 100 1129 100 1129 100 1150 c 0,33,34
 100 1157 100 1157 101 1161 c 0,35,36
 128 1277 128 1277 227 1353.5 c 128,-1,37
 326 1430 326 1430 450 1430 c 0,0,1
EndSplineSet
EndChar

StartChar: three
Encoding: 51 51 22
Width: 800
Flags: W
LayerCount: 2
Back
Fore
SplineSet
150 1400 m 2,0,-1
 350 1400 l 2,1,2
 474 1400 474 1400 562 1312 c 128,-1,3
 650 1224 650 1224 650 1100 c 2,4,-1
 650 1000 l 2,5,6
 650 925 650 925 616 860.5 c 128,-1,7
 582 796 582 796 523 755 c 1,8,9
 604 709 604 709 652 628 c 128,-1,10
 700 547 700 547 700 450 c 2,11,-1
 700 350 l 2,12,13
 700 205 700 205 597.5 102.5 c 128,-1,14
 495 0 495 0 350 0 c 2,15,-1
 150 0 l 2,16,17
 129 0 129 0 114.5 14.5 c 128,-1,18
 100 29 100 29 100 50 c 128,-1,19
 100 71 100 71 114.5 85.5 c 128,-1,20
 129 100 129 100 150 100 c 2,21,-1
 350 100 l 2,22,23
 454 100 454 100 527 173 c 128,-1,24
 600 246 600 246 600 350 c 2,25,-1
 600 450 l 2,26,27
 600 554 600 554 527 627 c 128,-1,28
 454 700 454 700 350 700 c 0,29,30
 329 700 329 700 314.5 714.5 c 128,-1,31
 300 729 300 729 300 750 c 128,-1,32
 300 771 300 771 314.5 785.5 c 128,-1,33
 329 800 329 800 350 800 c 0,34,35
 432 800 432 800 491 859 c 128,-1,36
 550 918 550 918 550 1000 c 2,37,-1
 550 1100 l 2,38,39
 550 1182 550 1182 491 1241 c 128,-1,40
 432 1300 432 1300 350 1300 c 2,41,-1
 150 1300 l 2,42,43
 129 1300 129 1300 114.5 1314.5 c 128,-1,44
 100 1329 100 1329 100 1350 c 128,-1,45
 100 1371 100 1371 114.5 1385.5 c 128,-1,46
 129 1400 129 1400 150 1400 c 2,0,-1
EndSplineSet
EndChar

StartChar: four
Encoding: 52 52 23
Width: 900
Flags: W
LayerCount: 2
Back
Fore
SplineSet
400 1400 m 0,0,1
 421 1400 421 1400 435.5 1385.5 c 128,-1,2
 450 1371 450 1371 450 1350 c 0,3,4
 450 1346 450 1346 448 1338 c 2,5,-1
 214 400 l 1,6,-1
 500 400 l 1,7,-1
 500 650 l 2,8,9
 500 671 500 671 514.5 685.5 c 128,-1,10
 529 700 529 700 550 700 c 128,-1,11
 571 700 571 700 585.5 685.5 c 128,-1,12
 600 671 600 671 600 650 c 2,13,-1
 600 400 l 1,14,-1
 750 400 l 2,15,16
 771 400 771 400 785.5 385.5 c 128,-1,17
 800 371 800 371 800 350 c 128,-1,18
 800 329 800 329 785.5 314.5 c 128,-1,19
 771 300 771 300 750 300 c 2,20,-1
 600 300 l 1,21,-1
 600 50 l 2,22,23
 600 29 600 29 585.5 14.5 c 128,-1,24
 571 0 571 0 550 0 c 128,-1,25
 529 0 529 0 514.5 14.5 c 128,-1,26
 500 29 500 29 500 50 c 2,27,-1
 500 300 l 1,28,-1
 150 300 l 2,29,30
 129 300 129 300 114.5 314.5 c 128,-1,31
 100 329 100 329 100 350 c 0,32,33
 100 358 100 358 101 362 c 2,34,-1
 351 1362 l 2,35,36
 355 1378 355 1378 369 1389 c 128,-1,37
 383 1400 383 1400 400 1400 c 0,0,1
EndSplineSet
EndChar

StartChar: five
Encoding: 53 53 24
Width: 800
Flags: W
LayerCount: 2
Back
Fore
SplineSet
150 1400 m 2,0,-1
 650 1400 l 2,1,2
 671 1400 671 1400 685.5 1385.5 c 128,-1,3
 700 1371 700 1371 700 1350 c 128,-1,4
 700 1329 700 1329 685.5 1314.5 c 128,-1,5
 671 1300 671 1300 650 1300 c 2,6,-1
 200 1300 l 1,7,-1
 200 800 l 1,8,-1
 350 800 l 2,9,10
 495 800 495 800 597.5 697.5 c 128,-1,11
 700 595 700 595 700 450 c 2,12,-1
 700 350 l 2,13,14
 700 205 700 205 597.5 102.5 c 128,-1,15
 495 0 495 0 350 0 c 2,16,-1
 150 0 l 2,17,18
 129 0 129 0 114.5 14.5 c 128,-1,19
 100 29 100 29 100 50 c 128,-1,20
 100 71 100 71 114.5 85.5 c 128,-1,21
 129 100 129 100 150 100 c 2,22,-1
 350 100 l 2,23,24
 454 100 454 100 527 173 c 128,-1,25
 600 246 600 246 600 350 c 2,26,-1
 600 450 l 2,27,28
 600 554 600 554 527 627 c 128,-1,29
 454 700 454 700 350 700 c 2,30,-1
 150 700 l 2,31,32
 129 700 129 700 114.5 714.5 c 128,-1,33
 100 729 100 729 100 750 c 2,34,-1
 100 1350 l 2,35,36
 100 1371 100 1371 114.5 1385.5 c 128,-1,37
 129 1400 129 1400 150 1400 c 2,0,-1
EndSplineSet
EndChar

StartChar: six
Encoding: 54 54 25
Width: 900
Flags: W
LayerCount: 2
Back
Fore
SplineSet
550 1400 m 0,0,1
 571 1400 571 1400 585.5 1385.5 c 128,-1,2
 600 1371 600 1371 600 1350 c 0,3,4
 600 1323 600 1323 576 1308 c 0,5,6
 431 1217 431 1217 333.5 1082 c 128,-1,7
 236 947 236 947 209 800 c 1,8,-1
 450 800 l 2,9,10
 595 800 595 800 697.5 697.5 c 128,-1,11
 800 595 800 595 800 450 c 2,12,-1
 800 320 l 2,13,14
 800 175 800 175 697.5 72.5 c 128,-1,15
 595 -30 595 -30 450 -30 c 128,-1,16
 305 -30 305 -30 202.5 72.5 c 128,-1,17
 100 175 100 175 100 320 c 2,18,-1
 100 700 l 2,19,20
 100 900 100 900 215.5 1086 c 128,-1,21
 331 1272 331 1272 524 1392 c 0,22,23
 537 1400 537 1400 550 1400 c 0,0,1
200 700 m 1,24,-1
 200 320 l 2,25,26
 200 216 200 216 273 143 c 128,-1,27
 346 70 346 70 450 70 c 128,-1,28
 554 70 554 70 627 143 c 128,-1,29
 700 216 700 216 700 320 c 2,30,-1
 700 450 l 2,31,32
 700 554 700 554 627 627 c 128,-1,33
 554 700 554 700 450 700 c 2,34,-1
 200 700 l 1,24,-1
EndSplineSet
EndChar

StartChar: seven
Encoding: 55 55 26
Width: 820
Flags: W
LayerCount: 2
Back
Fore
SplineSet
100 1400 m 2,0,-1
 700 1400 l 2,1,2
 721 1400 721 1400 735.5 1385.5 c 128,-1,3
 750 1371 750 1371 750 1350 c 0,4,5
 750 1342 750 1342 749 1338 c 2,6,-1
 449 39 l 2,7,8
 445 22 445 22 431.5 11 c 128,-1,9
 418 0 418 0 400 0 c 0,10,11
 379 0 379 0 364.5 14.5 c 128,-1,12
 350 29 350 29 350 50 c 0,13,14
 350 57 350 57 351 61 c 2,15,-1
 637 1300 l 1,16,-1
 150 1300 l 1,17,-1
 150 1200 l 2,18,19
 150 1179 150 1179 135.5 1164.5 c 128,-1,20
 121 1150 121 1150 100 1150 c 128,-1,21
 79 1150 79 1150 64.5 1164.5 c 128,-1,22
 50 1179 50 1179 50 1200 c 2,23,-1
 50 1350 l 2,24,25
 50 1371 50 1371 64.5 1385.5 c 128,-1,26
 79 1400 79 1400 100 1400 c 2,0,-1
EndSplineSet
EndChar

StartChar: eight
Encoding: 56 56 27
Width: 900
Flags: W
LayerCount: 2
Back
Fore
SplineSet
450 1430 m 128,-1,1
 595 1430 595 1430 684 1338 c 0,2,3
 780 1239 780 1239 780 1065 c 128,-1,4
 780 891 780 891 684 792 c 0,5,6
 661 769 661 769 639 754 c 1,7,8
 684 729 684 729 719 694 c 0,9,10
 830 581 830 581 830 385 c 128,-1,11
 830 189 830 189 719 76 c 0,12,13
 614 -30 614 -30 450 -30 c 128,-1,14
 286 -30 286 -30 181 76 c 0,15,16
 70 189 70 189 70 385 c 128,-1,17
 70 581 70 581 181 694 c 0,18,19
 216 729 216 729 261 754 c 1,20,21
 239 769 239 769 216 792 c 0,22,23
 120 891 120 891 120 1065 c 128,-1,24
 120 1239 120 1239 216 1338 c 0,25,0
 305 1430 305 1430 450 1430 c 128,-1,1
450 1330 m 128,-1,27
 348 1330 348 1330 288 1268 c 0,28,29
 220 1198 220 1198 220 1065 c 128,-1,30
 220 932 220 932 288 862 c 0,31,32
 348 800 348 800 450 800 c 128,-1,33
 552 800 552 800 612 862 c 0,34,35
 680 932 680 932 680 1065 c 128,-1,36
 680 1198 680 1198 612 1268 c 0,37,26
 552 1330 552 1330 450 1330 c 128,-1,27
450 700 m 128,-1,39
 326 700 326 700 252 624 c 0,40,41
 170 540 170 540 170 385 c 128,-1,42
 170 230 170 230 252 146 c 0,43,44
 326 70 326 70 450 70 c 128,-1,45
 574 70 574 70 648 146 c 0,46,47
 730 230 730 230 730 385 c 128,-1,48
 730 540 730 540 648 624 c 0,49,38
 574 700 574 700 450 700 c 128,-1,39
EndSplineSet
EndChar

StartChar: colon
Encoding: 58 58 29
Width: 300
Flags: W
LayerCount: 2
Back
Fore
SplineSet
200 50 m 128,-1,1
 200 29 200 29 185.5 14.5 c 128,-1,2
 171 0 171 0 150 0 c 128,-1,3
 129 0 129 0 114.5 14.5 c 128,-1,4
 100 29 100 29 100 50 c 128,-1,5
 100 71 100 71 114.5 85.5 c 128,-1,6
 129 100 129 100 150 100 c 128,-1,7
 171 100 171 100 185.5 85.5 c 128,-1,0
 200 71 200 71 200 50 c 128,-1,1
200 650 m 128,-1,9
 200 629 200 629 185.5 614.5 c 128,-1,10
 171 600 171 600 150 600 c 128,-1,11
 129 600 129 600 114.5 614.5 c 128,-1,12
 100 629 100 629 100 650 c 128,-1,13
 100 671 100 671 114.5 685.5 c 128,-1,14
 129 700 129 700 150 700 c 128,-1,15
 171 700 171 700 185.5 685.5 c 128,-1,8
 200 671 200 671 200 650 c 128,-1,9
EndSplineSet
EndChar

StartChar: semicolon
Encoding: 59 59 30
Width: 300
Flags: W
LayerCount: 2
Back
Fore
SplineSet
150 100 m 0,0,1
 171 100 171 100 185.5 85.5 c 128,-1,2
 200 71 200 71 200 50 c 0,3,4
 200 44 200 44 199 38 c 2,5,-1
 149 -162 l 2,6,7
 144 -179 144 -179 130.5 -189.5 c 128,-1,8
 117 -200 117 -200 100 -200 c 0,9,10
 79 -200 79 -200 64.5 -185.5 c 128,-1,11
 50 -171 50 -171 50 -150 c 0,12,13
 50 -144 50 -144 51 -138 c 2,14,-1
 101 62 l 2,15,16
 106 79 106 79 119.5 89.5 c 128,-1,17
 133 100 133 100 150 100 c 0,0,1
200 650 m 128,-1,19
 200 629 200 629 185.5 614.5 c 128,-1,20
 171 600 171 600 150 600 c 128,-1,21
 129 600 129 600 114.5 614.5 c 128,-1,22
 100 629 100 629 100 650 c 128,-1,23
 100 671 100 671 114.5 685.5 c 128,-1,24
 129 700 129 700 150 700 c 128,-1,25
 171 700 171 700 185.5 685.5 c 128,-1,18
 200 671 200 671 200 650 c 128,-1,19
EndSplineSet
EndChar

StartChar: less
Encoding: 60 60 31
Width: 800
Flags: W
LayerCount: 2
Back
Fore
SplineSet
650 800 m 0,0,1
 671 800 671 800 685.5 785.5 c 128,-1,2
 700 771 700 771 700 750 c 0,3,4
 700 719 700 719 672 705 c 2,5,-1
 262 500 l 1,6,-1
 672 295 l 2,7,8
 700 281 700 281 700 250 c 0,9,10
 700 229 700 229 685.5 214.5 c 128,-1,11
 671 200 671 200 650 200 c 0,12,13
 638 200 638 200 626 206 c 2,14,-1
 128 455 l 2,15,16
 100 469 100 469 100 500 c 128,-1,17
 100 531 100 531 128 545 c 2,18,-1
 626 794 l 2,19,20
 638 800 638 800 650 800 c 0,0,1
EndSplineSet
EndChar

StartChar: equal
Encoding: 61 61 32
Width: 700
Flags: W
LayerCount: 2
Back
Fore
SplineSet
100 400 m 2,0,-1
 600 400 l 2,1,2
 621 400 621 400 635.5 385.5 c 128,-1,3
 650 371 650 371 650 350 c 128,-1,4
 650 329 650 329 635.5 314.5 c 128,-1,5
 621 300 621 300 600 300 c 2,6,-1
 100 300 l 2,7,8
 79 300 79 300 64.5 314.5 c 128,-1,9
 50 329 50 329 50 350 c 128,-1,10
 50 371 50 371 64.5 385.5 c 128,-1,11
 79 400 79 400 100 400 c 2,0,-1
100 700 m 2,12,-1
 600 700 l 2,13,14
 621 700 621 700 635.5 685.5 c 128,-1,15
 650 671 650 671 650 650 c 128,-1,16
 650 629 650 629 635.5 614.5 c 128,-1,17
 621 600 621 600 600 600 c 2,18,-1
 100 600 l 2,19,20
 79 600 79 600 64.5 614.5 c 128,-1,21
 50 629 50 629 50 650 c 128,-1,22
 50 671 50 671 64.5 685.5 c 128,-1,23
 79 700 79 700 100 700 c 2,12,-1
EndSplineSet
EndChar

StartChar: greater
Encoding: 62 62 33
Width: 800
Flags: W
LayerCount: 2
Back
Fore
SplineSet
150 800 m 0,0,1
 162 800 162 800 174 794 c 2,2,-1
 672 545 l 2,3,4
 700 531 700 531 700 500 c 128,-1,5
 700 469 700 469 672 455 c 2,6,-1
 174 206 l 2,7,8
 162 200 162 200 150 200 c 0,9,10
 129 200 129 200 114.5 214.5 c 128,-1,11
 100 229 100 229 100 250 c 0,12,13
 100 281 100 281 128 295 c 2,14,-1
 538 500 l 1,15,-1
 128 705 l 2,16,17
 100 719 100 719 100 750 c 0,18,19
 100 771 100 771 114.5 785.5 c 128,-1,20
 129 800 129 800 150 800 c 0,0,1
EndSplineSet
EndChar

StartChar: question
Encoding: 63 63 34
Width: 800
Flags: W
LayerCount: 2
Back
Fore
SplineSet
450 50 m 128,-1,1
 450 29 450 29 435.5 14.5 c 128,-1,2
 421 0 421 0 400 0 c 128,-1,3
 379 0 379 0 364.5 14.5 c 128,-1,4
 350 29 350 29 350 50 c 128,-1,5
 350 71 350 71 364.5 85.5 c 128,-1,6
 379 100 379 100 400 100 c 128,-1,7
 421 100 421 100 435.5 85.5 c 128,-1,0
 450 71 450 71 450 50 c 128,-1,1
400 1430 m 0,8,9
 524 1430 524 1430 612 1342 c 128,-1,10
 700 1254 700 1254 700 1130 c 0,11,12
 700 1020 700 1020 630 937 c 2,13,-1
 497 778 l 2,14,15
 450 721 450 721 450 650 c 2,16,-1
 450 350 l 2,17,18
 450 329 450 329 435.5 314.5 c 128,-1,19
 421 300 421 300 400 300 c 128,-1,20
 379 300 379 300 364.5 314.5 c 128,-1,21
 350 329 350 329 350 350 c 2,22,-1
 350 650 l 2,23,24
 350 760 350 760 420 843 c 2,25,-1
 553 1002 l 2,26,27
 600 1059 600 1059 600 1130 c 0,28,29
 600 1212 600 1212 541 1271 c 128,-1,30
 482 1330 482 1330 400 1330 c 0,31,32
 338 1330 338 1330 276.5 1299.5 c 128,-1,33
 215 1269 215 1269 195 1228 c 0,34,35
 181 1200 181 1200 150 1200 c 0,36,37
 129 1200 129 1200 114.5 1214.5 c 128,-1,38
 100 1229 100 1229 100 1250 c 0,39,40
 100 1260 100 1260 105 1272 c 0,41,42
 143 1348 143 1348 225 1389 c 128,-1,43
 307 1430 307 1430 400 1430 c 0,8,9
EndSplineSet
EndChar

StartChar: at
Encoding: 64 64 35
Width: 1600
Flags: W
LayerCount: 2
Back
Fore
SplineSet
800 1430 m 128,-1,1
 943 1430 943 1430 1072.5 1374.5 c 128,-1,2
 1202 1319 1202 1319 1295.5 1225.5 c 128,-1,3
 1389 1132 1389 1132 1444.5 1002.5 c 128,-1,4
 1500 873 1500 873 1500 730 c 2,5,-1
 1500 350 l 2,6,7
 1500 205 1500 205 1397.5 102.5 c 128,-1,8
 1295 0 1295 0 1150 0 c 0,9,10
 1109 0 1109 0 1074.5 20.5 c 128,-1,11
 1040 41 1040 41 1020 76 c 1,12,13
 931 -20 931 -20 800 -20 c 0,14,15
 676 -20 676 -20 588 68 c 128,-1,16
 500 156 500 156 500 280 c 2,17,-1
 500 750 l 2,18,19
 500 854 500 854 573 927 c 128,-1,20
 646 1000 646 1000 750 1000 c 2,21,-1
 1050 1000 l 2,22,23
 1071 1000 1071 1000 1085.5 985.5 c 128,-1,24
 1100 971 1100 971 1100 950 c 2,25,-1
 1100 150 l 2,26,27
 1100 129 1100 129 1114.5 114.5 c 128,-1,28
 1129 100 1129 100 1150 100 c 0,29,30
 1254 100 1254 100 1327 173 c 128,-1,31
 1400 246 1400 246 1400 350 c 2,32,-1
 1400 730 l 2,33,34
 1400 893 1400 893 1319.5 1031 c 128,-1,35
 1239 1169 1239 1169 1101 1249.5 c 128,-1,36
 963 1330 963 1330 800 1330 c 128,-1,37
 637 1330 637 1330 499 1249.5 c 128,-1,38
 361 1169 361 1169 280.5 1031 c 128,-1,39
 200 893 200 893 200 730 c 2,40,-1
 200 300 l 2,41,42
 200 137 200 137 280.5 -1 c 128,-1,43
 361 -139 361 -139 499 -219.5 c 128,-1,44
 637 -300 637 -300 800 -300 c 0,45,46
 821 -300 821 -300 835.5 -314.5 c 128,-1,47
 850 -329 850 -329 850 -350 c 128,-1,48
 850 -371 850 -371 835.5 -385.5 c 128,-1,49
 821 -400 821 -400 800 -400 c 0,50,51
 657 -400 657 -400 527.5 -344.5 c 128,-1,52
 398 -289 398 -289 304.5 -195.5 c 128,-1,53
 211 -102 211 -102 155.5 27.5 c 128,-1,54
 100 157 100 157 100 300 c 2,55,-1
 100 730 l 2,56,57
 100 873 100 873 155.5 1002.5 c 128,-1,58
 211 1132 211 1132 304.5 1225.5 c 128,-1,59
 398 1319 398 1319 527.5 1374.5 c 128,-1,0
 657 1430 657 1430 800 1430 c 128,-1,1
750 900 m 2,60,61
 688 900 688 900 644 856 c 128,-1,62
 600 812 600 812 600 750 c 2,63,-1
 600 280 l 2,64,65
 600 198 600 198 659 139 c 128,-1,66
 718 80 718 80 800 80 c 128,-1,67
 882 80 882 80 941 139 c 128,-1,68
 1000 198 1000 198 1000 280 c 2,69,-1
 1000 900 l 1,70,-1
 750 900 l 2,60,61
EndSplineSet
EndChar

StartChar: A
Encoding: 65 65 36
Width: 900
Flags: W
LayerCount: 2
Back
Fore
SplineSet
450 1400 m 128,-1,1
 467 1400 467 1400 480.5 1389.5 c 128,-1,2
 494 1379 494 1379 499 1362 c 2,3,-1
 848 63 l 2,4,5
 850 55 850 55 850 50 c 0,6,7
 850 29 850 29 835.5 14.5 c 128,-1,8
 821 0 821 0 800 0 c 0,9,10
 783 0 783 0 770 10.5 c 128,-1,11
 757 21 757 21 752 37 c 2,12,-1
 654 400 l 1,13,-1
 246 400 l 1,14,-1
 148 37 l 2,15,16
 143 21 143 21 130 10.5 c 128,-1,17
 117 0 117 0 100 0 c 0,18,19
 79 0 79 0 64.5 14.5 c 128,-1,20
 50 29 50 29 50 50 c 0,21,22
 50 55 50 55 52 63 c 2,23,-1
 402 1363 l 2,24,25
 407 1379 407 1379 420 1389.5 c 128,-1,0
 433 1400 433 1400 450 1400 c 128,-1,1
450 1158 m 1,26,-1
 273 500 l 1,27,-1
 627 500 l 1,28,-1
 450 1158 l 1,26,-1
EndSplineSet
EndChar

StartChar: B
Encoding: 66 66 37
Width: 870
Flags: W
LayerCount: 2
Back
Fore
SplineSet
150 1400 m 2,0,-1
 400 1400 l 2,1,2
 545 1400 545 1400 647.5 1297.5 c 128,-1,3
 750 1195 750 1195 750 1050 c 0,4,5
 750 958 750 958 706 879.5 c 128,-1,6
 662 801 662 801 587 754 c 1,7,8
 684 703 684 703 742 608.5 c 128,-1,9
 800 514 800 514 800 400 c 0,10,11
 800 234 800 234 683 117 c 128,-1,12
 566 0 566 0 400 0 c 2,13,-1
 150 0 l 2,14,15
 129 0 129 0 114.5 14.5 c 128,-1,16
 100 29 100 29 100 50 c 2,17,-1
 100 1350 l 2,18,19
 100 1371 100 1371 114.5 1385.5 c 128,-1,20
 129 1400 129 1400 150 1400 c 2,0,-1
200 1300 m 1,21,-1
 200 800 l 1,22,-1
 400 800 l 2,23,24
 504 800 504 800 577 873 c 128,-1,25
 650 946 650 946 650 1050 c 128,-1,26
 650 1154 650 1154 577 1227 c 128,-1,27
 504 1300 504 1300 400 1300 c 2,28,-1
 200 1300 l 1,21,-1
200 700 m 1,29,-1
 200 100 l 1,30,-1
 400 100 l 2,31,32
 524 100 524 100 612 188 c 128,-1,33
 700 276 700 276 700 400 c 128,-1,34
 700 524 700 524 612 612 c 128,-1,35
 524 700 524 700 400 700 c 2,36,-1
 200 700 l 1,29,-1
EndSplineSet
EndChar

StartChar: C
Encoding: 67 67 38
Width: 760
Flags: W
LayerCount: 2
Back
Fore
SplineSet
440 1400 m 2,0,-1
 640 1400 l 2,1,2
 661 1400 661 1400 675.5 1385.5 c 128,-1,3
 690 1371 690 1371 690 1350 c 128,-1,4
 690 1329 690 1329 675.5 1314.5 c 128,-1,5
 661 1300 661 1300 640 1300 c 2,6,-1
 440 1300 l 2,7,8
 336 1300 336 1300 263 1227 c 128,-1,9
 190 1154 190 1154 190 1050 c 2,10,-1
 190 350 l 2,11,12
 190 246 190 246 263 173 c 128,-1,13
 336 100 336 100 440 100 c 2,14,-1
 640 100 l 2,15,16
 661 100 661 100 675.5 85.5 c 128,-1,17
 690 71 690 71 690 50 c 128,-1,18
 690 29 690 29 675.5 14.5 c 128,-1,19
 661 0 661 0 640 0 c 2,20,-1
 440 0 l 2,21,22
 295 0 295 0 192.5 102.5 c 128,-1,23
 90 205 90 205 90 350 c 2,24,-1
 90 1050 l 2,25,26
 90 1195 90 1195 192.5 1297.5 c 128,-1,27
 295 1400 295 1400 440 1400 c 2,0,-1
EndSplineSet
EndChar

StartChar: D
Encoding: 68 68 39
Width: 890
Flags: W
LayerCount: 2
Back
Fore
SplineSet
150 1400 m 2,0,-1
 450 1400 l 2,1,2
 595 1400 595 1400 697.5 1297.5 c 128,-1,3
 800 1195 800 1195 800 1050 c 2,4,-1
 800 350 l 2,5,6
 800 205 800 205 697.5 102.5 c 128,-1,7
 595 0 595 0 450 0 c 2,8,-1
 150 0 l 2,9,10
 129 0 129 0 114.5 14.5 c 128,-1,11
 100 29 100 29 100 50 c 2,12,-1
 100 1350 l 2,13,14
 100 1371 100 1371 114.5 1385.5 c 128,-1,15
 129 1400 129 1400 150 1400 c 2,0,-1
200 1300 m 1,16,-1
 200 100 l 1,17,-1
 450 100 l 2,18,19
 554 100 554 100 627 173 c 128,-1,20
 700 246 700 246 700 350 c 2,21,-1
 700 1050 l 2,22,23
 700 1154 700 1154 627 1227 c 128,-1,24
 554 1300 554 1300 450 1300 c 2,25,-1
 200 1300 l 1,16,-1
EndSplineSet
EndChar

StartChar: E
Encoding: 69 69 40
Width: 780
Flags: W
LayerCount: 2
Back
Fore
SplineSet
150 1400 m 2,0,-1
 650 1400 l 2,1,2
 671 1400 671 1400 685.5 1385.5 c 128,-1,3
 700 1371 700 1371 700 1350 c 128,-1,4
 700 1329 700 1329 685.5 1314.5 c 128,-1,5
 671 1300 671 1300 650 1300 c 2,6,-1
 200 1300 l 1,7,-1
 200 800 l 1,8,-1
 450 800 l 2,9,10
 471 800 471 800 485.5 785.5 c 128,-1,11
 500 771 500 771 500 750 c 128,-1,12
 500 729 500 729 485.5 714.5 c 128,-1,13
 471 700 471 700 450 700 c 2,14,-1
 200 700 l 1,15,-1
 200 100 l 1,16,-1
 650 100 l 2,17,18
 671 100 671 100 685.5 85.5 c 128,-1,19
 700 71 700 71 700 50 c 128,-1,20
 700 29 700 29 685.5 14.5 c 128,-1,21
 671 0 671 0 650 0 c 2,22,-1
 150 0 l 2,23,24
 129 0 129 0 114.5 14.5 c 128,-1,25
 100 29 100 29 100 50 c 2,26,-1
 100 1350 l 2,27,28
 100 1371 100 1371 114.5 1385.5 c 128,-1,29
 129 1400 129 1400 150 1400 c 2,0,-1
EndSplineSet
EndChar

StartChar: F
Encoding: 70 70 41
Width: 780
Flags: W
LayerCount: 2
Back
Fore
SplineSet
150 1400 m 2,0,-1
 650 1400 l 2,1,2
 671 1400 671 1400 685.5 1385.5 c 128,-1,3
 700 1371 700 1371 700 1350 c 128,-1,4
 700 1329 700 1329 685.5 1314.5 c 128,-1,5
 671 1300 671 1300 650 1300 c 2,6,-1
 200 1300 l 1,7,-1
 200 800 l 1,8,-1
 650 800 l 2,9,10
 671 800 671 800 685.5 785.5 c 128,-1,11
 700 771 700 771 700 750 c 128,-1,12
 700 729 700 729 685.5 714.5 c 128,-1,13
 671 700 671 700 650 700 c 2,14,-1
 200 700 l 1,15,-1
 200 50 l 2,16,17
 200 29 200 29 185.5 14.5 c 128,-1,18
 171 0 171 0 150 0 c 128,-1,19
 129 0 129 0 114.5 14.5 c 128,-1,20
 100 29 100 29 100 50 c 2,21,-1
 100 1350 l 2,22,23
 100 1371 100 1371 114.5 1385.5 c 128,-1,24
 129 1400 129 1400 150 1400 c 2,0,-1
EndSplineSet
EndChar

StartChar: G
Encoding: 71 71 42
Width: 890
Flags: W
LayerCount: 2
Back
Fore
SplineSet
440 1400 m 2,0,-1
 740 1400 l 2,1,2
 761 1400 761 1400 775.5 1385.5 c 128,-1,3
 790 1371 790 1371 790 1350 c 128,-1,4
 790 1329 790 1329 775.5 1314.5 c 128,-1,5
 761 1300 761 1300 740 1300 c 2,6,-1
 440 1300 l 2,7,8
 336 1300 336 1300 263 1227 c 128,-1,9
 190 1154 190 1154 190 1050 c 2,10,-1
 190 350 l 2,11,12
 190 246 190 246 263 173 c 128,-1,13
 336 100 336 100 440 100 c 2,14,-1
 690 100 l 1,15,-1
 690 700 l 1,16,-1
 540 700 l 2,17,18
 519 700 519 700 504.5 714.5 c 128,-1,19
 490 729 490 729 490 750 c 128,-1,20
 490 771 490 771 504.5 785.5 c 128,-1,21
 519 800 519 800 540 800 c 2,22,-1
 740 800 l 2,23,24
 761 800 761 800 775.5 785.5 c 128,-1,25
 790 771 790 771 790 750 c 2,26,-1
 790 50 l 2,27,28
 790 29 790 29 775.5 14.5 c 128,-1,29
 761 0 761 0 740 0 c 2,30,-1
 440 0 l 2,31,32
 295 0 295 0 192.5 102.5 c 128,-1,33
 90 205 90 205 90 350 c 2,34,-1
 90 1050 l 2,35,36
 90 1195 90 1195 192.5 1297.5 c 128,-1,37
 295 1400 295 1400 440 1400 c 2,0,-1
EndSplineSet
EndChar

StartChar: H
Encoding: 72 72 43
Width: 900
Flags: W
LayerCount: 2
Back
Fore
SplineSet
150 1400 m 128,-1,1
 171 1400 171 1400 185.5 1385.5 c 128,-1,2
 200 1371 200 1371 200 1350 c 2,3,-1
 200 800 l 1,4,-1
 700 800 l 1,5,-1
 700 1350 l 2,6,7
 700 1371 700 1371 714.5 1385.5 c 128,-1,8
 729 1400 729 1400 750 1400 c 128,-1,9
 771 1400 771 1400 785.5 1385.5 c 128,-1,10
 800 1371 800 1371 800 1350 c 2,11,-1
 800 50 l 2,12,13
 800 29 800 29 785.5 14.5 c 128,-1,14
 771 0 771 0 750 0 c 128,-1,15
 729 0 729 0 714.5 14.5 c 128,-1,16
 700 29 700 29 700 50 c 2,17,-1
 700 700 l 1,18,-1
 200 700 l 1,19,-1
 200 50 l 2,20,21
 200 29 200 29 185.5 14.5 c 128,-1,22
 171 0 171 0 150 0 c 128,-1,23
 129 0 129 0 114.5 14.5 c 128,-1,24
 100 29 100 29 100 50 c 2,25,-1
 100 1350 l 2,26,27
 100 1371 100 1371 114.5 1385.5 c 128,-1,0
 129 1400 129 1400 150 1400 c 128,-1,1
EndSplineSet
EndChar

StartChar: I
Encoding: 73 73 44
Width: 300
Flags: W
LayerCount: 2
Back
Fore
SplineSet
150 1400 m 128,-1,1
 171 1400 171 1400 185.5 1385.5 c 128,-1,2
 200 1371 200 1371 200 1350 c 2,3,-1
 200 50 l 2,4,5
 200 29 200 29 185.5 14.5 c 128,-1,6
 171 0 171 0 150 0 c 128,-1,7
 129 0 129 0 114.5 14.5 c 128,-1,8
 100 29 100 29 100 50 c 2,9,-1
 100 1350 l 2,10,11
 100 1371 100 1371 114.5 1385.5 c 128,-1,0
 129 1400 129 1400 150 1400 c 128,-1,1
EndSplineSet
EndChar

StartChar: J
Encoding: 74 74 45
Width: 640
Flags: W
LayerCount: 2
Back
Fore
SplineSet
500 1400 m 128,-1,1
 521 1400 521 1400 535.5 1385.5 c 128,-1,2
 550 1371 550 1371 550 1350 c 2,3,-1
 550 350 l 2,4,5
 550 205 550 205 447.5 102.5 c 128,-1,6
 345 0 345 0 200 0 c 2,7,-1
 100 0 l 2,8,9
 79 0 79 0 64.5 14.5 c 128,-1,10
 50 29 50 29 50 50 c 128,-1,11
 50 71 50 71 64.5 85.5 c 128,-1,12
 79 100 79 100 100 100 c 2,13,-1
 200 100 l 2,14,15
 304 100 304 100 377 173 c 128,-1,16
 450 246 450 246 450 350 c 2,17,-1
 450 1350 l 2,18,19
 450 1371 450 1371 464.5 1385.5 c 128,-1,0
 479 1400 479 1400 500 1400 c 128,-1,1
EndSplineSet
EndChar

StartChar: K
Encoding: 75 75 46
Width: 880
Flags: W
LayerCount: 2
Back
Fore
SplineSet
150 1400 m 128,-1,1
 171 1400 171 1400 185.5 1385.5 c 128,-1,2
 200 1371 200 1371 200 1350 c 2,3,-1
 200 700 l 1,4,-1
 710 1380 l 2,5,6
 725 1400 725 1400 750 1400 c 0,7,8
 771 1400 771 1400 785.5 1385.5 c 128,-1,9
 800 1371 800 1371 800 1350 c 0,10,11
 800 1333 800 1333 790 1320 c 2,12,-1
 404 805 l 1,13,-1
 794 74 l 2,14,15
 800 64 800 64 800 50 c 0,16,17
 800 29 800 29 785.5 14.5 c 128,-1,18
 771 0 771 0 750 0 c 0,19,20
 719 0 719 0 706 26 c 2,21,-1
 338 717 l 1,22,-1
 200 533 l 1,23,-1
 200 50 l 2,24,25
 200 29 200 29 185.5 14.5 c 128,-1,26
 171 0 171 0 150 0 c 128,-1,27
 129 0 129 0 114.5 14.5 c 128,-1,28
 100 29 100 29 100 50 c 2,29,-1
 100 1350 l 2,30,31
 100 1371 100 1371 114.5 1385.5 c 128,-1,0
 129 1400 129 1400 150 1400 c 128,-1,1
EndSplineSet
EndChar

StartChar: L
Encoding: 76 76 47
Width: 650
Flags: W
LayerCount: 2
Back
Fore
SplineSet
150 1400 m 128,-1,1
 171 1400 171 1400 185.5 1385.5 c 128,-1,2
 200 1371 200 1371 200 1350 c 2,3,-1
 200 100 l 1,4,-1
 550 100 l 2,5,6
 571 100 571 100 585.5 85.5 c 128,-1,7
 600 71 600 71 600 50 c 128,-1,8
 600 29 600 29 585.5 14.5 c 128,-1,9
 571 0 571 0 550 0 c 2,10,-1
 150 0 l 2,11,12
 129 0 129 0 114.5 14.5 c 128,-1,13
 100 29 100 29 100 50 c 2,14,-1
 100 1350 l 2,15,16
 100 1371 100 1371 114.5 1385.5 c 128,-1,0
 129 1400 129 1400 150 1400 c 128,-1,1
EndSplineSet
EndChar

StartChar: M
Encoding: 77 77 48
Width: 1100
Flags: W
LayerCount: 2
Back
Fore
SplineSet
150 1400 m 0,0,1
 179 1400 179 1400 193 1375 c 2,2,-1
 550 751 l 1,3,-1
 907 1375 l 2,4,5
 921 1400 921 1400 950 1400 c 0,6,7
 971 1400 971 1400 985.5 1385.5 c 128,-1,8
 1000 1371 1000 1371 1000 1350 c 2,9,-1
 1000 50 l 2,10,11
 1000 29 1000 29 985.5 14.5 c 128,-1,12
 971 0 971 0 950 0 c 128,-1,13
 929 0 929 0 914.5 14.5 c 128,-1,14
 900 29 900 29 900 50 c 2,15,-1
 900 1162 l 1,16,-1
 593 625 l 2,17,18
 579 600 579 600 550 600 c 128,-1,19
 521 600 521 600 506 626 c 2,20,-1
 200 1162 l 1,21,-1
 200 50 l 2,22,23
 200 29 200 29 185.5 14.5 c 128,-1,24
 171 0 171 0 150 0 c 128,-1,25
 129 0 129 0 114.5 14.5 c 128,-1,26
 100 29 100 29 100 50 c 2,27,-1
 100 1350 l 2,28,29
 100 1371 100 1371 114.5 1385.5 c 128,-1,30
 129 1400 129 1400 150 1400 c 0,0,1
EndSplineSet
EndChar

StartChar: N
Encoding: 78 78 49
Width: 900
Flags: W
LayerCount: 2
Back
Fore
SplineSet
150 1400 m 0,0,1
 182 1400 182 1400 195 1371 c 2,2,-1
 700 278 l 1,3,-1
 700 1350 l 2,4,5
 700 1371 700 1371 714.5 1385.5 c 128,-1,6
 729 1400 729 1400 750 1400 c 128,-1,7
 771 1400 771 1400 785.5 1385.5 c 128,-1,8
 800 1371 800 1371 800 1350 c 2,9,-1
 800 50 l 2,10,11
 800 29 800 29 785.5 14.5 c 128,-1,12
 771 0 771 0 750 0 c 0,13,14
 718 0 718 0 705 29 c 2,15,-1
 200 1122 l 1,16,-1
 200 50 l 2,17,18
 200 29 200 29 185.5 14.5 c 128,-1,19
 171 0 171 0 150 0 c 128,-1,20
 129 0 129 0 114.5 14.5 c 128,-1,21
 100 29 100 29 100 50 c 2,22,-1
 100 1350 l 2,23,24
 100 1371 100 1371 114.5 1385.5 c 128,-1,25
 129 1400 129 1400 150 1400 c 0,0,1
EndSplineSet
EndChar

StartChar: O
Encoding: 79 79 50
Width: 880
Flags: W
LayerCount: 2
Back
Fore
SplineSet
440 1430 m 128,-1,1
 585 1430 585 1430 687.5 1327.5 c 128,-1,2
 790 1225 790 1225 790 1080 c 2,3,-1
 790 320 l 2,4,5
 790 175 790 175 687.5 72.5 c 128,-1,6
 585 -30 585 -30 440 -30 c 128,-1,7
 295 -30 295 -30 192.5 72.5 c 128,-1,8
 90 175 90 175 90 320 c 2,9,-1
 90 1080 l 2,10,11
 90 1225 90 1225 192.5 1327.5 c 128,-1,0
 295 1430 295 1430 440 1430 c 128,-1,1
440 1330 m 128,-1,13
 336 1330 336 1330 263 1257 c 128,-1,14
 190 1184 190 1184 190 1080 c 2,15,-1
 190 320 l 2,16,17
 190 216 190 216 263 143 c 128,-1,18
 336 70 336 70 440 70 c 128,-1,19
 544 70 544 70 617 143 c 128,-1,20
 690 216 690 216 690 320 c 2,21,-1
 690 1080 l 2,22,23
 690 1184 690 1184 617 1257 c 128,-1,12
 544 1330 544 1330 440 1330 c 128,-1,13
EndSplineSet
EndChar

StartChar: P
Encoding: 80 80 51
Width: 870
Flags: W
LayerCount: 2
Back
Fore
SplineSet
150 1400 m 2,0,-1
 400 1400 l 2,1,2
 566 1400 566 1400 683 1283 c 128,-1,3
 800 1166 800 1166 800 1000 c 128,-1,4
 800 834 800 834 683 717 c 128,-1,5
 566 600 566 600 400 600 c 2,6,-1
 200 600 l 1,7,-1
 200 50 l 2,8,9
 200 29 200 29 185.5 14.5 c 128,-1,10
 171 0 171 0 150 0 c 128,-1,11
 129 0 129 0 114.5 14.5 c 128,-1,12
 100 29 100 29 100 50 c 2,13,-1
 100 1350 l 2,14,15
 100 1371 100 1371 114.5 1385.5 c 128,-1,16
 129 1400 129 1400 150 1400 c 2,0,-1
200 1300 m 1,17,-1
 200 700 l 1,18,-1
 400 700 l 2,19,20
 524 700 524 700 612 788 c 128,-1,21
 700 876 700 876 700 1000 c 128,-1,22
 700 1124 700 1124 612 1212 c 128,-1,23
 524 1300 524 1300 400 1300 c 2,24,-1
 200 1300 l 1,17,-1
EndSplineSet
EndChar

StartChar: Q
Encoding: 81 81 52
Width: 890
Flags: W
LayerCount: 2
Back
Fore
SplineSet
440 1430 m 128,-1,1
 585 1430 585 1430 687.5 1327.5 c 128,-1,2
 790 1225 790 1225 790 1080 c 2,3,-1
 790 320 l 2,4,5
 790 244 790 244 758 174 c 1,6,-1
 870 90 l 2,7,8
 890 75 890 75 890 50 c 0,9,10
 890 29 890 29 875.5 14.5 c 128,-1,11
 861 0 861 0 840 0 c 0,12,13
 823 0 823 0 810 10 c 2,14,-1
 704 90 l 1,15,16
 655 34 655 34 586 2 c 128,-1,17
 517 -30 517 -30 440 -30 c 0,18,19
 295 -30 295 -30 192.5 72.5 c 128,-1,20
 90 175 90 175 90 320 c 2,21,-1
 90 1080 l 2,22,23
 90 1225 90 1225 192.5 1327.5 c 128,-1,0
 295 1430 295 1430 440 1430 c 128,-1,1
440 1330 m 128,-1,25
 336 1330 336 1330 263 1257 c 128,-1,26
 190 1184 190 1184 190 1080 c 2,27,-1
 190 320 l 2,28,29
 190 216 190 216 263 143 c 128,-1,30
 336 70 336 70 440 70 c 0,31,32
 548 70 548 70 623 150 c 1,33,-1
 410 310 l 2,34,35
 390 325 390 325 390 350 c 0,36,37
 390 371 390 371 404.5 385.5 c 128,-1,38
 419 400 419 400 440 400 c 0,39,40
 457 400 457 400 470 390 c 2,41,-1
 676 236 l 1,42,43
 690 276 690 276 690 320 c 2,44,-1
 690 1080 l 2,45,46
 690 1184 690 1184 617 1257 c 128,-1,24
 544 1330 544 1330 440 1330 c 128,-1,25
EndSplineSet
EndChar

StartChar: R
Encoding: 82 82 53
Width: 880
Flags: W
LayerCount: 2
Back
Fore
SplineSet
150 1400 m 2,0,-1
 400 1400 l 2,1,2
 566 1400 566 1400 683 1283 c 128,-1,3
 800 1166 800 1166 800 1000 c 0,4,5
 800 856 800 856 710 746.5 c 128,-1,6
 620 637 620 637 482 608 c 1,7,-1
 793 75 l 2,8,9
 800 63 800 63 800 50 c 0,10,11
 800 29 800 29 785.5 14.5 c 128,-1,12
 771 0 771 0 750 0 c 0,13,14
 722 0 722 0 707 25 c 2,15,-1
 371 600 l 1,16,-1
 200 600 l 1,17,-1
 200 50 l 2,18,19
 200 29 200 29 185.5 14.5 c 128,-1,20
 171 0 171 0 150 0 c 128,-1,21
 129 0 129 0 114.5 14.5 c 128,-1,22
 100 29 100 29 100 50 c 2,23,-1
 100 1350 l 2,24,25
 100 1371 100 1371 114.5 1385.5 c 128,-1,26
 129 1400 129 1400 150 1400 c 2,0,-1
200 1300 m 1,27,-1
 200 700 l 1,28,-1
 400 700 l 2,29,30
 524 700 524 700 612 788 c 128,-1,31
 700 876 700 876 700 1000 c 128,-1,32
 700 1124 700 1124 612 1212 c 128,-1,33
 524 1300 524 1300 400 1300 c 2,34,-1
 200 1300 l 1,27,-1
EndSplineSet
EndChar

StartChar: S
Encoding: 83 83 54
Width: 850
Flags: W
LayerCount: 2
Back
Fore
SplineSet
415 1430 m 0,0,1
 641 1430 641 1430 735 1335 c 0,2,3
 750 1320 750 1320 750 1300 c 0,4,5
 750 1279 750 1279 735.5 1264.5 c 128,-1,6
 721 1250 721 1250 700 1250 c 0,7,8
 680 1250 680 1250 665 1265 c 0,9,10
 637 1293 637 1293 571.5 1311.5 c 128,-1,11
 506 1330 506 1330 415 1330 c 0,12,13
 292 1330 292 1330 229 1280 c 0,14,15
 180 1241 180 1241 180 1170 c 0,16,17
 180 1115 180 1115 216 1069 c 2,18,-1
 713 460 l 2,19,20
 780 377 780 377 780 270 c 0,21,22
 780 138 780 138 693 57 c 0,23,24
 600 -30 600 -30 430 -30 c 0,25,26
 311 -30 311 -30 229.5 -9.5 c 128,-1,27
 148 11 148 11 95 65 c 0,28,29
 80 80 80 80 80 100 c 0,30,31
 80 121 80 121 94.5 135.5 c 128,-1,32
 109 150 109 150 130 150 c 0,33,34
 150 150 150 150 165 135 c 0,35,36
 230 70 230 70 430 70 c 0,37,38
 560 70 560 70 625 130 c 0,39,40
 680 181 680 181 680 270 c 0,41,42
 680 341 680 341 635 396 c 2,43,-1
 138 1006 l 2,44,45
 80 1078 80 1078 80 1170 c 0,46,47
 80 1286 80 1286 166 1357 c 0,48,49
 254 1430 254 1430 415 1430 c 0,0,1
EndSplineSet
EndChar

StartChar: T
Encoding: 84 84 55
Width: 840
Flags: W
LayerCount: 2
Back
Fore
SplineSet
120 1400 m 2,0,-1
 720 1400 l 2,1,2
 741 1400 741 1400 755.5 1385.5 c 128,-1,3
 770 1371 770 1371 770 1350 c 128,-1,4
 770 1329 770 1329 755.5 1314.5 c 128,-1,5
 741 1300 741 1300 720 1300 c 2,6,-1
 470 1300 l 1,7,-1
 470 50 l 2,8,9
 470 29 470 29 455.5 14.5 c 128,-1,10
 441 0 441 0 420 0 c 128,-1,11
 399 0 399 0 384.5 14.5 c 128,-1,12
 370 29 370 29 370 50 c 2,13,-1
 370 1300 l 1,14,-1
 120 1300 l 2,15,16
 99 1300 99 1300 84.5 1314.5 c 128,-1,17
 70 1329 70 1329 70 1350 c 128,-1,18
 70 1371 70 1371 84.5 1385.5 c 128,-1,19
 99 1400 99 1400 120 1400 c 2,0,-1
EndSplineSet
EndChar

StartChar: U
Encoding: 85 85 56
Width: 900
Flags: W
LayerCount: 2
Back
Fore
SplineSet
150 1400 m 128,-1,1
 171 1400 171 1400 185.5 1385.5 c 128,-1,2
 200 1371 200 1371 200 1350 c 2,3,-1
 200 320 l 2,4,5
 200 216 200 216 273 143 c 128,-1,6
 346 70 346 70 450 70 c 128,-1,7
 554 70 554 70 627 143 c 128,-1,8
 700 216 700 216 700 320 c 2,9,-1
 700 1350 l 2,10,11
 700 1371 700 1371 714.5 1385.5 c 128,-1,12
 729 1400 729 1400 750 1400 c 128,-1,13
 771 1400 771 1400 785.5 1385.5 c 128,-1,14
 800 1371 800 1371 800 1350 c 2,15,-1
 800 320 l 2,16,17
 800 175 800 175 697.5 72.5 c 128,-1,18
 595 -30 595 -30 450 -30 c 128,-1,19
 305 -30 305 -30 202.5 72.5 c 128,-1,20
 100 175 100 175 100 320 c 2,21,-1
 100 1350 l 2,22,23
 100 1371 100 1371 114.5 1385.5 c 128,-1,0
 129 1400 129 1400 150 1400 c 128,-1,1
EndSplineSet
EndChar

StartChar: V
Encoding: 86 86 57
Width: 900
Flags: W
LayerCount: 2
Back
Fore
SplineSet
100 1400 m 0,0,1
 117 1400 117 1400 130 1389.5 c 128,-1,2
 143 1379 143 1379 148 1363 c 2,3,-1
 450 242 l 1,4,-1
 751 1362 l 2,5,6
 756 1379 756 1379 769.5 1389.5 c 128,-1,7
 783 1400 783 1400 800 1400 c 0,8,9
 821 1400 821 1400 835.5 1385.5 c 128,-1,10
 850 1371 850 1371 850 1350 c 0,11,12
 850 1345 850 1345 848 1337 c 2,13,-1
 499 38 l 2,14,15
 494 21 494 21 480.5 10.5 c 128,-1,16
 467 0 467 0 450 0 c 128,-1,17
 433 0 433 0 419.5 10.5 c 128,-1,18
 406 21 406 21 401 38 c 2,19,-1
 52 1337 l 2,20,21
 50 1345 50 1345 50 1350 c 0,22,23
 50 1371 50 1371 64.5 1385.5 c 128,-1,24
 79 1400 79 1400 100 1400 c 0,0,1
EndSplineSet
EndChar

StartChar: W
Encoding: 87 87 58
Width: 1320
Flags: W
LayerCount: 2
Back
Fore
SplineSet
110 1400 m 0,0,1
 128 1400 128 1400 142 1388 c 128,-1,2
 156 1376 156 1376 159 1359 c 2,3,-1
 373 247 l 1,4,-1
 613 966 l 2,5,6
 625 1000 625 1000 660 1000 c 0,7,8
 676 1000 676 1000 689.5 990 c 128,-1,9
 703 980 703 980 708 965 c 2,10,-1
 947 247 l 1,11,-1
 1161 1359 l 2,12,13
 1164 1376 1164 1376 1178 1388 c 128,-1,14
 1192 1400 1192 1400 1210 1400 c 0,15,16
 1231 1400 1231 1400 1245.5 1385.5 c 128,-1,17
 1260 1371 1260 1371 1260 1350 c 0,18,19
 1260 1344 1260 1344 1259 1341 c 2,20,-1
 1009 41 l 2,21,22
 1006 24 1006 24 992 12 c 128,-1,23
 978 0 978 0 960 0 c 0,24,25
 944 0 944 0 930.5 10 c 128,-1,26
 917 20 917 20 912 35 c 2,27,-1
 660 792 l 1,28,-1
 408 35 l 2,29,30
 403 20 403 20 389.5 10 c 128,-1,31
 376 0 376 0 360 0 c 0,32,33
 342 0 342 0 328 12 c 128,-1,34
 314 24 314 24 311 41 c 2,35,-1
 61 1341 l 2,36,37
 60 1344 60 1344 60 1350 c 0,38,39
 60 1371 60 1371 74.5 1385.5 c 128,-1,40
 89 1400 89 1400 110 1400 c 0,0,1
EndSplineSet
EndChar

StartChar: X
Encoding: 88 88 59
Width: 960
Flags: W
LayerCount: 2
Back
Fore
SplineSet
130 1400 m 0,0,1
 161 1400 161 1400 174 1374 c 2,2,-1
 480 806 l 1,3,-1
 786 1374 l 2,4,5
 799 1400 799 1400 830 1400 c 0,6,7
 851 1400 851 1400 865.5 1385.5 c 128,-1,8
 880 1371 880 1371 880 1350 c 0,9,10
 880 1336 880 1336 874 1326 c 2,11,-1
 537 700 l 1,12,-1
 874 74 l 2,13,14
 880 64 880 64 880 50 c 0,15,16
 880 29 880 29 865.5 14.5 c 128,-1,17
 851 0 851 0 830 0 c 0,18,19
 799 0 799 0 786 26 c 2,20,-1
 480 594 l 1,21,-1
 174 26 l 2,22,23
 161 0 161 0 130 0 c 0,24,25
 109 0 109 0 94.5 14.5 c 128,-1,26
 80 29 80 29 80 50 c 0,27,28
 80 64 80 64 86 74 c 2,29,-1
 423 700 l 1,30,-1
 86 1326 l 2,31,32
 80 1336 80 1336 80 1350 c 0,33,34
 80 1371 80 1371 94.5 1385.5 c 128,-1,35
 109 1400 109 1400 130 1400 c 0,0,1
EndSplineSet
EndChar

StartChar: Y
Encoding: 89 89 60
Width: 900
Flags: W
LayerCount: 2
Back
Fore
SplineSet
100 1400 m 0,0,1
 131 1400 131 1400 144 1374 c 2,2,-1
 450 806 l 1,3,-1
 756 1374 l 2,4,5
 769 1400 769 1400 800 1400 c 0,6,7
 821 1400 821 1400 835.5 1385.5 c 128,-1,8
 850 1371 850 1371 850 1350 c 0,9,10
 850 1336 850 1336 844 1326 c 2,11,-1
 500 687 l 1,12,-1
 500 50 l 2,13,14
 500 29 500 29 485.5 14.5 c 128,-1,15
 471 0 471 0 450 0 c 128,-1,16
 429 0 429 0 414.5 14.5 c 128,-1,17
 400 29 400 29 400 50 c 2,18,-1
 400 687 l 1,19,-1
 56 1326 l 2,20,21
 50 1336 50 1336 50 1350 c 0,22,23
 50 1371 50 1371 64.5 1385.5 c 128,-1,24
 79 1400 79 1400 100 1400 c 0,0,1
EndSplineSet
EndChar

StartChar: Z
Encoding: 90 90 61
Width: 840
Flags: W
LayerCount: 2
Back
Fore
SplineSet
120 1400 m 2,0,-1
 720 1400 l 2,1,2
 741 1400 741 1400 755.5 1385.5 c 128,-1,3
 770 1371 770 1371 770 1350 c 0,4,5
 770 1339 770 1339 765 1329 c 2,6,-1
 198 100 l 1,7,-1
 720 100 l 2,8,9
 741 100 741 100 755.5 85.5 c 128,-1,10
 770 71 770 71 770 50 c 128,-1,11
 770 29 770 29 755.5 14.5 c 128,-1,12
 741 0 741 0 720 0 c 2,13,-1
 120 0 l 2,14,15
 99 0 99 0 84.5 14.5 c 128,-1,16
 70 29 70 29 70 50 c 0,17,18
 70 61 70 61 75 71 c 2,19,-1
 642 1300 l 1,20,-1
 120 1300 l 2,21,22
 99 1300 99 1300 84.5 1314.5 c 128,-1,23
 70 1329 70 1329 70 1350 c 128,-1,24
 70 1371 70 1371 84.5 1385.5 c 128,-1,25
 99 1400 99 1400 120 1400 c 2,0,-1
EndSplineSet
EndChar

StartChar: bracketleft
Encoding: 91 91 62
Width: 400
Flags: W
LayerCount: 2
Back
Fore
SplineSet
150 1500 m 2,0,-1
 250 1500 l 2,1,2
 271 1500 271 1500 285.5 1485.5 c 128,-1,3
 300 1471 300 1471 300 1450 c 128,-1,4
 300 1429 300 1429 285.5 1414.5 c 128,-1,5
 271 1400 271 1400 250 1400 c 2,6,-1
 200 1400 l 1,7,-1
 200 0 l 1,8,-1
 250 0 l 2,9,10
 271 0 271 0 285.5 -14.5 c 128,-1,11
 300 -29 300 -29 300 -50 c 128,-1,12
 300 -71 300 -71 285.5 -85.5 c 128,-1,13
 271 -100 271 -100 250 -100 c 2,14,-1
 150 -100 l 2,15,16
 129 -100 129 -100 114.5 -85.5 c 128,-1,17
 100 -71 100 -71 100 -50 c 2,18,-1
 100 1450 l 2,19,20
 100 1471 100 1471 114.5 1485.5 c 128,-1,21
 129 1500 129 1500 150 1500 c 2,0,-1
EndSplineSet
EndChar

StartChar: backslash
Encoding: 92 92 63
Width: 1100
Flags: W
LayerCount: 2
Back
Fore
SplineSet
150 1700 m 0,0,1
 182 1700 182 1700 196 1670 c 2,2,-1
 996 -130 l 2,3,4
 1000 -138 1000 -138 1000 -150 c 0,5,6
 1000 -171 1000 -171 985.5 -185.5 c 128,-1,7
 971 -200 971 -200 950 -200 c 0,8,9
 918 -200 918 -200 904 -170 c 2,10,-1
 104 1630 l 2,11,12
 100 1638 100 1638 100 1650 c 0,13,14
 100 1671 100 1671 114.5 1685.5 c 128,-1,15
 129 1700 129 1700 150 1700 c 0,0,1
EndSplineSet
EndChar

StartChar: bracketright
Encoding: 93 93 64
Width: 400
Flags: W
LayerCount: 2
Back
Fore
SplineSet
250 1500 m 2,0,1
 271 1500 271 1500 285.5 1485.5 c 128,-1,2
 300 1471 300 1471 300 1450 c 2,3,-1
 300 -50 l 2,4,5
 300 -71 300 -71 285.5 -85.5 c 128,-1,6
 271 -100 271 -100 250 -100 c 2,7,-1
 150 -100 l 2,8,9
 129 -100 129 -100 114.5 -85.5 c 128,-1,10
 100 -71 100 -71 100 -50 c 128,-1,11
 100 -29 100 -29 114.5 -14.5 c 128,-1,12
 129 0 129 0 150 0 c 2,13,-1
 200 0 l 1,14,-1
 200 1400 l 1,15,-1
 150 1400 l 2,16,17
 129 1400 129 1400 114.5 1414.5 c 128,-1,18
 100 1429 100 1429 100 1450 c 128,-1,19
 100 1471 100 1471 114.5 1485.5 c 128,-1,20
 129 1500 129 1500 150 1500 c 2,21,-1
 250 1500 l 2,0,1
EndSplineSet
EndChar

StartChar: asciicircum
Encoding: 94 94 65
Width: 600
Flags: W
LayerCount: 2
Back
Fore
SplineSet
300 1600 m 128,-1,1
 321 1600 321 1600 335 1585 c 2,2,-1
 535 1385 l 2,3,4
 550 1371 550 1371 550 1350 c 256,5,6
 550 1329 550 1329 535.5 1314.5 c 128,-1,7
 521 1300 521 1300 500 1300 c 256,8,9
 479 1300 479 1300 465 1315 c 2,10,-1
 300 1479 l 1,11,-1
 135 1315 l 2,12,13
 121 1300 121 1300 100 1300 c 256,14,15
 79 1300 79 1300 64.5 1314.5 c 128,-1,16
 50 1329 50 1329 50 1350 c 256,17,18
 50 1371 50 1371 65 1385 c 2,19,-1
 265 1585 l 2,20,0
 279 1600 279 1600 300 1600 c 128,-1,1
EndSplineSet
EndChar

StartChar: underscore
Encoding: 95 95 66
Width: 800
Flags: W
LayerCount: 2
Back
Fore
SplineSet
50 -100 m 2,0,-1
 750 -100 l 2,1,2
 771 -100 771 -100 785.5 -114.5 c 128,-1,3
 800 -129 800 -129 800 -150 c 128,-1,4
 800 -171 800 -171 785.5 -185.5 c 128,-1,5
 771 -200 771 -200 750 -200 c 2,6,-1
 50 -200 l 2,7,8
 29 -200 29 -200 14.5 -185.5 c 128,-1,9
 0 -171 0 -171 0 -150 c 128,-1,10
 0 -129 0 -129 14.5 -114.5 c 128,-1,11
 29 -100 29 -100 50 -100 c 2,0,-1
EndSplineSet
EndChar

StartChar: grave
Encoding: 96 96 67
Width: 300
Flags: W
LayerCount: 2
Back
Fore
SplineSet
150 1400 m 0,0,1
 181 1400 181 1400 195 1372 c 2,2,-1
 245 1272 l 2,3,4
 250 1260 250 1260 250 1250 c 0,5,6
 250 1229 250 1229 235.5 1214.5 c 128,-1,7
 221 1200 221 1200 200 1200 c 0,8,9
 169 1200 169 1200 155 1228 c 2,10,-1
 105 1328 l 2,11,12
 100 1340 100 1340 100 1350 c 0,13,14
 100 1371 100 1371 114.5 1385.5 c 128,-1,15
 129 1400 129 1400 150 1400 c 0,0,1
EndSplineSet
EndChar

StartChar: a
Encoding: 97 97 68
Width: 820
Flags: W
LayerCount: 2
Back
Fore
SplineSet
340 1000 m 2,0,-1
 640 1000 l 2,1,2
 661 1000 661 1000 675.5 985.5 c 128,-1,3
 690 971 690 971 690 950 c 2,4,-1
 690 150 l 2,5,6
 690 129 690 129 704.5 114.5 c 128,-1,7
 719 100 719 100 740 100 c 128,-1,8
 761 100 761 100 775.5 85.5 c 128,-1,9
 790 71 790 71 790 50 c 128,-1,10
 790 29 790 29 775.5 14.5 c 128,-1,11
 761 0 761 0 740 0 c 0,12,13
 699 0 699 0 664.5 20.5 c 128,-1,14
 630 41 630 41 610 76 c 1,15,16
 521 -20 521 -20 390 -20 c 0,17,18
 266 -20 266 -20 178 68 c 128,-1,19
 90 156 90 156 90 280 c 2,20,-1
 90 750 l 2,21,22
 90 854 90 854 163 927 c 128,-1,23
 236 1000 236 1000 340 1000 c 2,0,-1
340 900 m 2,24,25
 278 900 278 900 234 856 c 128,-1,26
 190 812 190 812 190 750 c 2,27,-1
 190 280 l 2,28,29
 190 198 190 198 249 139 c 128,-1,30
 308 80 308 80 390 80 c 128,-1,31
 472 80 472 80 531 139 c 128,-1,32
 590 198 590 198 590 280 c 2,33,-1
 590 900 l 1,34,-1
 340 900 l 2,24,25
EndSplineSet
EndChar

StartChar: b
Encoding: 98 98 69
Width: 790
Flags: W
LayerCount: 2
Back
Fore
SplineSet
150 1400 m 128,-1,1
 171 1400 171 1400 185.5 1385.5 c 128,-1,2
 200 1371 200 1371 200 1350 c 2,3,-1
 200 1000 l 1,4,-1
 450 1000 l 2,5,6
 554 1000 554 1000 627 927 c 128,-1,7
 700 854 700 854 700 750 c 2,8,-1
 700 250 l 2,9,10
 700 146 700 146 627 73 c 128,-1,11
 554 0 554 0 450 0 c 2,12,-1
 150 0 l 2,13,14
 129 0 129 0 114.5 14.5 c 128,-1,15
 100 29 100 29 100 50 c 2,16,-1
 100 1350 l 2,17,18
 100 1371 100 1371 114.5 1385.5 c 128,-1,0
 129 1400 129 1400 150 1400 c 128,-1,1
200 900 m 1,19,-1
 200 100 l 1,20,-1
 450 100 l 2,21,22
 512 100 512 100 556 144 c 128,-1,23
 600 188 600 188 600 250 c 2,24,-1
 600 750 l 2,25,26
 600 812 600 812 556 856 c 128,-1,27
 512 900 512 900 450 900 c 2,28,-1
 200 900 l 1,19,-1
EndSplineSet
EndChar

StartChar: c
Encoding: 99 99 70
Width: 670
Flags: W
LayerCount: 2
Back
Fore
SplineSet
340 1000 m 2,0,-1
 540 1000 l 2,1,2
 561 1000 561 1000 575.5 985.5 c 128,-1,3
 590 971 590 971 590 950 c 128,-1,4
 590 929 590 929 575.5 914.5 c 128,-1,5
 561 900 561 900 540 900 c 2,6,-1
 340 900 l 2,7,8
 278 900 278 900 234 856 c 128,-1,9
 190 812 190 812 190 750 c 2,10,-1
 190 250 l 2,11,12
 190 188 190 188 234 144 c 128,-1,13
 278 100 278 100 340 100 c 2,14,-1
 540 100 l 2,15,16
 561 100 561 100 575.5 85.5 c 128,-1,17
 590 71 590 71 590 50 c 128,-1,18
 590 29 590 29 575.5 14.5 c 128,-1,19
 561 0 561 0 540 0 c 2,20,-1
 340 0 l 2,21,22
 236 0 236 0 163 73 c 128,-1,23
 90 146 90 146 90 250 c 2,24,-1
 90 750 l 2,25,26
 90 854 90 854 163 927 c 128,-1,27
 236 1000 236 1000 340 1000 c 2,0,-1
EndSplineSet
EndChar

StartChar: d
Encoding: 100 100 71
Width: 790
Flags: W
LayerCount: 2
Back
Fore
SplineSet
640 1400 m 128,-1,1
 661 1400 661 1400 675.5 1385.5 c 128,-1,2
 690 1371 690 1371 690 1350 c 2,3,-1
 690 50 l 2,4,5
 690 29 690 29 675.5 14.5 c 128,-1,6
 661 0 661 0 640 0 c 2,7,-1
 340 0 l 2,8,9
 236 0 236 0 163 73 c 128,-1,10
 90 146 90 146 90 250 c 2,11,-1
 90 750 l 2,12,13
 90 854 90 854 163 927 c 128,-1,14
 236 1000 236 1000 340 1000 c 2,15,-1
 590 1000 l 1,16,-1
 590 1350 l 2,17,18
 590 1371 590 1371 604.5 1385.5 c 128,-1,0
 619 1400 619 1400 640 1400 c 128,-1,1
590 900 m 1,19,-1
 340 900 l 2,20,21
 278 900 278 900 234 856 c 128,-1,22
 190 812 190 812 190 750 c 2,23,-1
 190 250 l 2,24,25
 190 188 190 188 234 144 c 128,-1,26
 278 100 278 100 340 100 c 2,27,-1
 590 100 l 1,28,-1
 590 900 l 1,19,-1
EndSplineSet
EndChar

StartChar: e
Encoding: 101 101 72
Width: 780
Flags: W
LayerCount: 2
Back
Fore
SplineSet
390 1020 m 128,-1,1
 514 1020 514 1020 602 932 c 128,-1,2
 690 844 690 844 690 720 c 2,3,-1
 690 500 l 2,4,5
 690 479 690 479 675.5 464.5 c 128,-1,6
 661 450 661 450 640 450 c 2,7,-1
 190 450 l 1,8,-1
 190 250 l 2,9,10
 190 188 190 188 234 144 c 128,-1,11
 278 100 278 100 340 100 c 2,12,-1
 640 100 l 2,13,14
 661 100 661 100 675.5 85.5 c 128,-1,15
 690 71 690 71 690 50 c 128,-1,16
 690 29 690 29 675.5 14.5 c 128,-1,17
 661 0 661 0 640 0 c 2,18,-1
 340 0 l 2,19,20
 236 0 236 0 163 73 c 128,-1,21
 90 146 90 146 90 250 c 2,22,-1
 90 720 l 2,23,24
 90 844 90 844 178 932 c 128,-1,0
 266 1020 266 1020 390 1020 c 128,-1,1
390 920 m 128,-1,26
 308 920 308 920 249 861 c 128,-1,27
 190 802 190 802 190 720 c 2,28,-1
 190 550 l 1,29,-1
 590 550 l 1,30,-1
 590 720 l 2,31,32
 590 802 590 802 531 861 c 128,-1,25
 472 920 472 920 390 920 c 128,-1,26
EndSplineSet
EndChar

StartChar: f
Encoding: 102 102 73
Width: 500
Flags: W
LayerCount: 2
Back
Fore
SplineSet
350 1400 m 2,0,-1
 400 1400 l 2,1,2
 421 1400 421 1400 435.5 1385.5 c 128,-1,3
 450 1371 450 1371 450 1350 c 128,-1,4
 450 1329 450 1329 435.5 1314.5 c 128,-1,5
 421 1300 421 1300 400 1300 c 2,6,-1
 350 1300 l 2,7,8
 309 1300 309 1300 279.5 1270.5 c 128,-1,9
 250 1241 250 1241 250 1200 c 2,10,-1
 250 1000 l 1,11,-1
 400 1000 l 2,12,13
 421 1000 421 1000 435.5 985.5 c 128,-1,14
 450 971 450 971 450 950 c 128,-1,15
 450 929 450 929 435.5 914.5 c 128,-1,16
 421 900 421 900 400 900 c 2,17,-1
 250 900 l 1,18,-1
 250 50 l 2,19,20
 250 29 250 29 235.5 14.5 c 128,-1,21
 221 0 221 0 200 0 c 128,-1,22
 179 0 179 0 164.5 14.5 c 128,-1,23
 150 29 150 29 150 50 c 2,24,-1
 150 900 l 1,25,-1
 100 900 l 2,26,27
 79 900 79 900 64.5 914.5 c 128,-1,28
 50 929 50 929 50 950 c 128,-1,29
 50 971 50 971 64.5 985.5 c 128,-1,30
 79 1000 79 1000 100 1000 c 2,31,-1
 150 1000 l 1,32,-1
 150 1200 l 2,33,34
 150 1282 150 1282 209 1341 c 128,-1,35
 268 1400 268 1400 350 1400 c 2,0,-1
EndSplineSet
EndChar

StartChar: g
Encoding: 103 103 74
Width: 790
Flags: W
LayerCount: 2
Back
Fore
SplineSet
340 1000 m 2,0,-1
 640 1000 l 2,1,2
 661 1000 661 1000 675.5 985.5 c 128,-1,3
 690 971 690 971 690 950 c 2,4,-1
 690 -150 l 2,5,6
 690 -254 690 -254 617 -327 c 128,-1,7
 544 -400 544 -400 440 -400 c 2,8,-1
 140 -400 l 2,9,10
 119 -400 119 -400 104.5 -385.5 c 128,-1,11
 90 -371 90 -371 90 -350 c 128,-1,12
 90 -329 90 -329 104.5 -314.5 c 128,-1,13
 119 -300 119 -300 140 -300 c 2,14,-1
 440 -300 l 2,15,16
 502 -300 502 -300 546 -256 c 128,-1,17
 590 -212 590 -212 590 -150 c 2,18,-1
 590 0 l 1,19,-1
 340 0 l 2,20,21
 236 0 236 0 163 73 c 128,-1,22
 90 146 90 146 90 250 c 2,23,-1
 90 750 l 2,24,25
 90 854 90 854 163 927 c 128,-1,26
 236 1000 236 1000 340 1000 c 2,0,-1
340 900 m 2,27,28
 278 900 278 900 234 856 c 128,-1,29
 190 812 190 812 190 750 c 2,30,-1
 190 250 l 2,31,32
 190 188 190 188 234 144 c 128,-1,33
 278 100 278 100 340 100 c 2,34,-1
 590 100 l 1,35,-1
 590 900 l 1,36,-1
 340 900 l 2,27,28
EndSplineSet
EndChar

StartChar: h
Encoding: 104 104 75
Width: 800
Flags: W
LayerCount: 2
Back
Fore
SplineSet
150 1400 m 128,-1,1
 171 1400 171 1400 185.5 1385.5 c 128,-1,2
 200 1371 200 1371 200 1350 c 2,3,-1
 200 1000 l 1,4,-1
 450 1000 l 2,5,6
 554 1000 554 1000 627 927 c 128,-1,7
 700 854 700 854 700 750 c 2,8,-1
 700 50 l 2,9,10
 700 29 700 29 685.5 14.5 c 128,-1,11
 671 0 671 0 650 0 c 128,-1,12
 629 0 629 0 614.5 14.5 c 128,-1,13
 600 29 600 29 600 50 c 2,14,-1
 600 750 l 2,15,16
 600 812 600 812 556 856 c 128,-1,17
 512 900 512 900 450 900 c 2,18,-1
 200 900 l 1,19,-1
 200 50 l 2,20,21
 200 29 200 29 185.5 14.5 c 128,-1,22
 171 0 171 0 150 0 c 128,-1,23
 129 0 129 0 114.5 14.5 c 128,-1,24
 100 29 100 29 100 50 c 2,25,-1
 100 1350 l 2,26,27
 100 1371 100 1371 114.5 1385.5 c 128,-1,0
 129 1400 129 1400 150 1400 c 128,-1,1
EndSplineSet
EndChar

StartChar: i
Encoding: 105 105 76
Width: 300
Flags: W
LayerCount: 2
Back
Fore
SplineSet
150 1000 m 128,-1,1
 171 1000 171 1000 185.5 985.5 c 128,-1,2
 200 971 200 971 200 950 c 2,3,-1
 200 50 l 2,4,5
 200 29 200 29 185.5 14.5 c 128,-1,6
 171 0 171 0 150 0 c 128,-1,7
 129 0 129 0 114.5 14.5 c 128,-1,8
 100 29 100 29 100 50 c 2,9,-1
 100 950 l 2,10,11
 100 971 100 971 114.5 985.5 c 128,-1,0
 129 1000 129 1000 150 1000 c 128,-1,1
200 1350 m 128,-1,13
 200 1329 200 1329 185.5 1314.5 c 128,-1,14
 171 1300 171 1300 150 1300 c 128,-1,15
 129 1300 129 1300 114.5 1314.5 c 128,-1,16
 100 1329 100 1329 100 1350 c 128,-1,17
 100 1371 100 1371 114.5 1385.5 c 128,-1,18
 129 1400 129 1400 150 1400 c 128,-1,19
 171 1400 171 1400 185.5 1385.5 c 128,-1,12
 200 1371 200 1371 200 1350 c 128,-1,13
EndSplineSet
EndChar

StartChar: j
Encoding: 106 106 77
Width: 300
Flags: W
LayerCount: 2
Back
Fore
SplineSet
150 1000 m 128,-1,1
 171 1000 171 1000 185.5 985.5 c 128,-1,2
 200 971 200 971 200 950 c 2,3,-1
 200 -150 l 2,4,5
 200 -254 200 -254 127 -327 c 128,-1,6
 54 -400 54 -400 -50 -400 c 0,7,8
 -71 -400 -71 -400 -85.5 -385.5 c 128,-1,9
 -100 -371 -100 -371 -100 -350 c 128,-1,10
 -100 -329 -100 -329 -85.5 -314.5 c 128,-1,11
 -71 -300 -71 -300 -50 -300 c 0,12,13
 12 -300 12 -300 56 -256 c 128,-1,14
 100 -212 100 -212 100 -150 c 2,15,-1
 100 950 l 2,16,17
 100 971 100 971 114.5 985.5 c 128,-1,0
 129 1000 129 1000 150 1000 c 128,-1,1
200 1350 m 128,-1,19
 200 1329 200 1329 185.5 1314.5 c 128,-1,20
 171 1300 171 1300 150 1300 c 128,-1,21
 129 1300 129 1300 114.5 1314.5 c 128,-1,22
 100 1329 100 1329 100 1350 c 128,-1,23
 100 1371 100 1371 114.5 1385.5 c 128,-1,24
 129 1400 129 1400 150 1400 c 128,-1,25
 171 1400 171 1400 185.5 1385.5 c 128,-1,18
 200 1371 200 1371 200 1350 c 128,-1,19
EndSplineSet
EndChar

StartChar: k
Encoding: 107 107 78
Width: 770
Flags: W
LayerCount: 2
Back
Fore
SplineSet
150 1400 m 128,-1,1
 171 1400 171 1400 185.5 1385.5 c 128,-1,2
 200 1371 200 1371 200 1350 c 2,3,-1
 200 571 l 1,4,-1
 615 985 l 2,5,6
 630 1000 630 1000 650 1000 c 0,7,8
 671 1000 671 1000 685.5 985.5 c 128,-1,9
 700 971 700 971 700 950 c 0,10,11
 700 930 700 930 685 915 c 2,12,-1
 364 593 l 1,13,-1
 692 77 l 2,14,15
 700 64 700 64 700 50 c 0,16,17
 700 29 700 29 685.5 14.5 c 128,-1,18
 671 0 671 0 650 0 c 0,19,20
 622 0 622 0 607 24 c 2,21,-1
 291 521 l 1,22,-1
 200 429 l 1,23,-1
 200 50 l 2,24,25
 200 29 200 29 185.5 14.5 c 128,-1,26
 171 0 171 0 150 0 c 128,-1,27
 129 0 129 0 114.5 14.5 c 128,-1,28
 100 29 100 29 100 50 c 2,29,-1
 100 1350 l 2,30,31
 100 1371 100 1371 114.5 1385.5 c 128,-1,0
 129 1400 129 1400 150 1400 c 128,-1,1
EndSplineSet
EndChar

StartChar: l
Encoding: 108 108 79
Width: 440
Flags: W
LayerCount: 2
Back
Fore
SplineSet
140 1400 m 128,-1,1
 161 1400 161 1400 175.5 1385.5 c 128,-1,2
 190 1371 190 1371 190 1350 c 2,3,-1
 190 250 l 2,4,5
 190 188 190 188 234 144 c 128,-1,6
 278 100 278 100 340 100 c 0,7,8
 361 100 361 100 375.5 85.5 c 128,-1,9
 390 71 390 71 390 50 c 128,-1,10
 390 29 390 29 375.5 14.5 c 128,-1,11
 361 0 361 0 340 0 c 0,12,13
 236 0 236 0 163 73 c 128,-1,14
 90 146 90 146 90 250 c 2,15,-1
 90 1350 l 2,16,17
 90 1371 90 1371 104.5 1385.5 c 128,-1,0
 119 1400 119 1400 140 1400 c 128,-1,1
EndSplineSet
EndChar

StartChar: m
Encoding: 109 109 80
Width: 1100
Flags: W
LayerCount: 2
Back
Fore
SplineSet
150 1000 m 2,0,-1
 750 1000 l 2,1,2
 854 1000 854 1000 927 927 c 128,-1,3
 1000 854 1000 854 1000 750 c 2,4,-1
 1000 50 l 2,5,6
 1000 29 1000 29 985.5 14.5 c 128,-1,7
 971 0 971 0 950 0 c 128,-1,8
 929 0 929 0 914.5 14.5 c 128,-1,9
 900 29 900 29 900 50 c 2,10,-1
 900 750 l 2,11,12
 900 812 900 812 856 856 c 128,-1,13
 812 900 812 900 750 900 c 2,14,-1
 600 900 l 1,15,-1
 600 50 l 2,16,17
 600 29 600 29 585.5 14.5 c 128,-1,18
 571 0 571 0 550 0 c 128,-1,19
 529 0 529 0 514.5 14.5 c 128,-1,20
 500 29 500 29 500 50 c 2,21,-1
 500 900 l 1,22,-1
 200 900 l 1,23,-1
 200 50 l 2,24,25
 200 29 200 29 185.5 14.5 c 128,-1,26
 171 0 171 0 150 0 c 128,-1,27
 129 0 129 0 114.5 14.5 c 128,-1,28
 100 29 100 29 100 50 c 2,29,-1
 100 950 l 2,30,31
 100 971 100 971 114.5 985.5 c 128,-1,32
 129 1000 129 1000 150 1000 c 2,0,-1
EndSplineSet
EndChar

StartChar: n
Encoding: 110 110 81
Width: 800
Flags: W
LayerCount: 2
Back
Fore
SplineSet
150 1000 m 2,0,-1
 450 1000 l 2,1,2
 554 1000 554 1000 627 927 c 128,-1,3
 700 854 700 854 700 750 c 2,4,-1
 700 50 l 2,5,6
 700 29 700 29 685.5 14.5 c 128,-1,7
 671 0 671 0 650 0 c 128,-1,8
 629 0 629 0 614.5 14.5 c 128,-1,9
 600 29 600 29 600 50 c 2,10,-1
 600 750 l 2,11,12
 600 812 600 812 556 856 c 128,-1,13
 512 900 512 900 450 900 c 2,14,-1
 200 900 l 1,15,-1
 200 50 l 2,16,17
 200 29 200 29 185.5 14.5 c 128,-1,18
 171 0 171 0 150 0 c 128,-1,19
 129 0 129 0 114.5 14.5 c 128,-1,20
 100 29 100 29 100 50 c 2,21,-1
 100 950 l 2,22,23
 100 971 100 971 114.5 985.5 c 128,-1,24
 129 1000 129 1000 150 1000 c 2,0,-1
EndSplineSet
EndChar

StartChar: o
Encoding: 111 111 82
Width: 780
Flags: W
LayerCount: 2
Back
Fore
SplineSet
390 1020 m 128,-1,1
 514 1020 514 1020 602 932 c 128,-1,2
 690 844 690 844 690 720 c 2,3,-1
 690 280 l 2,4,5
 690 156 690 156 602 68 c 128,-1,6
 514 -20 514 -20 390 -20 c 128,-1,7
 266 -20 266 -20 178 68 c 128,-1,8
 90 156 90 156 90 280 c 2,9,-1
 90 720 l 2,10,11
 90 844 90 844 178 932 c 128,-1,0
 266 1020 266 1020 390 1020 c 128,-1,1
390 920 m 128,-1,13
 308 920 308 920 249 861 c 128,-1,14
 190 802 190 802 190 720 c 2,15,-1
 190 280 l 2,16,17
 190 198 190 198 249 139 c 128,-1,18
 308 80 308 80 390 80 c 128,-1,19
 472 80 472 80 531 139 c 128,-1,20
 590 198 590 198 590 280 c 2,21,-1
 590 720 l 2,22,23
 590 802 590 802 531 861 c 128,-1,12
 472 920 472 920 390 920 c 128,-1,13
EndSplineSet
EndChar

StartChar: p
Encoding: 112 112 83
Width: 790
Flags: W
LayerCount: 2
Back
Fore
SplineSet
150 -400 m 128,-1,1
 129 -400 129 -400 114.5 -385.5 c 128,-1,2
 100 -371 100 -371 100 -350 c 2,3,-1
 100 950 l 2,4,5
 100 971 100 971 114.5 985.5 c 128,-1,6
 129 1000 129 1000 150 1000 c 2,7,-1
 450 1000 l 2,8,9
 554 1000 554 1000 627 927 c 128,-1,10
 700 854 700 854 700 750 c 2,11,-1
 700 250 l 2,12,13
 700 146 700 146 627 73 c 128,-1,14
 554 0 554 0 450 0 c 2,15,-1
 200 0 l 1,16,-1
 200 -350 l 2,17,18
 200 -371 200 -371 185.5 -385.5 c 128,-1,0
 171 -400 171 -400 150 -400 c 128,-1,1
200 100 m 1,19,-1
 450 100 l 2,20,21
 512 100 512 100 556 144 c 128,-1,22
 600 188 600 188 600 250 c 2,23,-1
 600 750 l 2,24,25
 600 812 600 812 556 856 c 128,-1,26
 512 900 512 900 450 900 c 2,27,-1
 200 900 l 1,28,-1
 200 100 l 1,19,-1
EndSplineSet
EndChar

StartChar: q
Encoding: 113 113 84
Width: 790
Flags: W
LayerCount: 2
Back
Fore
SplineSet
640 -400 m 128,-1,1
 619 -400 619 -400 604.5 -385.5 c 128,-1,2
 590 -371 590 -371 590 -350 c 2,3,-1
 590 0 l 1,4,-1
 340 0 l 2,5,6
 236 0 236 0 163 73 c 128,-1,7
 90 146 90 146 90 250 c 2,8,-1
 90 750 l 2,9,10
 90 854 90 854 163 927 c 128,-1,11
 236 1000 236 1000 340 1000 c 2,12,-1
 640 1000 l 2,13,14
 661 1000 661 1000 675.5 985.5 c 128,-1,15
 690 971 690 971 690 950 c 2,16,-1
 690 -350 l 2,17,18
 690 -371 690 -371 675.5 -385.5 c 128,-1,0
 661 -400 661 -400 640 -400 c 128,-1,1
590 100 m 1,19,-1
 590 900 l 1,20,-1
 340 900 l 2,21,22
 278 900 278 900 234 856 c 128,-1,23
 190 812 190 812 190 750 c 2,24,-1
 190 250 l 2,25,26
 190 188 190 188 234 144 c 128,-1,27
 278 100 278 100 340 100 c 2,28,-1
 590 100 l 1,19,-1
EndSplineSet
EndChar

StartChar: r
Encoding: 114 114 85
Width: 650
Flags: W
LayerCount: 2
Back
Fore
SplineSet
150 1000 m 2,0,-1
 400 1000 l 2,1,2
 482 1000 482 1000 541 941 c 128,-1,3
 600 882 600 882 600 800 c 0,4,5
 600 779 600 779 585.5 764.5 c 128,-1,6
 571 750 571 750 550 750 c 128,-1,7
 529 750 529 750 514.5 764.5 c 128,-1,8
 500 779 500 779 500 800 c 0,9,10
 500 841 500 841 470.5 870.5 c 128,-1,11
 441 900 441 900 400 900 c 2,12,-1
 200 900 l 1,13,-1
 200 50 l 2,14,15
 200 29 200 29 185.5 14.5 c 128,-1,16
 171 0 171 0 150 0 c 128,-1,17
 129 0 129 0 114.5 14.5 c 128,-1,18
 100 29 100 29 100 50 c 2,19,-1
 100 950 l 2,20,21
 100 971 100 971 114.5 985.5 c 128,-1,22
 129 1000 129 1000 150 1000 c 2,0,-1
EndSplineSet
EndChar

StartChar: s
Encoding: 115 115 86
Width: 750
Flags: W
LayerCount: 2
Back
Fore
SplineSet
370 1020 m 0,0,1
 561 1020 561 1020 645 935 c 0,2,3
 660 920 660 920 660 900 c 0,4,5
 660 879 660 879 645.5 864.5 c 128,-1,6
 631 850 631 850 610 850 c 0,7,8
 590 850 590 850 575 865 c 0,9,10
 546 894 546 894 500 907 c 128,-1,11
 454 920 454 920 370 920 c 0,12,13
 267 920 267 920 217 881 c 0,14,15
 180 852 180 852 180 800 c 0,16,17
 180 741 180 741 226 705 c 2,18,-1
 584 427 l 2,19,20
 680 352 680 352 680 230 c 0,21,22
 680 119 680 119 606 52 c 0,23,24
 526 -20 526 -20 380 -20 c 0,25,26
 179 -20 179 -20 95 65 c 0,27,28
 80 80 80 80 80 100 c 0,29,30
 80 121 80 121 94.5 135.5 c 128,-1,31
 109 150 109 150 130 150 c 0,32,33
 150 150 150 150 165 135 c 0,34,35
 220 80 220 80 380 80 c 0,36,37
 489 80 489 80 539 126 c 0,38,39
 580 164 580 164 580 230 c 0,40,41
 580 303 580 303 522 348 c 2,42,-1
 165 626 l 2,43,44
 80 691 80 691 80 800 c 0,45,46
 80 901 80 901 155 960 c 0,47,48
 232 1020 232 1020 370 1020 c 0,0,1
EndSplineSet
EndChar

StartChar: t
Encoding: 116 116 87
Width: 500
Flags: W
LayerCount: 2
Back
Fore
SplineSet
200 1400 m 128,-1,1
 221 1400 221 1400 235.5 1385.5 c 128,-1,2
 250 1371 250 1371 250 1350 c 2,3,-1
 250 1000 l 1,4,-1
 400 1000 l 2,5,6
 421 1000 421 1000 435.5 985.5 c 128,-1,7
 450 971 450 971 450 950 c 128,-1,8
 450 929 450 929 435.5 914.5 c 128,-1,9
 421 900 421 900 400 900 c 2,10,-1
 250 900 l 1,11,-1
 250 50 l 2,12,13
 250 29 250 29 235.5 14.5 c 128,-1,14
 221 0 221 0 200 0 c 128,-1,15
 179 0 179 0 164.5 14.5 c 128,-1,16
 150 29 150 29 150 50 c 2,17,-1
 150 900 l 1,18,-1
 100 900 l 2,19,20
 79 900 79 900 64.5 914.5 c 128,-1,21
 50 929 50 929 50 950 c 128,-1,22
 50 971 50 971 64.5 985.5 c 128,-1,23
 79 1000 79 1000 100 1000 c 2,24,-1
 150 1000 l 1,25,-1
 150 1350 l 2,26,27
 150 1371 150 1371 164.5 1385.5 c 128,-1,0
 179 1400 179 1400 200 1400 c 128,-1,1
EndSplineSet
EndChar

StartChar: v
Encoding: 118 118 89
Width: 740
Flags: W
LayerCount: 2
Back
Fore
SplineSet
120 1000 m 0,0,1
 137 1000 137 1000 150 989.5 c 128,-1,2
 163 979 163 979 168 963 c 2,3,-1
 370 237 l 1,4,-1
 572 963 l 2,5,6
 577 979 577 979 590 989.5 c 128,-1,7
 603 1000 603 1000 620 1000 c 0,8,9
 641 1000 641 1000 655.5 985.5 c 128,-1,10
 670 971 670 971 670 950 c 0,11,12
 670 945 670 945 668 937 c 2,13,-1
 418 37 l 2,14,15
 413 21 413 21 400 10.5 c 128,-1,16
 387 0 387 0 370 0 c 128,-1,17
 353 0 353 0 340 10.5 c 128,-1,18
 327 21 327 21 322 37 c 2,19,-1
 72 937 l 2,20,21
 70 945 70 945 70 950 c 0,22,23
 70 971 70 971 84.5 985.5 c 128,-1,24
 99 1000 99 1000 120 1000 c 0,0,1
EndSplineSet
EndChar

StartChar: w
Encoding: 119 119 90
Width: 1160
Flags: W
LayerCount: 2
Back
Fore
SplineSet
130 1000 m 0,0,1
 148 1000 148 1000 161.5 989 c 128,-1,2
 175 978 175 978 179 961 c 2,3,-1
 341 230 l 1,4,-1
 533 767 l 2,5,6
 545 800 545 800 580 800 c 128,-1,7
 615 800 615 800 627 767 c 2,8,-1
 819 230 l 1,9,-1
 981 961 l 2,10,11
 985 978 985 978 998.5 989 c 128,-1,12
 1012 1000 1012 1000 1030 1000 c 0,13,14
 1051 1000 1051 1000 1065.5 985.5 c 128,-1,15
 1080 971 1080 971 1080 950 c 0,16,17
 1080 942 1080 942 1079 939 c 2,18,-1
 879 40 l 2,19,20
 875 23 875 23 861.5 11.5 c 128,-1,21
 848 0 848 0 830 0 c 0,22,23
 795 0 795 0 783 33 c 2,24,-1
 580 601 l 1,25,-1
 377 33 l 2,26,27
 365 0 365 0 330 0 c 0,28,29
 312 0 312 0 298.5 11.5 c 128,-1,30
 285 23 285 23 281 40 c 2,31,-1
 81 939 l 2,32,33
 80 942 80 942 80 950 c 0,34,35
 80 971 80 971 94.5 985.5 c 128,-1,36
 109 1000 109 1000 130 1000 c 0,0,1
EndSplineSet
EndChar

StartChar: x
Encoding: 120 120 91
Width: 760
Flags: W
LayerCount: 2
Back
Fore
SplineSet
130 1000 m 0,0,1
 158 1000 158 1000 174 974 c 2,2,-1
 380 603 l 1,3,-1
 586 974 l 2,4,5
 602 1000 602 1000 630 1000 c 0,6,7
 651 1000 651 1000 665.5 985.5 c 128,-1,8
 680 971 680 971 680 950 c 0,9,10
 680 936 680 936 674 926 c 2,11,-1
 437 500 l 1,12,-1
 674 74 l 2,13,14
 680 64 680 64 680 50 c 0,15,16
 680 29 680 29 665.5 14.5 c 128,-1,17
 651 0 651 0 630 0 c 0,18,19
 602 0 602 0 586 26 c 2,20,-1
 380 397 l 1,21,-1
 174 26 l 2,22,23
 158 0 158 0 130 0 c 0,24,25
 109 0 109 0 94.5 14.5 c 128,-1,26
 80 29 80 29 80 50 c 0,27,28
 80 64 80 64 86 74 c 2,29,-1
 323 500 l 1,30,-1
 86 926 l 2,31,32
 80 936 80 936 80 950 c 0,33,34
 80 971 80 971 94.5 985.5 c 128,-1,35
 109 1000 109 1000 130 1000 c 0,0,1
EndSplineSet
EndChar

StartChar: y
Encoding: 121 121 92
Width: 750
Flags: W
LayerCount: 2
Back
Fore
SplineSet
130 1000 m 0,0,1
 147 1000 147 1000 160 989 c 128,-1,2
 173 978 173 978 178 962 c 2,3,-1
 380 237 l 1,4,-1
 582 963 l 2,5,6
 587 979 587 979 600 989.5 c 128,-1,7
 613 1000 613 1000 630 1000 c 0,8,9
 651 1000 651 1000 665.5 985.5 c 128,-1,10
 680 971 680 971 680 950 c 0,11,12
 680 945 680 945 678 937 c 2,13,-1
 362 -200 l 2,14,15
 330 -313 330 -313 275.5 -356.5 c 128,-1,16
 221 -400 221 -400 130 -400 c 0,17,18
 109 -400 109 -400 94.5 -385.5 c 128,-1,19
 80 -371 80 -371 80 -350 c 128,-1,20
 80 -329 80 -329 94.5 -314.5 c 128,-1,21
 109 -300 109 -300 130 -300 c 0,22,23
 169 -300 169 -300 207.5 -273 c 128,-1,24
 246 -246 246 -246 259 -200 c 2,25,-1
 328 50 l 1,26,-1
 82 937 l 2,27,28
 80 945 80 945 80 950 c 0,29,30
 80 971 80 971 94.5 985.5 c 128,-1,31
 109 1000 109 1000 130 1000 c 0,0,1
EndSplineSet
EndChar

StartChar: z
Encoding: 122 122 93
Width: 760
Flags: W
LayerCount: 2
Back
Fore
SplineSet
130 1000 m 2,0,-1
 630 1000 l 2,1,2
 651 1000 651 1000 665.5 985.5 c 128,-1,3
 680 971 680 971 680 950 c 0,4,5
 680 936 680 936 674 926 c 2,6,-1
 215 100 l 1,7,-1
 630 100 l 2,8,9
 651 100 651 100 665.5 85.5 c 128,-1,10
 680 71 680 71 680 50 c 128,-1,11
 680 29 680 29 665.5 14.5 c 128,-1,12
 651 0 651 0 630 0 c 2,13,-1
 130 0 l 2,14,15
 109 0 109 0 94.5 14.5 c 128,-1,16
 80 29 80 29 80 50 c 0,17,18
 80 64 80 64 86 74 c 2,19,-1
 545 900 l 1,20,-1
 130 900 l 2,21,22
 109 900 109 900 94.5 914.5 c 128,-1,23
 80 929 80 929 80 950 c 128,-1,24
 80 971 80 971 94.5 985.5 c 128,-1,25
 109 1000 109 1000 130 1000 c 2,0,-1
EndSplineSet
EndChar

StartChar: braceleft
Encoding: 123 123 94
Width: 500
Flags: W
LayerCount: 2
Back
Fore
SplineSet
350 1500 m 0,0,1
 371 1500 371 1500 385.5 1485.5 c 128,-1,2
 400 1471 400 1471 400 1450 c 128,-1,3
 400 1429 400 1429 385.5 1414.5 c 128,-1,4
 371 1400 371 1400 350 1400 c 128,-1,5
 329 1400 329 1400 314.5 1385.5 c 128,-1,6
 300 1371 300 1371 300 1350 c 2,7,-1
 300 800 l 2,8,9
 300 743 300 743 262 700 c 1,10,11
 300 657 300 657 300 600 c 2,12,-1
 300 50 l 2,13,14
 300 29 300 29 314.5 14.5 c 128,-1,15
 329 0 329 0 350 0 c 128,-1,16
 371 0 371 0 385.5 -14.5 c 128,-1,17
 400 -29 400 -29 400 -50 c 128,-1,18
 400 -71 400 -71 385.5 -85.5 c 128,-1,19
 371 -100 371 -100 350 -100 c 0,20,21
 288 -100 288 -100 244 -56 c 128,-1,22
 200 -12 200 -12 200 50 c 2,23,-1
 200 600 l 2,24,25
 200 621 200 621 185.5 635.5 c 128,-1,26
 171 650 171 650 150 650 c 128,-1,27
 129 650 129 650 114.5 664.5 c 128,-1,28
 100 679 100 679 100 700 c 128,-1,29
 100 721 100 721 114.5 735.5 c 128,-1,30
 129 750 129 750 150 750 c 128,-1,31
 171 750 171 750 185.5 764.5 c 128,-1,32
 200 779 200 779 200 800 c 2,33,-1
 200 1350 l 2,34,35
 200 1412 200 1412 244 1456 c 128,-1,36
 288 1500 288 1500 350 1500 c 0,0,1
EndSplineSet
EndChar

StartChar: bar
Encoding: 124 124 95
Width: 300
Flags: W
LayerCount: 2
Back
Fore
SplineSet
150 1500 m 128,-1,1
 171 1500 171 1500 185.5 1485.5 c 128,-1,2
 200 1471 200 1471 200 1450 c 2,3,-1
 200 -50 l 2,4,5
 200 -71 200 -71 185.5 -85.5 c 128,-1,6
 171 -100 171 -100 150 -100 c 128,-1,7
 129 -100 129 -100 114.5 -85.5 c 128,-1,8
 100 -71 100 -71 100 -50 c 2,9,-1
 100 1450 l 2,10,11
 100 1471 100 1471 114.5 1485.5 c 128,-1,0
 129 1500 129 1500 150 1500 c 128,-1,1
EndSplineSet
EndChar

StartChar: braceright
Encoding: 125 125 96
Width: 500
Flags: W
LayerCount: 2
Back
Fore
SplineSet
150 1500 m 0,0,1
 212 1500 212 1500 256 1456 c 128,-1,2
 300 1412 300 1412 300 1350 c 2,3,-1
 300 800 l 2,4,5
 300 779 300 779 314.5 764.5 c 128,-1,6
 329 750 329 750 350 750 c 128,-1,7
 371 750 371 750 385.5 735.5 c 128,-1,8
 400 721 400 721 400 700 c 128,-1,9
 400 679 400 679 385.5 664.5 c 128,-1,10
 371 650 371 650 350 650 c 128,-1,11
 329 650 329 650 314.5 635.5 c 128,-1,12
 300 621 300 621 300 600 c 2,13,-1
 300 50 l 2,14,15
 300 -12 300 -12 256 -56 c 128,-1,16
 212 -100 212 -100 150 -100 c 0,17,18
 129 -100 129 -100 114.5 -85.5 c 128,-1,19
 100 -71 100 -71 100 -50 c 128,-1,20
 100 -29 100 -29 114.5 -14.5 c 128,-1,21
 129 0 129 0 150 0 c 128,-1,22
 171 0 171 0 185.5 14.5 c 128,-1,23
 200 29 200 29 200 50 c 2,24,-1
 200 600 l 2,25,26
 200 657 200 657 238 700 c 1,27,28
 200 743 200 743 200 800 c 2,29,-1
 200 1350 l 2,30,31
 200 1371 200 1371 185.5 1385.5 c 128,-1,32
 171 1400 171 1400 150 1400 c 128,-1,33
 129 1400 129 1400 114.5 1414.5 c 128,-1,34
 100 1429 100 1429 100 1450 c 128,-1,35
 100 1471 100 1471 114.5 1485.5 c 128,-1,36
 129 1500 129 1500 150 1500 c 0,0,1
EndSplineSet
EndChar

StartChar: asciitilde
Encoding: 126 126 97
Width: 900
Flags: W
LayerCount: 2
Back
Fore
SplineSet
300 600 m 0,0,1
 394 600 394 600 479 541 c 0,2,3
 537 500 537 500 600 500 c 128,-1,4
 663 500 663 500 721 541 c 0,5,6
 733 550 733 550 750 550 c 0,7,8
 771 550 771 550 785.5 535.5 c 128,-1,9
 800 521 800 521 800 500 c 0,10,11
 800 474 800 474 776 457 c 0,12,13
 694 400 694 400 600 400 c 128,-1,14
 506 400 506 400 421 459 c 0,15,16
 363 500 363 500 300 500 c 128,-1,17
 237 500 237 500 180 460 c 0,18,19
 165 450 165 450 150 450 c 0,20,21
 129 450 129 450 114.5 464.5 c 128,-1,22
 100 479 100 479 100 500 c 0,23,24
 100 527 100 527 123 542 c 0,25,26
 208 600 208 600 300 600 c 0,0,1
EndSplineSet
EndChar

StartChar: exclamdown
Encoding: 161 161 99
Width: 300
Flags: W
LayerCount: 2
Back
Fore
SplineSet
200 1350 m 128,-1,1
 200 1329 200 1329 185.5 1314.5 c 128,-1,2
 171 1300 171 1300 150 1300 c 128,-1,3
 129 1300 129 1300 114.5 1314.5 c 128,-1,4
 100 1329 100 1329 100 1350 c 128,-1,5
 100 1371 100 1371 114.5 1385.5 c 128,-1,6
 129 1400 129 1400 150 1400 c 128,-1,7
 171 1400 171 1400 185.5 1385.5 c 128,-1,0
 200 1371 200 1371 200 1350 c 128,-1,1
150 0 m 128,-1,9
 129 0 129 0 114.5 14.5 c 128,-1,10
 100 29 100 29 100 50 c 2,11,-1
 100 1050 l 2,12,13
 100 1071 100 1071 114.5 1085.5 c 128,-1,14
 129 1100 129 1100 150 1100 c 128,-1,15
 171 1100 171 1100 185.5 1085.5 c 128,-1,16
 200 1071 200 1071 200 1050 c 2,17,-1
 200 50 l 2,18,19
 200 29 200 29 185.5 14.5 c 128,-1,8
 171 0 171 0 150 0 c 128,-1,9
EndSplineSet
EndChar

StartChar: cent
Encoding: 162 162 100
Width: 800
Flags: W
LayerCount: 2
Back
Fore
SplineSet
450 1200 m 128,-1,1
 471 1200 471 1200 485.5 1185.5 c 128,-1,2
 500 1171 500 1171 500 1150 c 2,3,-1
 500 1000 l 1,4,-1
 650 1000 l 2,5,6
 671 1000 671 1000 685.5 985.5 c 128,-1,7
 700 971 700 971 700 950 c 128,-1,8
 700 929 700 929 685.5 914.5 c 128,-1,9
 671 900 671 900 650 900 c 2,10,-1
 500 900 l 1,11,-1
 500 100 l 1,12,-1
 650 100 l 2,13,14
 671 100 671 100 685.5 85.5 c 128,-1,15
 700 71 700 71 700 50 c 128,-1,16
 700 29 700 29 685.5 14.5 c 128,-1,17
 671 0 671 0 650 0 c 2,18,-1
 500 0 l 1,19,-1
 500 -150 l 2,20,21
 500 -171 500 -171 485.5 -185.5 c 128,-1,22
 471 -200 471 -200 450 -200 c 128,-1,23
 429 -200 429 -200 414.5 -185.5 c 128,-1,24
 400 -171 400 -171 400 -150 c 2,25,-1
 400 0 l 1,26,-1
 350 0 l 2,27,28
 246 0 246 0 173 73 c 128,-1,29
 100 146 100 146 100 250 c 2,30,-1
 100 750 l 2,31,32
 100 854 100 854 173 927 c 128,-1,33
 246 1000 246 1000 350 1000 c 2,34,-1
 400 1000 l 1,35,-1
 400 1150 l 2,36,37
 400 1171 400 1171 414.5 1185.5 c 128,-1,0
 429 1200 429 1200 450 1200 c 128,-1,1
350 900 m 2,38,39
 288 900 288 900 244 856 c 128,-1,40
 200 812 200 812 200 750 c 2,41,-1
 200 250 l 2,42,43
 200 188 200 188 244 144 c 128,-1,44
 288 100 288 100 350 100 c 2,45,-1
 400 100 l 1,46,-1
 400 900 l 1,47,-1
 350 900 l 2,38,39
EndSplineSet
EndChar

StartChar: sterling
Encoding: 163 163 101
Width: 900
Flags: W
LayerCount: 2
Back
Fore
SplineSet
450 1400 m 128,-1,1
 554 1400 554 1400 627 1327 c 128,-1,2
 700 1254 700 1254 700 1150 c 0,3,4
 700 1129 700 1129 685.5 1114.5 c 128,-1,5
 671 1100 671 1100 650 1100 c 128,-1,6
 629 1100 629 1100 614.5 1114.5 c 128,-1,7
 600 1129 600 1129 600 1150 c 0,8,9
 600 1212 600 1212 556 1256 c 128,-1,10
 512 1300 512 1300 450 1300 c 128,-1,11
 388 1300 388 1300 344 1256 c 128,-1,12
 300 1212 300 1212 300 1150 c 2,13,-1
 300 800 l 1,14,-1
 450 800 l 2,15,16
 471 800 471 800 485.5 785.5 c 128,-1,17
 500 771 500 771 500 750 c 128,-1,18
 500 729 500 729 485.5 714.5 c 128,-1,19
 471 700 471 700 450 700 c 2,20,-1
 300 700 l 1,21,-1
 300 150 l 2,22,23
 300 124 300 124 291 100 c 1,24,-1
 600 100 l 2,25,26
 641 100 641 100 670.5 129.5 c 128,-1,27
 700 159 700 159 700 200 c 0,28,29
 700 221 700 221 714.5 235.5 c 128,-1,30
 729 250 729 250 750 250 c 128,-1,31
 771 250 771 250 785.5 235.5 c 128,-1,32
 800 221 800 221 800 200 c 0,33,34
 800 117 800 117 741.5 58.5 c 128,-1,35
 683 0 683 0 600 0 c 2,36,-1
 150 0 l 2,37,38
 129 0 129 0 114.5 14.5 c 128,-1,39
 100 29 100 29 100 50 c 128,-1,40
 100 71 100 71 114.5 85.5 c 128,-1,41
 129 100 129 100 150 100 c 128,-1,42
 171 100 171 100 185.5 114.5 c 128,-1,43
 200 129 200 129 200 150 c 2,44,-1
 200 700 l 1,45,-1
 150 700 l 2,46,47
 129 700 129 700 114.5 714.5 c 128,-1,48
 100 729 100 729 100 750 c 128,-1,49
 100 771 100 771 114.5 785.5 c 128,-1,50
 129 800 129 800 150 800 c 2,51,-1
 200 800 l 1,52,-1
 200 1150 l 2,53,54
 200 1254 200 1254 273 1327 c 128,-1,0
 346 1400 346 1400 450 1400 c 128,-1,1
EndSplineSet
EndChar

StartChar: currency
Encoding: 164 164 102
Width: 1400
Flags: W
LayerCount: 2
Back
Fore
SplineSet
150 1300 m 256,0,1
 171 1300 171 1300 185 1285 c 2,2,-1
 313 1158 l 1,3,4
 392 1226 392 1226 491.5 1263 c 128,-1,5
 591 1300 591 1300 700 1300 c 128,-1,6
 809 1300 809 1300 908.5 1263 c 128,-1,7
 1008 1226 1008 1226 1087 1158 c 1,8,-1
 1215 1285 l 2,9,10
 1229 1300 1229 1300 1250 1300 c 256,11,12
 1271 1300 1271 1300 1285.5 1285.5 c 128,-1,13
 1300 1271 1300 1271 1300 1250 c 256,14,15
 1300 1229 1300 1229 1285 1215 c 2,16,-1
 1158 1087 l 1,17,18
 1226 1008 1226 1008 1263 908.5 c 128,-1,19
 1300 809 1300 809 1300 700 c 128,-1,20
 1300 591 1300 591 1263 491.5 c 128,-1,21
 1226 392 1226 392 1158 313 c 1,22,-1
 1285 185 l 2,23,24
 1300 171 1300 171 1300 150 c 256,25,26
 1300 129 1300 129 1285.5 114.5 c 128,-1,27
 1271 100 1271 100 1250 100 c 256,28,29
 1229 100 1229 100 1215 115 c 2,30,-1
 1087 242 l 1,31,32
 1008 174 1008 174 908.5 137 c 128,-1,33
 809 100 809 100 700 100 c 128,-1,34
 591 100 591 100 491.5 137 c 128,-1,35
 392 174 392 174 313 242 c 1,36,-1
 185 115 l 2,37,38
 171 100 171 100 150 100 c 256,39,40
 129 100 129 100 114.5 114.5 c 128,-1,41
 100 129 100 129 100 150 c 256,42,43
 100 171 100 171 115 185 c 2,44,-1
 242 313 l 1,45,46
 174 392 174 392 137 491.5 c 128,-1,47
 100 591 100 591 100 700 c 128,-1,48
 100 809 100 809 137 908.5 c 128,-1,49
 174 1008 174 1008 242 1087 c 1,50,-1
 115 1215 l 2,51,52
 100 1229 100 1229 100 1250 c 256,53,54
 100 1271 100 1271 114.5 1285.5 c 128,-1,55
 129 1300 129 1300 150 1300 c 256,0,1
700 1200 m 128,-1,57
 564 1200 564 1200 449 1133 c 128,-1,58
 334 1066 334 1066 267 951 c 128,-1,59
 200 836 200 836 200 700 c 128,-1,60
 200 564 200 564 267 449 c 128,-1,61
 334 334 334 334 449 267 c 128,-1,62
 564 200 564 200 700 200 c 128,-1,63
 836 200 836 200 951 267 c 128,-1,64
 1066 334 1066 334 1133 449 c 128,-1,65
 1200 564 1200 564 1200 700 c 128,-1,66
 1200 836 1200 836 1133 951 c 128,-1,67
 1066 1066 1066 1066 951 1133 c 128,-1,56
 836 1200 836 1200 700 1200 c 128,-1,57
EndSplineSet
EndChar

StartChar: yen
Encoding: 165 165 103
Width: 1000
Flags: W
LayerCount: 2
Back
Fore
SplineSet
150 1400 m 0,0,1
 180 1400 180 1400 194 1374 c 2,2,-1
 500 806 l 1,3,-1
 806 1374 l 2,4,5
 820 1400 820 1400 850 1400 c 0,6,7
 871 1400 871 1400 885.5 1385.5 c 128,-1,8
 900 1371 900 1371 900 1350 c 0,9,10
 900 1337 900 1337 894 1326 c 2,11,-1
 611 800 l 1,12,-1
 800 800 l 2,13,14
 821 800 821 800 835.5 785.5 c 128,-1,15
 850 771 850 771 850 750 c 128,-1,16
 850 729 850 729 835.5 714.5 c 128,-1,17
 821 700 821 700 800 700 c 2,18,-1
 557 700 l 1,19,-1
 550 687 l 1,20,-1
 550 600 l 1,21,-1
 800 600 l 2,22,23
 821 600 821 600 835.5 585.5 c 128,-1,24
 850 571 850 571 850 550 c 128,-1,25
 850 529 850 529 835.5 514.5 c 128,-1,26
 821 500 821 500 800 500 c 2,27,-1
 550 500 l 1,28,-1
 550 50 l 2,29,30
 550 29 550 29 535.5 14.5 c 128,-1,31
 521 0 521 0 500 0 c 128,-1,32
 479 0 479 0 464.5 14.5 c 128,-1,33
 450 29 450 29 450 50 c 2,34,-1
 450 500 l 1,35,-1
 200 500 l 2,36,37
 179 500 179 500 164.5 514.5 c 128,-1,38
 150 529 150 529 150 550 c 128,-1,39
 150 571 150 571 164.5 585.5 c 128,-1,40
 179 600 179 600 200 600 c 2,41,-1
 450 600 l 1,42,-1
 450 687 l 1,43,-1
 443 700 l 1,44,-1
 200 700 l 2,45,46
 179 700 179 700 164.5 714.5 c 128,-1,47
 150 729 150 729 150 750 c 128,-1,48
 150 771 150 771 164.5 785.5 c 128,-1,49
 179 800 179 800 200 800 c 2,50,-1
 389 800 l 1,51,-1
 106 1326 l 2,52,53
 100 1337 100 1337 100 1350 c 0,54,55
 100 1371 100 1371 114.5 1385.5 c 128,-1,56
 129 1400 129 1400 150 1400 c 0,0,1
EndSplineSet
EndChar

StartChar: brokenbar
Encoding: 166 166 104
Width: 300
Flags: W
LayerCount: 2
Back
Fore
SplineSet
150 1500 m 128,-1,1
 171 1500 171 1500 185.5 1485.5 c 128,-1,2
 200 1471 200 1471 200 1450 c 2,3,-1
 200 850 l 2,4,5
 200 829 200 829 185.5 814.5 c 128,-1,6
 171 800 171 800 150 800 c 128,-1,7
 129 800 129 800 114.5 814.5 c 128,-1,8
 100 829 100 829 100 850 c 2,9,-1
 100 1450 l 2,10,11
 100 1471 100 1471 114.5 1485.5 c 128,-1,0
 129 1500 129 1500 150 1500 c 128,-1,1
150 600 m 128,-1,13
 171 600 171 600 185.5 585.5 c 128,-1,14
 200 571 200 571 200 550 c 2,15,-1
 200 -50 l 2,16,17
 200 -71 200 -71 185.5 -85.5 c 128,-1,18
 171 -100 171 -100 150 -100 c 128,-1,19
 129 -100 129 -100 114.5 -85.5 c 128,-1,20
 100 -71 100 -71 100 -50 c 2,21,-1
 100 550 l 2,22,23
 100 571 100 571 114.5 585.5 c 128,-1,12
 129 600 129 600 150 600 c 128,-1,13
EndSplineSet
EndChar

StartChar: section
Encoding: 167 167 105
Width: 800
Flags: W
LayerCount: 2
Back
Fore
SplineSet
400 1500 m 0,0,1
 557 1500 557 1500 640 1380 c 0,2,3
 650 1365 650 1365 650 1350 c 0,4,5
 650 1329 650 1329 635.5 1314.5 c 128,-1,6
 621 1300 621 1300 600 1300 c 0,7,8
 575 1300 575 1300 560 1320 c 0,9,10
 529 1362 529 1362 493.5 1381 c 128,-1,11
 458 1400 458 1400 400 1400 c 0,12,13
 338 1400 338 1400 294 1356 c 128,-1,14
 250 1312 250 1312 250 1250 c 0,15,16
 250 1183 250 1183 300 1138 c 2,17,-1
 566 899 l 2,18,19
 629 842 629 842 664.5 764.5 c 128,-1,20
 700 687 700 687 700 600 c 0,21,22
 700 519 700 519 669.5 446.5 c 128,-1,23
 639 374 639 374 584 319 c 1,24,25
 650 247 650 247 650 150 c 0,26,27
 650 46 650 46 577 -27 c 128,-1,28
 504 -100 504 -100 400 -100 c 0,29,30
 243 -100 243 -100 160 20 c 0,31,32
 150 35 150 35 150 50 c 0,33,34
 150 71 150 71 164.5 85.5 c 128,-1,35
 179 100 179 100 200 100 c 0,36,37
 225 100 225 100 240 80 c 0,38,39
 271 38 271 38 306.5 19 c 128,-1,40
 342 0 342 0 400 0 c 0,41,42
 462 0 462 0 506 44 c 128,-1,43
 550 88 550 88 550 150 c 0,44,45
 550 217 550 217 500 262 c 2,46,-1
 234 501 l 2,47,48
 171 558 171 558 135.5 635.5 c 128,-1,49
 100 713 100 713 100 800 c 0,50,51
 100 881 100 881 130.5 953.5 c 128,-1,52
 161 1026 161 1026 216 1081 c 1,53,54
 150 1153 150 1153 150 1250 c 0,55,56
 150 1354 150 1354 223 1427 c 128,-1,57
 296 1500 296 1500 400 1500 c 0,0,1
289 1013 m 1,58,59
 200 925 200 925 200 800 c 0,60,61
 200 735 200 735 226.5 676.5 c 128,-1,62
 253 618 253 618 300 576 c 2,63,-1
 511 387 l 1,64,65
 600 475 600 475 600 600 c 0,66,67
 600 665 600 665 573.5 723.5 c 128,-1,68
 547 782 547 782 500 824 c 2,69,-1
 289 1013 l 1,58,59
EndSplineSet
EndChar

StartChar: dieresis
Encoding: 168 168 106
Width: 600
Flags: W
LayerCount: 2
Back
Fore
SplineSet
200 1350 m 128,-1,1
 200 1329 200 1329 185.5 1314.5 c 128,-1,2
 171 1300 171 1300 150 1300 c 128,-1,3
 129 1300 129 1300 114.5 1314.5 c 128,-1,4
 100 1329 100 1329 100 1350 c 128,-1,5
 100 1371 100 1371 114.5 1385.5 c 128,-1,6
 129 1400 129 1400 150 1400 c 128,-1,7
 171 1400 171 1400 185.5 1385.5 c 128,-1,0
 200 1371 200 1371 200 1350 c 128,-1,1
500 1350 m 128,-1,9
 500 1329 500 1329 485.5 1314.5 c 128,-1,10
 471 1300 471 1300 450 1300 c 128,-1,11
 429 1300 429 1300 414.5 1314.5 c 128,-1,12
 400 1329 400 1329 400 1350 c 128,-1,13
 400 1371 400 1371 414.5 1385.5 c 128,-1,14
 429 1400 429 1400 450 1400 c 128,-1,15
 471 1400 471 1400 485.5 1385.5 c 128,-1,8
 500 1371 500 1371 500 1350 c 128,-1,9
EndSplineSet
EndChar

StartChar: copyright
Encoding: 169 169 107
Width: 1700
Flags: W
LayerCount: 2
Back
Fore
SplineSet
850 1650 m 128,-1,1
 1003 1650 1003 1650 1141.5 1590.5 c 128,-1,2
 1280 1531 1280 1531 1380.5 1430.5 c 128,-1,3
 1481 1330 1481 1330 1540.5 1191.5 c 128,-1,4
 1600 1053 1600 1053 1600 900 c 128,-1,5
 1600 747 1600 747 1540.5 608.5 c 128,-1,6
 1481 470 1481 470 1380.5 369.5 c 128,-1,7
 1280 269 1280 269 1141.5 209.5 c 128,-1,8
 1003 150 1003 150 850 150 c 128,-1,9
 697 150 697 150 558.5 209.5 c 128,-1,10
 420 269 420 269 319.5 369.5 c 128,-1,11
 219 470 219 470 159.5 608.5 c 128,-1,12
 100 747 100 747 100 900 c 128,-1,13
 100 1053 100 1053 159.5 1191.5 c 128,-1,14
 219 1330 219 1330 319.5 1430.5 c 128,-1,15
 420 1531 420 1531 558.5 1590.5 c 128,-1,0
 697 1650 697 1650 850 1650 c 128,-1,1
850 1550 m 128,-1,17
 718 1550 718 1550 597.5 1498.5 c 128,-1,18
 477 1447 477 1447 390 1360 c 128,-1,19
 303 1273 303 1273 251.5 1152.5 c 128,-1,20
 200 1032 200 1032 200 900 c 128,-1,21
 200 768 200 768 251.5 647.5 c 128,-1,22
 303 527 303 527 390 440 c 128,-1,23
 477 353 477 353 597.5 301.5 c 128,-1,24
 718 250 718 250 850 250 c 128,-1,25
 982 250 982 250 1102.5 301.5 c 128,-1,26
 1223 353 1223 353 1310 440 c 128,-1,27
 1397 527 1397 527 1448.5 647.5 c 128,-1,28
 1500 768 1500 768 1500 900 c 128,-1,29
 1500 1032 1500 1032 1448.5 1152.5 c 128,-1,30
 1397 1273 1397 1273 1310 1360 c 128,-1,31
 1223 1447 1223 1447 1102.5 1498.5 c 128,-1,16
 982 1550 982 1550 850 1550 c 128,-1,17
800 1400 m 2,32,-1
 1000 1400 l 2,33,34
 1021 1400 1021 1400 1035.5 1385.5 c 128,-1,35
 1050 1371 1050 1371 1050 1350 c 128,-1,36
 1050 1329 1050 1329 1035.5 1314.5 c 128,-1,37
 1021 1300 1021 1300 1000 1300 c 2,38,-1
 800 1300 l 2,39,40
 738 1300 738 1300 694 1256 c 128,-1,41
 650 1212 650 1212 650 1150 c 2,42,-1
 650 650 l 2,43,44
 650 588 650 588 694 544 c 128,-1,45
 738 500 738 500 800 500 c 2,46,-1
 1000 500 l 2,47,48
 1021 500 1021 500 1035.5 485.5 c 128,-1,49
 1050 471 1050 471 1050 450 c 128,-1,50
 1050 429 1050 429 1035.5 414.5 c 128,-1,51
 1021 400 1021 400 1000 400 c 2,52,-1
 800 400 l 2,53,54
 696 400 696 400 623 473 c 128,-1,55
 550 546 550 546 550 650 c 2,56,-1
 550 1150 l 2,57,58
 550 1254 550 1254 623 1327 c 128,-1,59
 696 1400 696 1400 800 1400 c 2,32,-1
EndSplineSet
EndChar

StartChar: ordfeminine
Encoding: 170 170 108
Width: 750
Flags: W
LayerCount: 2
Back
Fore
SplineSet
300 1400 m 2,0,-1
 550 1400 l 2,1,2
 571 1400 571 1400 585.5 1385.5 c 128,-1,3
 600 1371 600 1371 600 1350 c 2,4,-1
 600 900 l 1,5,-1
 600 850 l 2,6,7
 600 829 600 829 614.5 814.5 c 128,-1,8
 629 800 629 800 650 800 c 128,-1,9
 671 800 671 800 685.5 785.5 c 128,-1,10
 700 771 700 771 700 750 c 128,-1,11
 700 729 700 729 685.5 714.5 c 128,-1,12
 671 700 671 700 650 700 c 0,13,14
 582 700 582 700 536 753 c 1,15,16
 478 700 478 700 400 700 c 2,17,-1
 300 700 l 2,18,19
 218 700 218 700 159 759 c 128,-1,20
 100 818 100 818 100 900 c 2,21,-1
 100 1200 l 2,22,23
 100 1282 100 1282 159 1341 c 128,-1,24
 218 1400 218 1400 300 1400 c 2,0,-1
300 1300 m 2,25,26
 259 1300 259 1300 229.5 1270.5 c 128,-1,27
 200 1241 200 1241 200 1200 c 2,28,-1
 200 900 l 2,29,30
 200 859 200 859 229.5 829.5 c 128,-1,31
 259 800 259 800 300 800 c 2,32,-1
 400 800 l 2,33,34
 441 800 441 800 470.5 829.5 c 128,-1,35
 500 859 500 859 500 900 c 2,36,-1
 500 1300 l 1,37,-1
 300 1300 l 2,25,26
EndSplineSet
EndChar

StartChar: guillemotleft
Encoding: 171 171 109
Width: 850
Flags: W
LayerCount: 2
Back
Fore
SplineSet
400 900 m 0,0,1
 421 900 421 900 435.5 885.5 c 128,-1,2
 450 871 450 871 450 850 c 0,3,4
 450 834 450 834 441 821 c 2,5,-1
 211 500 l 1,6,-1
 441 179 l 2,7,8
 450 166 450 166 450 150 c 0,9,10
 450 129 450 129 435.5 114.5 c 128,-1,11
 421 100 421 100 400 100 c 0,12,13
 374 100 374 100 359 121 c 2,14,-1
 110 470 l 2,15,16
 100 484 100 484 100 500 c 256,17,18
 100 516 100 516 110 530 c 2,19,-1
 359 879 l 2,20,21
 374 900 374 900 400 900 c 0,0,1
700 900 m 0,22,23
 721 900 721 900 735.5 885.5 c 128,-1,24
 750 871 750 871 750 850 c 0,25,26
 750 834 750 834 741 821 c 2,27,-1
 511 500 l 1,28,-1
 741 179 l 2,29,30
 750 166 750 166 750 150 c 0,31,32
 750 129 750 129 735.5 114.5 c 128,-1,33
 721 100 721 100 700 100 c 0,34,35
 674 100 674 100 659 121 c 2,36,-1
 410 470 l 2,37,38
 400 484 400 484 400 500 c 256,39,40
 400 516 400 516 410 530 c 2,41,-1
 659 879 l 2,42,43
 674 900 674 900 700 900 c 0,22,23
EndSplineSet
EndChar

StartChar: logicalnot
Encoding: 172 172 110
Width: 900
Flags: W
LayerCount: 2
Back
Fore
SplineSet
150 650 m 2,0,-1
 750 650 l 2,1,2
 771 650 771 650 785.5 635.5 c 128,-1,3
 800 621 800 621 800 600 c 2,4,-1
 800 400 l 2,5,6
 800 379 800 379 785.5 364.5 c 128,-1,7
 771 350 771 350 750 350 c 128,-1,8
 729 350 729 350 714.5 364.5 c 128,-1,9
 700 379 700 379 700 400 c 2,10,-1
 700 550 l 1,11,-1
 150 550 l 2,12,13
 129 550 129 550 114.5 564.5 c 128,-1,14
 100 579 100 579 100 600 c 128,-1,15
 100 621 100 621 114.5 635.5 c 128,-1,16
 129 650 129 650 150 650 c 2,0,-1
EndSplineSet
EndChar

StartChar: registered
Encoding: 174 174 112
Width: 1700
Flags: W
LayerCount: 2
Back
Fore
SplineSet
850 1650 m 128,-1,1
 1003 1650 1003 1650 1141.5 1590.5 c 128,-1,2
 1280 1531 1280 1531 1380.5 1430.5 c 128,-1,3
 1481 1330 1481 1330 1540.5 1191.5 c 128,-1,4
 1600 1053 1600 1053 1600 900 c 128,-1,5
 1600 747 1600 747 1540.5 608.5 c 128,-1,6
 1481 470 1481 470 1380.5 369.5 c 128,-1,7
 1280 269 1280 269 1141.5 209.5 c 128,-1,8
 1003 150 1003 150 850 150 c 128,-1,9
 697 150 697 150 558.5 209.5 c 128,-1,10
 420 269 420 269 319.5 369.5 c 128,-1,11
 219 470 219 470 159.5 608.5 c 128,-1,12
 100 747 100 747 100 900 c 128,-1,13
 100 1053 100 1053 159.5 1191.5 c 128,-1,14
 219 1330 219 1330 319.5 1430.5 c 128,-1,15
 420 1531 420 1531 558.5 1590.5 c 128,-1,0
 697 1650 697 1650 850 1650 c 128,-1,1
850 1550 m 128,-1,17
 718 1550 718 1550 597.5 1498.5 c 128,-1,18
 477 1447 477 1447 390 1360 c 128,-1,19
 303 1273 303 1273 251.5 1152.5 c 128,-1,20
 200 1032 200 1032 200 900 c 128,-1,21
 200 768 200 768 251.5 647.5 c 128,-1,22
 303 527 303 527 390 440 c 128,-1,23
 477 353 477 353 597.5 301.5 c 128,-1,24
 718 250 718 250 850 250 c 128,-1,25
 982 250 982 250 1102.5 301.5 c 128,-1,26
 1223 353 1223 353 1310 440 c 128,-1,27
 1397 527 1397 527 1448.5 647.5 c 128,-1,28
 1500 768 1500 768 1500 900 c 128,-1,29
 1500 1032 1500 1032 1448.5 1152.5 c 128,-1,30
 1397 1273 1397 1273 1310 1360 c 128,-1,31
 1223 1447 1223 1447 1102.5 1498.5 c 128,-1,16
 982 1550 982 1550 850 1550 c 128,-1,17
600 1400 m 2,32,-1
 900 1400 l 2,33,34
 1004 1400 1004 1400 1077 1327 c 128,-1,35
 1150 1254 1150 1254 1150 1150 c 2,36,-1
 1150 1050 l 2,37,38
 1150 962 1150 962 1095.5 894 c 128,-1,39
 1041 826 1041 826 957 806 c 1,40,-1
 1144 474 l 2,41,42
 1150 464 1150 464 1150 450 c 0,43,44
 1150 429 1150 429 1135.5 414.5 c 128,-1,45
 1121 400 1121 400 1100 400 c 0,46,47
 1072 400 1072 400 1056 426 c 2,48,-1
 846 800 l 1,49,-1
 650 800 l 1,50,-1
 650 450 l 2,51,52
 650 429 650 429 635.5 414.5 c 128,-1,53
 621 400 621 400 600 400 c 128,-1,54
 579 400 579 400 564.5 414.5 c 128,-1,55
 550 429 550 429 550 450 c 2,56,-1
 550 1350 l 2,57,58
 550 1371 550 1371 564.5 1385.5 c 128,-1,59
 579 1400 579 1400 600 1400 c 2,32,-1
650 1300 m 1,60,-1
 650 900 l 1,61,-1
 900 900 l 2,62,63
 962 900 962 900 1006 944 c 128,-1,64
 1050 988 1050 988 1050 1050 c 2,65,-1
 1050 1150 l 2,66,67
 1050 1212 1050 1212 1006 1256 c 128,-1,68
 962 1300 962 1300 900 1300 c 2,69,-1
 650 1300 l 1,60,-1
EndSplineSet
EndChar

StartChar: macron
Encoding: 175 175 113
Width: 500
Flags: W
LayerCount: 2
Back
Fore
SplineSet
150 1400 m 2,0,-1
 350 1400 l 2,1,2
 371 1400 371 1400 385.5 1385.5 c 128,-1,3
 400 1371 400 1371 400 1350 c 128,-1,4
 400 1329 400 1329 385.5 1314.5 c 128,-1,5
 371 1300 371 1300 350 1300 c 2,6,-1
 150 1300 l 2,7,8
 129 1300 129 1300 114.5 1314.5 c 128,-1,9
 100 1329 100 1329 100 1350 c 128,-1,10
 100 1371 100 1371 114.5 1385.5 c 128,-1,11
 129 1400 129 1400 150 1400 c 2,0,-1
EndSplineSet
EndChar

StartChar: degree
Encoding: 176 176 114
Width: 600
Flags: W
LayerCount: 2
Back
Fore
SplineSet
300 1400 m 128,-1,1
 383 1400 383 1400 441.5 1341.5 c 128,-1,2
 500 1283 500 1283 500 1200 c 128,-1,3
 500 1117 500 1117 441.5 1058.5 c 128,-1,4
 383 1000 383 1000 300 1000 c 128,-1,5
 217 1000 217 1000 158.5 1058.5 c 128,-1,6
 100 1117 100 1117 100 1200 c 128,-1,7
 100 1283 100 1283 158.5 1341.5 c 128,-1,0
 217 1400 217 1400 300 1400 c 128,-1,1
300 1300 m 128,-1,9
 259 1300 259 1300 229.5 1270.5 c 128,-1,10
 200 1241 200 1241 200 1200 c 128,-1,11
 200 1159 200 1159 229.5 1129.5 c 128,-1,12
 259 1100 259 1100 300 1100 c 128,-1,13
 341 1100 341 1100 370.5 1129.5 c 128,-1,14
 400 1159 400 1159 400 1200 c 128,-1,15
 400 1241 400 1241 370.5 1270.5 c 128,-1,8
 341 1300 341 1300 300 1300 c 128,-1,9
EndSplineSet
EndChar

StartChar: plusminus
Encoding: 177 177 115
Width: 800
Flags: W
LayerCount: 2
Back
Fore
SplineSet
400 900 m 128,-1,1
 421 900 421 900 435.5 885.5 c 128,-1,2
 450 871 450 871 450 850 c 2,3,-1
 450 650 l 1,4,-1
 650 650 l 2,5,6
 671 650 671 650 685.5 635.5 c 128,-1,7
 700 621 700 621 700 600 c 128,-1,8
 700 579 700 579 685.5 564.5 c 128,-1,9
 671 550 671 550 650 550 c 2,10,-1
 450 550 l 1,11,-1
 450 350 l 2,12,13
 450 329 450 329 435.5 314.5 c 128,-1,14
 421 300 421 300 400 300 c 128,-1,15
 379 300 379 300 364.5 314.5 c 128,-1,16
 350 329 350 329 350 350 c 2,17,-1
 350 550 l 1,18,-1
 150 550 l 2,19,20
 129 550 129 550 114.5 564.5 c 128,-1,21
 100 579 100 579 100 600 c 128,-1,22
 100 621 100 621 114.5 635.5 c 128,-1,23
 129 650 129 650 150 650 c 2,24,-1
 350 650 l 1,25,-1
 350 850 l 2,26,27
 350 871 350 871 364.5 885.5 c 128,-1,0
 379 900 379 900 400 900 c 128,-1,1
150 150 m 2,28,-1
 650 150 l 2,29,30
 671 150 671 150 685.5 135.5 c 128,-1,31
 700 121 700 121 700 100 c 128,-1,32
 700 79 700 79 685.5 64.5 c 128,-1,33
 671 50 671 50 650 50 c 2,34,-1
 150 50 l 2,35,36
 129 50 129 50 114.5 64.5 c 128,-1,37
 100 79 100 79 100 100 c 128,-1,38
 100 121 100 121 114.5 135.5 c 128,-1,39
 129 150 129 150 150 150 c 2,28,-1
EndSplineSet
EndChar

StartChar: uni00B2
Encoding: 178 178 116
Width: 650
Flags: W
LayerCount: 2
Back
Fore
SplineSet
320 1750 m 0,0,1
 424 1750 424 1750 497 1677 c 128,-1,2
 570 1604 570 1604 570 1500 c 0,3,4
 570 1428 570 1428 532 1368 c 2,5,-1
 210 850 l 1,6,-1
 520 850 l 2,7,8
 541 850 541 850 555.5 835.5 c 128,-1,9
 570 821 570 821 570 800 c 128,-1,10
 570 779 570 779 555.5 764.5 c 128,-1,11
 541 750 541 750 520 750 c 2,12,-1
 120 750 l 2,13,14
 99 750 99 750 84.5 764.5 c 128,-1,15
 70 779 70 779 70 800 c 0,16,17
 70 813 70 813 78 826 c 2,18,-1
 447 1421 l 2,19,20
 470 1459 470 1459 470 1500 c 0,21,22
 470 1562 470 1562 426 1606 c 128,-1,23
 382 1650 382 1650 320 1650 c 0,24,25
 260 1650 260 1650 230 1635 c 0,26,27
 198 1619 198 1619 160 1570 c 0,28,29
 143 1550 143 1550 120 1550 c 0,30,31
 99 1550 99 1550 84.5 1564.5 c 128,-1,32
 70 1579 70 1579 70 1600 c 0,33,34
 70 1617 70 1617 83 1633 c 0,35,36
 135 1700 135 1700 185 1724 c 0,37,38
 237 1750 237 1750 320 1750 c 0,0,1
EndSplineSet
EndChar

StartChar: uni00B3
Encoding: 179 179 117
Width: 630
Flags: W
LayerCount: 2
Back
Fore
SplineSet
100 1750 m 2,0,-1
 300 1750 l 2,1,2
 404 1750 404 1750 477 1677 c 128,-1,3
 550 1604 550 1604 550 1500 c 0,4,5
 550 1440 550 1440 523.5 1387.5 c 128,-1,6
 497 1335 497 1335 450 1300 c 1,7,8
 497 1265 497 1265 523.5 1212.5 c 128,-1,9
 550 1160 550 1160 550 1100 c 2,10,-1
 550 1000 l 2,11,12
 550 896 550 896 477 823 c 128,-1,13
 404 750 404 750 300 750 c 2,14,-1
 100 750 l 2,15,16
 79 750 79 750 64.5 764.5 c 128,-1,17
 50 779 50 779 50 800 c 128,-1,18
 50 821 50 821 64.5 835.5 c 128,-1,19
 79 850 79 850 100 850 c 2,20,-1
 300 850 l 2,21,22
 362 850 362 850 406 894 c 128,-1,23
 450 938 450 938 450 1000 c 2,24,-1
 450 1100 l 2,25,26
 450 1162 450 1162 406 1206 c 128,-1,27
 362 1250 362 1250 300 1250 c 2,28,-1
 200 1250 l 2,29,30
 179 1250 179 1250 164.5 1264.5 c 128,-1,31
 150 1279 150 1279 150 1300 c 128,-1,32
 150 1321 150 1321 164.5 1335.5 c 128,-1,33
 179 1350 179 1350 200 1350 c 2,34,-1
 300 1350 l 2,35,36
 362 1350 362 1350 406 1394 c 128,-1,37
 450 1438 450 1438 450 1500 c 128,-1,38
 450 1562 450 1562 406 1606 c 128,-1,39
 362 1650 362 1650 300 1650 c 2,40,-1
 100 1650 l 2,41,42
 79 1650 79 1650 64.5 1664.5 c 128,-1,43
 50 1679 50 1679 50 1700 c 128,-1,44
 50 1721 50 1721 64.5 1735.5 c 128,-1,45
 79 1750 79 1750 100 1750 c 2,0,-1
EndSplineSet
EndChar

StartChar: acute
Encoding: 180 180 118
Width: 300
Flags: W
LayerCount: 2
Back
Fore
SplineSet
150 1400 m 0,0,1
 171 1400 171 1400 185.5 1385.5 c 128,-1,2
 200 1371 200 1371 200 1350 c 0,3,4
 200 1340 200 1340 195 1328 c 2,5,-1
 145 1228 l 2,6,7
 131 1200 131 1200 100 1200 c 0,8,9
 79 1200 79 1200 64.5 1214.5 c 128,-1,10
 50 1229 50 1229 50 1250 c 0,11,12
 50 1260 50 1260 55 1272 c 2,13,-1
 105 1372 l 2,14,15
 119 1400 119 1400 150 1400 c 0,0,1
EndSplineSet
EndChar

StartChar: paragraph
Encoding: 182 182 120
Width: 1100
Flags: W
LayerCount: 2
Back
Fore
SplineSet
450 1400 m 2,0,-1
 950 1400 l 2,1,2
 971 1400 971 1400 985.5 1385.5 c 128,-1,3
 1000 1371 1000 1371 1000 1350 c 128,-1,4
 1000 1329 1000 1329 985.5 1314.5 c 128,-1,5
 971 1300 971 1300 950 1300 c 2,6,-1
 850 1300 l 1,7,-1
 850 -350 l 2,8,9
 850 -371 850 -371 835.5 -385.5 c 128,-1,10
 821 -400 821 -400 800 -400 c 128,-1,11
 779 -400 779 -400 764.5 -385.5 c 128,-1,12
 750 -371 750 -371 750 -350 c 2,13,-1
 750 1300 l 1,14,-1
 550 1300 l 1,15,-1
 550 -350 l 2,16,17
 550 -371 550 -371 535.5 -385.5 c 128,-1,18
 521 -400 521 -400 500 -400 c 128,-1,19
 479 -400 479 -400 464.5 -385.5 c 128,-1,20
 450 -371 450 -371 450 -350 c 2,21,-1
 450 700 l 1,22,23
 305 700 305 700 202.5 802.5 c 128,-1,24
 100 905 100 905 100 1050 c 128,-1,25
 100 1195 100 1195 202.5 1297.5 c 128,-1,26
 305 1400 305 1400 450 1400 c 2,0,-1
450 1300 m 1,27,28
 346 1300 346 1300 273 1227 c 128,-1,29
 200 1154 200 1154 200 1050 c 128,-1,30
 200 946 200 946 273 873 c 128,-1,31
 346 800 346 800 450 800 c 1,32,-1
 450 1300 l 1,27,28
EndSplineSet
EndChar

StartChar: cedilla
Encoding: 184 184 122
Width: 300
Flags: W
LayerCount: 2
Back
Fore
SplineSet
119 0 m 1,0,-1
 231 0 l 1,1,-1
 145 -172 l 2,2,3
 131 -200 131 -200 100 -200 c 0,4,5
 79 -200 79 -200 64.5 -185.5 c 128,-1,6
 50 -171 50 -171 50 -150 c 0,7,8
 50 -140 50 -140 55 -128 c 2,9,-1
 119 0 l 1,0,-1
EndSplineSet
EndChar

StartChar: uni00B9
Encoding: 185 185 123
Width: 450
Flags: W
LayerCount: 2
Back
Fore
SplineSet
300 1750 m 0,0,1
 321 1750 321 1750 335.5 1735.5 c 128,-1,2
 350 1721 350 1721 350 1700 c 2,3,-1
 350 800 l 2,4,5
 350 779 350 779 335.5 764.5 c 128,-1,6
 321 750 321 750 300 750 c 128,-1,7
 279 750 279 750 264.5 764.5 c 128,-1,8
 250 779 250 779 250 800 c 2,9,-1
 250 1579 l 1,10,-1
 135 1465 l 2,11,12
 120 1450 120 1450 100 1450 c 0,13,14
 79 1450 79 1450 64.5 1464.5 c 128,-1,15
 50 1479 50 1479 50 1500 c 0,16,17
 50 1520 50 1520 65 1535 c 2,18,-1
 265 1735 l 2,19,20
 280 1750 280 1750 300 1750 c 0,0,1
EndSplineSet
EndChar

StartChar: ordmasculine
Encoding: 186 186 124
Width: 700
Flags: W
LayerCount: 2
Back
Fore
SplineSet
300 1400 m 2,0,-1
 400 1400 l 2,1,2
 482 1400 482 1400 541 1341 c 128,-1,3
 600 1282 600 1282 600 1200 c 2,4,-1
 600 900 l 2,5,6
 600 818 600 818 541 759 c 128,-1,7
 482 700 482 700 400 700 c 2,8,-1
 300 700 l 2,9,10
 218 700 218 700 159 759 c 128,-1,11
 100 818 100 818 100 900 c 2,12,-1
 100 1200 l 2,13,14
 100 1282 100 1282 159 1341 c 128,-1,15
 218 1400 218 1400 300 1400 c 2,0,-1
300 1300 m 2,16,17
 259 1300 259 1300 229.5 1270.5 c 128,-1,18
 200 1241 200 1241 200 1200 c 2,19,-1
 200 900 l 2,20,21
 200 859 200 859 229.5 829.5 c 128,-1,22
 259 800 259 800 300 800 c 2,23,-1
 400 800 l 2,24,25
 441 800 441 800 470.5 829.5 c 128,-1,26
 500 859 500 859 500 900 c 2,27,-1
 500 1200 l 2,28,29
 500 1241 500 1241 470.5 1270.5 c 128,-1,30
 441 1300 441 1300 400 1300 c 2,31,-1
 300 1300 l 2,16,17
EndSplineSet
EndChar

StartChar: guillemotright
Encoding: 187 187 125
Width: 850
Flags: W
LayerCount: 2
Back
Fore
SplineSet
450 900 m 0,0,1
 476 900 476 900 491 879 c 2,2,-1
 740 530 l 2,3,4
 750 516 750 516 750 500 c 256,5,6
 750 484 750 484 740 470 c 2,7,-1
 491 121 l 2,8,9
 476 100 476 100 450 100 c 0,10,11
 429 100 429 100 414.5 114.5 c 128,-1,12
 400 129 400 129 400 150 c 0,13,14
 400 166 400 166 409 179 c 2,15,-1
 639 500 l 1,16,-1
 409 821 l 2,17,18
 400 834 400 834 400 850 c 0,19,20
 400 871 400 871 414.5 885.5 c 128,-1,21
 429 900 429 900 450 900 c 0,0,1
150 900 m 0,22,23
 176 900 176 900 191 879 c 2,24,-1
 440 530 l 2,25,26
 450 516 450 516 450 500 c 256,27,28
 450 484 450 484 440 470 c 2,29,-1
 191 121 l 2,30,31
 176 100 176 100 150 100 c 0,32,33
 129 100 129 100 114.5 114.5 c 128,-1,34
 100 129 100 129 100 150 c 0,35,36
 100 166 100 166 109 179 c 2,37,-1
 339 500 l 1,38,-1
 109 821 l 2,39,40
 100 834 100 834 100 850 c 0,41,42
 100 871 100 871 114.5 885.5 c 128,-1,43
 129 900 129 900 150 900 c 0,22,23
EndSplineSet
EndChar

StartChar: AE
Encoding: 198 198 136
Width: 1330
Flags: W
LayerCount: 2
Back
Fore
SplineSet
450 1400 m 2,0,-1
 1200 1400 l 2,1,2
 1221 1400 1221 1400 1235.5 1385.5 c 128,-1,3
 1250 1371 1250 1371 1250 1350 c 128,-1,4
 1250 1329 1250 1329 1235.5 1314.5 c 128,-1,5
 1221 1300 1221 1300 1200 1300 c 2,6,-1
 750 1300 l 1,7,-1
 750 800 l 1,8,-1
 1000 800 l 2,9,10
 1021 800 1021 800 1035.5 785.5 c 128,-1,11
 1050 771 1050 771 1050 750 c 128,-1,12
 1050 729 1050 729 1035.5 714.5 c 128,-1,13
 1021 700 1021 700 1000 700 c 2,14,-1
 750 700 l 1,15,-1
 750 100 l 1,16,-1
 1200 100 l 2,17,18
 1221 100 1221 100 1235.5 85.5 c 128,-1,19
 1250 71 1250 71 1250 50 c 128,-1,20
 1250 29 1250 29 1235.5 14.5 c 128,-1,21
 1221 0 1221 0 1200 0 c 2,22,-1
 700 0 l 2,23,24
 679 0 679 0 664.5 14.5 c 128,-1,25
 650 29 650 29 650 50 c 2,26,-1
 650 400 l 1,27,-1
 246 400 l 1,28,-1
 148 37 l 2,29,30
 143 21 143 21 130 10.5 c 128,-1,31
 117 0 117 0 100 0 c 0,32,33
 79 0 79 0 64.5 14.5 c 128,-1,34
 50 29 50 29 50 50 c 0,35,36
 50 55 50 55 52 63 c 2,37,-1
 402 1363 l 2,38,39
 407 1379 407 1379 420 1389.5 c 128,-1,40
 433 1400 433 1400 450 1400 c 2,0,-1
488 1300 m 1,41,-1
 273 500 l 1,42,-1
 650 500 l 1,43,-1
 650 1300 l 1,44,-1
 488 1300 l 1,41,-1
EndSplineSet
EndChar

StartChar: Ccedilla
Encoding: 199 199 137
Width: 770
Flags: W
LayerCount: 2
Back
Fore
SplineSet
400 1400 m 2,0,-1
 650 1400 l 2,1,2
 671 1400 671 1400 685.5 1385.5 c 128,-1,3
 700 1371 700 1371 700 1350 c 128,-1,4
 700 1329 700 1329 685.5 1314.5 c 128,-1,5
 671 1300 671 1300 650 1300 c 2,6,-1
 400 1300 l 2,7,8
 318 1300 318 1300 259 1241 c 128,-1,9
 200 1182 200 1182 200 1100 c 2,10,-1
 200 300 l 2,11,12
 200 218 200 218 259 159 c 128,-1,13
 318 100 318 100 400 100 c 2,14,-1
 650 100 l 2,15,16
 671 100 671 100 685.5 85.5 c 128,-1,17
 700 71 700 71 700 50 c 128,-1,18
 700 29 700 29 685.5 14.5 c 128,-1,19
 671 0 671 0 650 0 c 2,20,-1
 481 0 l 1,21,-1
 395 -172 l 2,22,23
 381 -200 381 -200 350 -200 c 0,24,25
 329 -200 329 -200 314.5 -185.5 c 128,-1,26
 300 -171 300 -171 300 -150 c 0,27,28
 300 -140 300 -140 305 -128 c 2,29,-1
 370 2 l 1,30,31
 255 13 255 13 177.5 98.5 c 128,-1,32
 100 184 100 184 100 300 c 2,33,-1
 100 1100 l 2,34,35
 100 1224 100 1224 188 1312 c 128,-1,36
 276 1400 276 1400 400 1400 c 2,0,-1
EndSplineSet
EndChar

StartChar: multiply
Encoding: 215 215 152
Width: 700
Flags: W
LayerCount: 2
Back
Fore
SplineSet
100 800 m 256,0,1
 121 800 121 800 135 785 c 2,2,-1
 350 571 l 1,3,-1
 565 785 l 2,4,5
 579 800 579 800 600 800 c 256,6,7
 621 800 621 800 635.5 785.5 c 128,-1,8
 650 771 650 771 650 750 c 256,9,10
 650 729 650 729 635 715 c 2,11,-1
 421 500 l 1,12,-1
 635 285 l 2,13,14
 650 271 650 271 650 250 c 256,15,16
 650 229 650 229 635.5 214.5 c 128,-1,17
 621 200 621 200 600 200 c 256,18,19
 579 200 579 200 565 215 c 2,20,-1
 350 429 l 1,21,-1
 135 215 l 2,22,23
 121 200 121 200 100 200 c 256,24,25
 79 200 79 200 64.5 214.5 c 128,-1,26
 50 229 50 229 50 250 c 256,27,28
 50 271 50 271 65 285 c 2,29,-1
 279 500 l 1,30,-1
 65 715 l 2,31,32
 50 729 50 729 50 750 c 256,33,34
 50 771 50 771 64.5 785.5 c 128,-1,35
 79 800 79 800 100 800 c 256,0,1
EndSplineSet
EndChar

StartChar: Oslash
Encoding: 216 216 153
Width: 1000
Flags: W
LayerCount: 2
Back
Fore
SplineSet
450 1400 m 2,0,-1
 550 1400 l 2,1,2
 624 1400 624 1400 688.5 1366 c 128,-1,3
 753 1332 753 1332 794 1274 c 1,4,-1
 857 1376 l 2,5,6
 872 1400 872 1400 900 1400 c 0,7,8
 921 1400 921 1400 935.5 1385.5 c 128,-1,9
 950 1371 950 1371 950 1350 c 0,10,11
 950 1335 950 1335 943 1324 c 2,12,-1
 843 1163 l 1,13,14
 850 1128 850 1128 850 1100 c 2,15,-1
 850 300 l 2,16,17
 850 176 850 176 762 88 c 128,-1,18
 674 0 674 0 550 0 c 2,19,-1
 450 0 l 2,20,21
 376 0 376 0 311.5 34 c 128,-1,22
 247 68 247 68 206 126 c 1,23,-1
 143 24 l 2,24,25
 128 0 128 0 100 0 c 0,26,27
 79 0 79 0 64.5 14.5 c 128,-1,28
 50 29 50 29 50 50 c 0,29,30
 50 65 50 65 57 76 c 2,31,-1
 157 237 l 1,32,33
 150 272 150 272 150 300 c 2,34,-1
 150 1100 l 2,35,36
 150 1224 150 1224 238 1312 c 128,-1,37
 326 1400 326 1400 450 1400 c 2,0,-1
450 1300 m 2,38,39
 368 1300 368 1300 309 1241 c 128,-1,40
 250 1182 250 1182 250 1100 c 2,41,-1
 250 389 l 1,42,-1
 735 1177 l 1,43,44
 712 1232 712 1232 661.5 1266 c 128,-1,45
 611 1300 611 1300 550 1300 c 2,46,-1
 450 1300 l 2,38,39
750 1011 m 1,47,-1
 265 223 l 1,48,49
 288 168 288 168 338.5 134 c 128,-1,50
 389 100 389 100 450 100 c 2,51,-1
 550 100 l 2,52,53
 632 100 632 100 691 159 c 128,-1,54
 750 218 750 218 750 300 c 2,55,-1
 750 1011 l 1,47,-1
EndSplineSet
EndChar

StartChar: germandbls
Encoding: 223 223 159
Width: 900
Flags: W
LayerCount: 2
Back
Fore
SplineSet
400 1400 m 2,0,-1
 500 1400 l 2,1,2
 624 1400 624 1400 712 1312 c 128,-1,3
 800 1224 800 1224 800 1100 c 2,4,-1
 800 1050 l 2,5,6
 800 973 800 973 764 907 c 128,-1,7
 728 841 728 841 666 800 c 1,8,9
 728 759 728 759 764 693 c 128,-1,10
 800 627 800 627 800 550 c 2,11,-1
 800 300 l 2,12,13
 800 176 800 176 712 88 c 128,-1,14
 624 0 624 0 500 0 c 0,15,16
 479 0 479 0 464.5 14.5 c 128,-1,17
 450 29 450 29 450 50 c 128,-1,18
 450 71 450 71 464.5 85.5 c 128,-1,19
 479 100 479 100 500 100 c 0,20,21
 582 100 582 100 641 159 c 128,-1,22
 700 218 700 218 700 300 c 2,23,-1
 700 550 l 2,24,25
 700 632 700 632 641 691 c 128,-1,26
 582 750 582 750 500 750 c 0,27,28
 479 750 479 750 464.5 764.5 c 128,-1,29
 450 779 450 779 450 800 c 128,-1,30
 450 821 450 821 464.5 835.5 c 128,-1,31
 479 850 479 850 500 850 c 0,32,33
 582 850 582 850 641 909 c 128,-1,34
 700 968 700 968 700 1050 c 2,35,-1
 700 1100 l 2,36,37
 700 1182 700 1182 641 1241 c 128,-1,38
 582 1300 582 1300 500 1300 c 2,39,-1
 400 1300 l 2,40,41
 318 1300 318 1300 259 1241 c 128,-1,42
 200 1182 200 1182 200 1100 c 2,43,-1
 200 50 l 2,44,45
 200 29 200 29 185.5 14.5 c 128,-1,46
 171 0 171 0 150 0 c 128,-1,47
 129 0 129 0 114.5 14.5 c 128,-1,48
 100 29 100 29 100 50 c 2,49,-1
 100 1100 l 2,50,51
 100 1224 100 1224 188 1312 c 128,-1,52
 276 1400 276 1400 400 1400 c 2,0,-1
EndSplineSet
EndChar

StartChar: ae
Encoding: 230 230 166
Width: 1270
Flags: W
LayerCount: 2
Back
Fore
SplineSet
170 1000 m 2,0,-1
 470 1000 l 2,1,2
 560 1000 560 1000 620 932 c 1,3,4
 680 1000 680 1000 770 1000 c 2,5,-1
 970 1000 l 2,6,7
 1052 1000 1052 1000 1111 941 c 128,-1,8
 1170 882 1170 882 1170 800 c 2,9,-1
 1170 500 l 2,10,11
 1170 479 1170 479 1155.5 464.5 c 128,-1,12
 1141 450 1141 450 1120 450 c 2,13,-1
 670 450 l 1,14,-1
 670 200 l 2,15,16
 670 159 670 159 699.5 129.5 c 128,-1,17
 729 100 729 100 770 100 c 2,18,-1
 1120 100 l 2,19,20
 1141 100 1141 100 1155.5 85.5 c 128,-1,21
 1170 71 1170 71 1170 50 c 128,-1,22
 1170 29 1170 29 1155.5 14.5 c 128,-1,23
 1141 0 1141 0 1120 0 c 2,24,-1
 770 0 l 2,25,26
 680 0 680 0 620 68 c 1,27,28
 560 0 560 0 470 0 c 2,29,-1
 270 0 l 2,30,31
 188 0 188 0 129 59 c 128,-1,32
 70 118 70 118 70 200 c 2,33,-1
 70 350 l 2,34,35
 70 432 70 432 129 491 c 128,-1,36
 188 550 188 550 270 550 c 2,37,-1
 570 550 l 1,38,-1
 570 800 l 2,39,40
 570 841 570 841 540.5 870.5 c 128,-1,41
 511 900 511 900 470 900 c 2,42,-1
 170 900 l 2,43,44
 149 900 149 900 134.5 914.5 c 128,-1,45
 120 929 120 929 120 950 c 128,-1,46
 120 971 120 971 134.5 985.5 c 128,-1,47
 149 1000 149 1000 170 1000 c 2,0,-1
770 900 m 2,48,49
 729 900 729 900 699.5 870.5 c 128,-1,50
 670 841 670 841 670 800 c 2,51,-1
 670 550 l 1,52,-1
 1070 550 l 1,53,-1
 1070 800 l 2,54,55
 1070 841 1070 841 1040.5 870.5 c 128,-1,56
 1011 900 1011 900 970 900 c 2,57,-1
 770 900 l 2,48,49
270 450 m 2,58,59
 229 450 229 450 199.5 420.5 c 128,-1,60
 170 391 170 391 170 350 c 2,61,-1
 170 200 l 2,62,63
 170 159 170 159 199.5 129.5 c 128,-1,64
 229 100 229 100 270 100 c 2,65,-1
 470 100 l 2,66,67
 511 100 511 100 540.5 129.5 c 128,-1,68
 570 159 570 159 570 200 c 2,69,-1
 570 450 l 1,70,-1
 270 450 l 2,58,59
EndSplineSet
EndChar

StartChar: ccedilla
Encoding: 231 231 167
Width: 700
Flags: W
LayerCount: 2
Back
Fore
SplineSet
300 1000 m 2,0,-1
 550 1000 l 2,1,2
 571 1000 571 1000 585.5 985.5 c 128,-1,3
 600 971 600 971 600 950 c 128,-1,4
 600 929 600 929 585.5 914.5 c 128,-1,5
 571 900 571 900 550 900 c 2,6,-1
 300 900 l 2,7,8
 259 900 259 900 229.5 870.5 c 128,-1,9
 200 841 200 841 200 800 c 2,10,-1
 200 200 l 2,11,12
 200 159 200 159 229.5 129.5 c 128,-1,13
 259 100 259 100 300 100 c 2,14,-1
 550 100 l 2,15,16
 571 100 571 100 585.5 85.5 c 128,-1,17
 600 71 600 71 600 50 c 128,-1,18
 600 29 600 29 585.5 14.5 c 128,-1,19
 571 0 571 0 550 0 c 2,20,-1
 381 0 l 1,21,-1
 295 -172 l 2,22,23
 281 -200 281 -200 250 -200 c 0,24,25
 229 -200 229 -200 214.5 -185.5 c 128,-1,26
 200 -171 200 -171 200 -150 c 0,27,28
 200 -140 200 -140 205 -128 c 2,29,-1
 270 2 l 1,30,31
 198 13 198 13 149 69 c 128,-1,32
 100 125 100 125 100 200 c 2,33,-1
 100 800 l 2,34,35
 100 882 100 882 159 941 c 128,-1,36
 218 1000 218 1000 300 1000 c 2,0,-1
EndSplineSet
EndChar

StartChar: divide
Encoding: 247 247 182
Width: 700
Flags: W
LayerCount: 2
Back
Fore
SplineSet
100 550 m 2,0,-1
 600 550 l 2,1,2
 621 550 621 550 635.5 535.5 c 128,-1,3
 650 521 650 521 650 500 c 128,-1,4
 650 479 650 479 635.5 464.5 c 128,-1,5
 621 450 621 450 600 450 c 2,6,-1
 100 450 l 2,7,8
 79 450 79 450 64.5 464.5 c 128,-1,9
 50 479 50 479 50 500 c 128,-1,10
 50 521 50 521 64.5 535.5 c 128,-1,11
 79 550 79 550 100 550 c 2,0,-1
400 250 m 128,-1,13
 400 229 400 229 385.5 214.5 c 128,-1,14
 371 200 371 200 350 200 c 128,-1,15
 329 200 329 200 314.5 214.5 c 128,-1,16
 300 229 300 229 300 250 c 128,-1,17
 300 271 300 271 314.5 285.5 c 128,-1,18
 329 300 329 300 350 300 c 128,-1,19
 371 300 371 300 385.5 285.5 c 128,-1,12
 400 271 400 271 400 250 c 128,-1,13
400 750 m 128,-1,21
 400 729 400 729 385.5 714.5 c 128,-1,22
 371 700 371 700 350 700 c 128,-1,23
 329 700 329 700 314.5 714.5 c 128,-1,24
 300 729 300 729 300 750 c 128,-1,25
 300 771 300 771 314.5 785.5 c 128,-1,26
 329 800 329 800 350 800 c 128,-1,27
 371 800 371 800 385.5 785.5 c 128,-1,20
 400 771 400 771 400 750 c 128,-1,21
EndSplineSet
EndChar

StartChar: oslash
Encoding: 248 248 183
Width: 900
Flags: W
LayerCount: 2
Back
Fore
SplineSet
350 1000 m 2,0,-1
 550 1000 l 2,1,2
 599 1000 599 1000 642 978 c 128,-1,3
 685 956 685 956 712 918 c 1,4,-1
 761 981 l 2,5,6
 775 1000 775 1000 800 1000 c 0,7,8
 821 1000 821 1000 835.5 985.5 c 128,-1,9
 850 971 850 971 850 950 c 0,10,11
 850 932 850 932 839 919 c 2,12,-1
 750 804 l 1,13,-1
 750 800 l 1,14,-1
 750 200 l 2,15,16
 750 118 750 118 691 59 c 128,-1,17
 632 0 632 0 550 0 c 2,18,-1
 350 0 l 2,19,20
 301 0 301 0 258 22 c 128,-1,21
 215 44 215 44 188 82 c 1,22,-1
 139 19 l 2,23,24
 125 0 125 0 100 0 c 0,25,26
 79 0 79 0 64.5 14.5 c 128,-1,27
 50 29 50 29 50 50 c 0,28,29
 50 68 50 68 61 81 c 2,30,-1
 150 196 l 1,31,-1
 150 200 l 1,32,-1
 150 800 l 2,33,34
 150 882 150 882 209 941 c 128,-1,35
 268 1000 268 1000 350 1000 c 2,0,-1
350 900 m 2,36,37
 309 900 309 900 279.5 870.5 c 128,-1,38
 250 841 250 841 250 800 c 2,39,-1
 250 324 l 1,40,-1
 645 832 l 1,41,42
 635 862 635 862 609 881 c 128,-1,43
 583 900 583 900 550 900 c 2,44,-1
 350 900 l 2,36,37
650 676 m 1,45,-1
 255 168 l 1,46,47
 265 138 265 138 291 119 c 128,-1,48
 317 100 317 100 350 100 c 2,49,-1
 550 100 l 2,50,51
 591 100 591 100 620.5 129.5 c 128,-1,52
 650 159 650 159 650 200 c 2,53,-1
 650 676 l 1,45,-1
EndSplineSet
EndChar

StartChar: dotlessi
Encoding: 305 305 190
Width: 300
Flags: W
LayerCount: 2
Back
Fore
SplineSet
150 1000 m 128,-1,1
 171 1000 171 1000 185.5 985.5 c 128,-1,2
 200 971 200 971 200 950 c 2,3,-1
 200 50 l 2,4,5
 200 29 200 29 185.5 14.5 c 128,-1,6
 171 0 171 0 150 0 c 128,-1,7
 129 0 129 0 114.5 14.5 c 128,-1,8
 100 29 100 29 100 50 c 2,9,-1
 100 950 l 2,10,11
 100 971 100 971 114.5 985.5 c 128,-1,0
 129 1000 129 1000 150 1000 c 128,-1,1
EndSplineSet
EndChar

StartChar: circumflex
Encoding: 710 710 191
Width: 500
Flags: W
LayerCount: 2
Back
Fore
SplineSet
250 1400 m 128,-1,1
 270 1400 270 1400 285 1385 c 2,2,-1
 385 1285 l 2,3,4
 400 1270 400 1270 400 1250 c 0,5,6
 400 1229 400 1229 385.5 1214.5 c 128,-1,7
 371 1200 371 1200 350 1200 c 0,8,9
 330 1200 330 1200 315 1215 c 2,10,-1
 250 1279 l 1,11,-1
 185 1215 l 2,12,13
 170 1200 170 1200 150 1200 c 0,14,15
 129 1200 129 1200 114.5 1214.5 c 128,-1,16
 100 1229 100 1229 100 1250 c 0,17,18
 100 1270 100 1270 115 1285 c 2,19,-1
 215 1385 l 2,20,0
 230 1400 230 1400 250 1400 c 128,-1,1
EndSplineSet
EndChar

StartChar: caron
Encoding: 711 711 192
Width: 500
Flags: W
LayerCount: 2
Back
Fore
SplineSet
250 1200 m 128,-1,1
 230 1200 230 1200 215 1215 c 2,2,-1
 115 1315 l 2,3,4
 100 1330 100 1330 100 1350 c 0,5,6
 100 1371 100 1371 114.5 1385.5 c 128,-1,7
 129 1400 129 1400 150 1400 c 0,8,9
 170 1400 170 1400 185 1385 c 2,10,-1
 250 1321 l 1,11,-1
 315 1385 l 2,12,13
 330 1400 330 1400 350 1400 c 0,14,15
 371 1400 371 1400 385.5 1385.5 c 128,-1,16
 400 1371 400 1371 400 1350 c 0,17,18
 400 1330 400 1330 385 1315 c 2,19,-1
 285 1215 l 2,20,0
 270 1200 270 1200 250 1200 c 128,-1,1
EndSplineSet
EndChar

StartChar: breve
Encoding: 728 728 193
Width: 500
Flags: W
LayerCount: 2
Back
Fore
SplineSet
150 1400 m 128,-1,1
 171 1400 171 1400 185.5 1385.5 c 128,-1,2
 200 1371 200 1371 200 1350 c 128,-1,3
 200 1329 200 1329 214.5 1314.5 c 128,-1,4
 229 1300 229 1300 250 1300 c 128,-1,5
 271 1300 271 1300 285.5 1314.5 c 128,-1,6
 300 1329 300 1329 300 1350 c 128,-1,7
 300 1371 300 1371 314.5 1385.5 c 128,-1,8
 329 1400 329 1400 350 1400 c 128,-1,9
 371 1400 371 1400 385.5 1385.5 c 128,-1,10
 400 1371 400 1371 400 1350 c 0,11,12
 400 1288 400 1288 356 1244 c 128,-1,13
 312 1200 312 1200 250 1200 c 128,-1,14
 188 1200 188 1200 144 1244 c 128,-1,15
 100 1288 100 1288 100 1350 c 0,16,17
 100 1371 100 1371 114.5 1385.5 c 128,-1,0
 129 1400 129 1400 150 1400 c 128,-1,1
EndSplineSet
EndChar

StartChar: ring
Encoding: 730 730 195
Width: 500
Flags: W
LayerCount: 2
Back
Fore
SplineSet
250 1400 m 128,-1,1
 312 1400 312 1400 356 1356 c 128,-1,2
 400 1312 400 1312 400 1250 c 128,-1,3
 400 1188 400 1188 356 1144 c 128,-1,4
 312 1100 312 1100 250 1100 c 128,-1,5
 188 1100 188 1100 144 1144 c 128,-1,6
 100 1188 100 1188 100 1250 c 128,-1,7
 100 1312 100 1312 144 1356 c 128,-1,0
 188 1400 188 1400 250 1400 c 128,-1,1
250 1300 m 128,-1,9
 229 1300 229 1300 214.5 1285.5 c 128,-1,10
 200 1271 200 1271 200 1250 c 128,-1,11
 200 1229 200 1229 214.5 1214.5 c 128,-1,12
 229 1200 229 1200 250 1200 c 128,-1,13
 271 1200 271 1200 285.5 1214.5 c 128,-1,14
 300 1229 300 1229 300 1250 c 128,-1,15
 300 1271 300 1271 285.5 1285.5 c 128,-1,8
 271 1300 271 1300 250 1300 c 128,-1,9
EndSplineSet
EndChar

StartChar: tilde
Encoding: 732 732 196
Width: 600
Flags: W
LayerCount: 2
Back
Fore
SplineSet
225 1400 m 0,0,1
 282 1400 282 1400 330 1365 c 0,2,3
 350 1350 350 1350 375 1350 c 128,-1,4
 400 1350 400 1350 420 1365 c 0,5,6
 433 1375 433 1375 450 1375 c 0,7,8
 471 1375 471 1375 485.5 1360.5 c 128,-1,9
 500 1346 500 1346 500 1325 c 0,10,11
 500 1297 500 1297 478 1283 c 0,12,13
 432 1250 432 1250 375 1250 c 128,-1,14
 318 1250 318 1250 270 1285 c 0,15,16
 250 1300 250 1300 225 1300 c 128,-1,17
 200 1300 200 1300 180 1285 c 0,18,19
 167 1275 167 1275 150 1275 c 0,20,21
 129 1275 129 1275 114.5 1289.5 c 128,-1,22
 100 1304 100 1304 100 1325 c 0,23,24
 100 1352 100 1352 123 1367 c 0,25,26
 172 1400 172 1400 225 1400 c 0,0,1
EndSplineSet
EndChar

StartChar: Delta
Encoding: 916 916 201
Width: 900
Flags: W
LayerCount: 2
Back
Fore
SplineSet
450 1400 m 128,-1,1
 467 1400 467 1400 480.5 1389.5 c 128,-1,2
 494 1379 494 1379 499 1362 c 2,3,-1
 848 63 l 2,4,5
 850 55 850 55 850 50 c 0,6,7
 850 29 850 29 835.5 14.5 c 128,-1,8
 821 0 821 0 800 0 c 2,9,-1
 100 0 l 2,10,11
 79 0 79 0 64.5 14.5 c 128,-1,12
 50 29 50 29 50 50 c 0,13,14
 50 55 50 55 52 63 c 2,15,-1
 401 1362 l 2,16,17
 406 1379 406 1379 419.5 1389.5 c 128,-1,0
 433 1400 433 1400 450 1400 c 128,-1,1
450 1158 m 1,18,-1
 165 100 l 1,19,-1
 735 100 l 1,20,-1
 450 1158 l 1,18,-1
EndSplineSet
EndChar

StartChar: Theta
Encoding: 920 920 205
Width: 880
Flags: W
LayerCount: 2
Back
Fore
SplineSet
340 800 m 2,0,-1
 540 800 l 2,1,2
 561 800 561 800 575.5 785.5 c 128,-1,3
 590 771 590 771 590 750 c 128,-1,4
 590 729 590 729 575.5 714.5 c 128,-1,5
 561 700 561 700 540 700 c 2,6,-1
 340 700 l 2,7,8
 319 700 319 700 304.5 714.5 c 128,-1,9
 290 729 290 729 290 750 c 128,-1,10
 290 771 290 771 304.5 785.5 c 128,-1,11
 319 800 319 800 340 800 c 2,0,-1
440 1430 m 128,-1,13
 585 1430 585 1430 687.5 1327.5 c 128,-1,14
 790 1225 790 1225 790 1080 c 2,15,-1
 790 320 l 2,16,17
 790 175 790 175 687.5 72.5 c 128,-1,18
 585 -30 585 -30 440 -30 c 128,-1,19
 295 -30 295 -30 192.5 72.5 c 128,-1,20
 90 175 90 175 90 320 c 2,21,-1
 90 1080 l 2,22,23
 90 1225 90 1225 192.5 1327.5 c 128,-1,12
 295 1430 295 1430 440 1430 c 128,-1,13
440 1330 m 128,-1,25
 336 1330 336 1330 263 1257 c 128,-1,26
 190 1184 190 1184 190 1080 c 2,27,-1
 190 320 l 2,28,29
 190 216 190 216 263 143 c 128,-1,30
 336 70 336 70 440 70 c 128,-1,31
 544 70 544 70 617 143 c 128,-1,32
 690 216 690 216 690 320 c 2,33,-1
 690 1080 l 2,34,35
 690 1184 690 1184 617 1257 c 128,-1,24
 544 1330 544 1330 440 1330 c 128,-1,25
EndSplineSet
EndChar

StartChar: Lambda
Encoding: 923 923 208
Width: 900
Flags: W
LayerCount: 2
Back
Fore
SplineSet
450 1400 m 128,-1,1
 467 1400 467 1400 480.5 1389.5 c 128,-1,2
 494 1379 494 1379 499 1362 c 2,3,-1
 848 63 l 2,4,5
 850 55 850 55 850 50 c 0,6,7
 850 29 850 29 835.5 14.5 c 128,-1,8
 821 0 821 0 800 0 c 0,9,10
 783 0 783 0 770 10.5 c 128,-1,11
 757 21 757 21 752 37 c 2,12,-1
 450 1158 l 1,13,-1
 148 37 l 2,14,15
 143 21 143 21 130 10.5 c 128,-1,16
 117 0 117 0 100 0 c 0,17,18
 79 0 79 0 64.5 14.5 c 128,-1,19
 50 29 50 29 50 50 c 0,20,21
 50 55 50 55 52 63 c 2,22,-1
 402 1363 l 2,23,24
 407 1379 407 1379 420 1389.5 c 128,-1,0
 433 1400 433 1400 450 1400 c 128,-1,1
EndSplineSet
EndChar

StartChar: Xi
Encoding: 926 926 211
Width: 840
Flags: W
LayerCount: 2
Back
Fore
SplineSet
120 100 m 2,0,-1
 720 100 l 2,1,2
 741 100 741 100 755.5 85.5 c 128,-1,3
 770 71 770 71 770 50 c 128,-1,4
 770 29 770 29 755.5 14.5 c 128,-1,5
 741 0 741 0 720 0 c 2,6,-1
 120 0 l 2,7,8
 99 0 99 0 84.5 14.5 c 128,-1,9
 70 29 70 29 70 50 c 128,-1,10
 70 71 70 71 84.5 85.5 c 128,-1,11
 99 100 99 100 120 100 c 2,0,-1
270 800 m 2,12,-1
 570 800 l 2,13,14
 591 800 591 800 605.5 785.5 c 128,-1,15
 620 771 620 771 620 750 c 128,-1,16
 620 729 620 729 605.5 714.5 c 128,-1,17
 591 700 591 700 570 700 c 2,18,-1
 270 700 l 2,19,20
 249 700 249 700 234.5 714.5 c 128,-1,21
 220 729 220 729 220 750 c 128,-1,22
 220 771 220 771 234.5 785.5 c 128,-1,23
 249 800 249 800 270 800 c 2,12,-1
120 1400 m 2,24,-1
 720 1400 l 2,25,26
 741 1400 741 1400 755.5 1385.5 c 128,-1,27
 770 1371 770 1371 770 1350 c 128,-1,28
 770 1329 770 1329 755.5 1314.5 c 128,-1,29
 741 1300 741 1300 720 1300 c 2,30,-1
 120 1300 l 2,31,32
 99 1300 99 1300 84.5 1314.5 c 128,-1,33
 70 1329 70 1329 70 1350 c 128,-1,34
 70 1371 70 1371 84.5 1385.5 c 128,-1,35
 99 1400 99 1400 120 1400 c 2,24,-1
EndSplineSet
EndChar

StartChar: Sigma
Encoding: 931 931 215
Width: 870
Flags: W
LayerCount: 2
Back
Fore
SplineSet
140 1400 m 2,0,-1
 740 1400 l 2,1,2
 761 1400 761 1400 775.5 1385.5 c 128,-1,3
 790 1371 790 1371 790 1350 c 128,-1,4
 790 1329 790 1329 775.5 1314.5 c 128,-1,5
 761 1300 761 1300 740 1300 c 2,6,-1
 218 1300 l 1,7,-1
 485 721 l 2,8,9
 490 711 490 711 490 700 c 128,-1,10
 490 689 490 689 485 679 c 2,11,-1
 218 100 l 1,12,-1
 740 100 l 2,13,14
 761 100 761 100 775.5 85.5 c 128,-1,15
 790 71 790 71 790 50 c 128,-1,16
 790 29 790 29 775.5 14.5 c 128,-1,17
 761 0 761 0 740 0 c 2,18,-1
 140 0 l 2,19,20
 119 0 119 0 104.5 14.5 c 128,-1,21
 90 29 90 29 90 50 c 0,22,23
 90 61 90 61 95 71 c 2,24,-1
 385 700 l 1,25,-1
 95 1329 l 2,26,27
 90 1339 90 1339 90 1350 c 0,28,29
 90 1371 90 1371 104.5 1385.5 c 128,-1,30
 119 1400 119 1400 140 1400 c 2,0,-1
EndSplineSet
EndChar

StartChar: Phi
Encoding: 934 934 218
Width: 940
Flags: W
LayerCount: 2
Back
Fore
SplineSet
470 1400 m 128,-1,1
 491 1400 491 1400 505.5 1385.5 c 128,-1,2
 520 1371 520 1371 520 1350 c 2,3,-1
 520 1197 l 1,4,5
 669 1178 669 1178 769.5 1065 c 128,-1,6
 870 952 870 952 870 800 c 2,7,-1
 870 600 l 2,8,9
 870 448 870 448 769.5 335 c 128,-1,10
 669 222 669 222 520 203 c 1,11,-1
 520 50 l 2,12,13
 520 29 520 29 505.5 14.5 c 128,-1,14
 491 0 491 0 470 0 c 128,-1,15
 449 0 449 0 434.5 14.5 c 128,-1,16
 420 29 420 29 420 50 c 2,17,-1
 420 203 l 1,18,19
 271 222 271 222 170.5 335 c 128,-1,20
 70 448 70 448 70 600 c 2,21,-1
 70 800 l 2,22,23
 70 952 70 952 170.5 1065 c 128,-1,24
 271 1178 271 1178 420 1197 c 1,25,-1
 420 1350 l 2,26,27
 420 1371 420 1371 434.5 1385.5 c 128,-1,0
 449 1400 449 1400 470 1400 c 128,-1,1
420 1096 m 1,28,29
 313 1078 313 1078 241.5 994.5 c 128,-1,30
 170 911 170 911 170 800 c 2,31,-1
 170 600 l 2,32,33
 170 489 170 489 241.5 405.5 c 128,-1,34
 313 322 313 322 420 304 c 1,35,-1
 420 1096 l 1,28,29
520 1096 m 1,36,-1
 520 304 l 1,37,38
 627 322 627 322 698.5 405.5 c 128,-1,39
 770 489 770 489 770 600 c 2,40,-1
 770 800 l 2,41,42
 770 911 770 911 698.5 994.5 c 128,-1,43
 627 1078 627 1078 520 1096 c 1,36,-1
EndSplineSet
EndChar

StartChar: Psi
Encoding: 936 936 220
Width: 980
Flags: W
LayerCount: 2
Back
Fore
SplineSet
140 1400 m 128,-1,1
 161 1400 161 1400 175.5 1385.5 c 128,-1,2
 190 1371 190 1371 190 1350 c 2,3,-1
 190 800 l 2,4,5
 190 689 190 689 261.5 605.5 c 128,-1,6
 333 522 333 522 440 504 c 1,7,-1
 440 1350 l 2,8,9
 440 1371 440 1371 454.5 1385.5 c 128,-1,10
 469 1400 469 1400 490 1400 c 128,-1,11
 511 1400 511 1400 525.5 1385.5 c 128,-1,12
 540 1371 540 1371 540 1350 c 2,13,-1
 540 504 l 1,14,15
 647 522 647 522 718.5 605.5 c 128,-1,16
 790 689 790 689 790 800 c 2,17,-1
 790 1350 l 2,18,19
 790 1371 790 1371 804.5 1385.5 c 128,-1,20
 819 1400 819 1400 840 1400 c 128,-1,21
 861 1400 861 1400 875.5 1385.5 c 128,-1,22
 890 1371 890 1371 890 1350 c 2,23,-1
 890 800 l 2,24,25
 890 648 890 648 789.5 535 c 128,-1,26
 689 422 689 422 540 403 c 1,27,-1
 540 50 l 2,28,29
 540 29 540 29 525.5 14.5 c 128,-1,30
 511 0 511 0 490 0 c 128,-1,31
 469 0 469 0 454.5 14.5 c 128,-1,32
 440 29 440 29 440 50 c 2,33,-1
 440 403 l 1,34,35
 291 422 291 422 190.5 535 c 128,-1,36
 90 648 90 648 90 800 c 2,37,-1
 90 1350 l 2,38,39
 90 1371 90 1371 104.5 1385.5 c 128,-1,0
 119 1400 119 1400 140 1400 c 128,-1,1
EndSplineSet
EndChar

StartChar: Omega
Encoding: 937 937 221
Width: 980
Flags: W
LayerCount: 2
Back
Fore
SplineSet
490 1430 m 128,-1,1
 656 1430 656 1430 773 1313 c 128,-1,2
 890 1196 890 1196 890 1030 c 2,3,-1
 890 550 l 2,4,5
 890 439 890 439 818.5 355.5 c 128,-1,6
 747 272 747 272 640 254 c 1,7,-1
 640 100 l 1,8,-1
 740 100 l 2,9,10
 761 100 761 100 775.5 85.5 c 128,-1,11
 790 71 790 71 790 50 c 128,-1,12
 790 29 790 29 775.5 14.5 c 128,-1,13
 761 0 761 0 740 0 c 2,14,-1
 590 0 l 2,15,16
 569 0 569 0 554.5 14.5 c 128,-1,17
 540 29 540 29 540 50 c 2,18,-1
 540 300 l 2,19,20
 540 321 540 321 554.5 335.5 c 128,-1,21
 569 350 569 350 590 350 c 0,22,23
 672 350 672 350 731 409 c 128,-1,24
 790 468 790 468 790 550 c 2,25,-1
 790 1030 l 2,26,27
 790 1154 790 1154 702 1242 c 128,-1,28
 614 1330 614 1330 490 1330 c 128,-1,29
 366 1330 366 1330 278 1242 c 128,-1,30
 190 1154 190 1154 190 1030 c 2,31,-1
 190 550 l 2,32,33
 190 468 190 468 249 409 c 128,-1,34
 308 350 308 350 390 350 c 0,35,36
 411 350 411 350 425.5 335.5 c 128,-1,37
 440 321 440 321 440 300 c 2,38,-1
 440 50 l 2,39,40
 440 29 440 29 425.5 14.5 c 128,-1,41
 411 0 411 0 390 0 c 2,42,-1
 240 0 l 2,43,44
 219 0 219 0 204.5 14.5 c 128,-1,45
 190 29 190 29 190 50 c 128,-1,46
 190 71 190 71 204.5 85.5 c 128,-1,47
 219 100 219 100 240 100 c 2,48,-1
 340 100 l 1,49,-1
 340 254 l 1,50,51
 233 272 233 272 161.5 355.5 c 128,-1,52
 90 439 90 439 90 550 c 2,53,-1
 90 1030 l 2,54,55
 90 1196 90 1196 207 1313 c 128,-1,0
 324 1430 324 1430 490 1430 c 128,-1,1
EndSplineSet
EndChar

StartChar: alpha
Encoding: 945 945 222
Width: 870
Flags: W
LayerCount: 2
Back
Fore
SplineSet
340 1020 m 0,0,1
 426 1020 426 1020 493 968 c 128,-1,2
 560 916 560 916 582 835 c 2,3,-1
 619 693 l 1,4,-1
 692 963 l 2,5,6
 697 979 697 979 710 989.5 c 128,-1,7
 723 1000 723 1000 740 1000 c 0,8,9
 761 1000 761 1000 775.5 985.5 c 128,-1,10
 790 971 790 971 790 950 c 0,11,12
 790 945 790 945 788 937 c 2,13,-1
 671 500 l 1,14,-1
 775 112 l 2,15,16
 779 100 779 100 790 100 c 0,17,18
 811 100 811 100 825.5 85.5 c 128,-1,19
 840 71 840 71 840 50 c 128,-1,20
 840 29 840 29 825.5 14.5 c 128,-1,21
 811 0 811 0 790 0 c 2,22,-1
 780 0 l 2,23,24
 741 0 741 0 714.5 25 c 128,-1,25
 688 50 688 50 678 90 c 2,26,-1
 619 307 l 1,27,-1
 582 165 l 2,28,29
 560 84 560 84 493 32 c 128,-1,30
 426 -20 426 -20 340 -20 c 0,31,32
 236 -20 236 -20 163 53 c 128,-1,33
 90 126 90 126 90 230 c 2,34,-1
 90 770 l 2,35,36
 90 874 90 874 163 947 c 128,-1,37
 236 1020 236 1020 340 1020 c 0,0,1
340 920 m 0,38,39
 278 920 278 920 234 876 c 128,-1,40
 190 832 190 832 190 770 c 2,41,-1
 190 230 l 2,42,43
 190 168 190 168 234 124 c 128,-1,44
 278 80 278 80 340 80 c 0,45,46
 391 80 391 80 431.5 111.5 c 128,-1,47
 472 143 472 143 485 191 c 2,48,-1
 568 500 l 1,49,-1
 485 809 l 2,50,51
 472 857 472 857 431.5 888.5 c 128,-1,52
 391 920 391 920 340 920 c 0,38,39
EndSplineSet
EndChar

StartChar: beta
Encoding: 946 946 223
Width: 790
Flags: W
LayerCount: 2
Back
Fore
SplineSet
375 1420 m 128,-1,1
 489 1420 489 1420 569.5 1339.5 c 128,-1,2
 650 1259 650 1259 650 1145 c 2,3,-1
 650 1075 l 2,4,5
 650 1012 650 1012 622.5 955.5 c 128,-1,6
 595 899 595 899 548 861 c 1,7,8
 617 821 617 821 658.5 752 c 128,-1,9
 700 683 700 683 700 600 c 2,10,-1
 700 300 l 2,11,12
 700 176 700 176 612 88 c 128,-1,13
 524 0 524 0 400 0 c 2,14,-1
 350 0 l 2,15,16
 329 0 329 0 314.5 14.5 c 128,-1,17
 300 29 300 29 300 50 c 128,-1,18
 300 71 300 71 314.5 85.5 c 128,-1,19
 329 100 329 100 350 100 c 2,20,-1
 400 100 l 2,21,22
 482 100 482 100 541 159 c 128,-1,23
 600 218 600 218 600 300 c 2,24,-1
 600 600 l 2,25,26
 600 682 600 682 541 741 c 128,-1,27
 482 800 482 800 400 800 c 2,28,-1
 350 800 l 2,29,30
 329 800 329 800 314.5 814.5 c 128,-1,31
 300 829 300 829 300 850 c 128,-1,32
 300 871 300 871 314.5 885.5 c 128,-1,33
 329 900 329 900 350 900 c 2,34,-1
 375 900 l 2,35,36
 448 900 448 900 499 951 c 128,-1,37
 550 1002 550 1002 550 1075 c 2,38,-1
 550 1145 l 2,39,40
 550 1218 550 1218 499 1269 c 128,-1,41
 448 1320 448 1320 375 1320 c 128,-1,42
 302 1320 302 1320 251 1269 c 128,-1,43
 200 1218 200 1218 200 1145 c 2,44,-1
 200 -350 l 2,45,46
 200 -371 200 -371 185.5 -385.5 c 128,-1,47
 171 -400 171 -400 150 -400 c 128,-1,48
 129 -400 129 -400 114.5 -385.5 c 128,-1,49
 100 -371 100 -371 100 -350 c 2,50,-1
 100 1145 l 2,51,52
 100 1259 100 1259 180.5 1339.5 c 128,-1,0
 261 1420 261 1420 375 1420 c 128,-1,1
EndSplineSet
EndChar

StartChar: gamma
Encoding: 947 947 224
Width: 690
Flags: W
LayerCount: 2
Back
Fore
SplineSet
90 1000 m 0,0,1
 223 1000 223 1000 316 837 c 0,2,3
 354 770 354 770 391 666 c 1,4,5
 453 838 453 838 548 977 c 0,6,7
 563 1000 563 1000 590 1000 c 0,8,9
 611 1000 611 1000 625.5 985.5 c 128,-1,10
 640 971 640 971 640 950 c 0,11,12
 640 934 640 934 631 921 c 0,13,14
 516 755 516 755 442 499 c 1,15,16
 462 419 462 419 476 290 c 128,-1,17
 490 161 490 161 490 50 c 0,18,19
 490 -174 490 -174 484 -248 c 0,20,21
 477 -311 477 -311 466 -341 c 0,22,23
 454 -367 454 -367 441 -379 c 0,24,25
 420 -400 420 -400 390 -400 c 128,-1,26
 360 -400 360 -400 339 -379 c 0,27,28
 325 -366 325 -366 314 -340 c 0,29,30
 303 -312 303 -312 296 -248 c 0,31,32
 290 -174 290 -174 290 50 c 0,33,34
 290 162 290 162 304 291 c 128,-1,35
 318 420 318 420 338 499 c 1,36,37
 282 696 282 696 229 787 c 0,38,39
 164 900 164 900 90 900 c 0,40,41
 69 900 69 900 54.5 914.5 c 128,-1,42
 40 929 40 929 40 950 c 128,-1,43
 40 971 40 971 54.5 985.5 c 128,-1,44
 69 1000 69 1000 90 1000 c 0,0,1
EndSplineSet
EndChar

StartChar: delta
Encoding: 948 948 225
Width: 780
Flags: W
LayerCount: 2
Back
Fore
SplineSet
370 1420 m 0,0,1
 475 1420 475 1420 572 1338 c 0,2,3
 590 1323 590 1323 590 1300 c 0,4,5
 590 1279 590 1279 575.5 1264.5 c 128,-1,6
 561 1250 561 1250 540 1250 c 0,7,8
 523 1250 523 1250 508 1262 c 0,9,10
 467 1295 467 1295 437 1307.5 c 128,-1,11
 407 1320 407 1320 370 1320 c 0,12,13
 321 1320 321 1320 302 1303 c 0,14,15
 290 1292 290 1292 290 1270 c 0,16,17
 290 1241 290 1241 311 1220 c 2,18,-1
 601 933 l 2,19,20
 690 846 690 846 690 720 c 2,21,-1
 690 280 l 2,22,23
 690 156 690 156 602 68 c 128,-1,24
 514 -20 514 -20 390 -20 c 128,-1,25
 266 -20 266 -20 178 68 c 128,-1,26
 90 156 90 156 90 280 c 2,27,-1
 90 720 l 2,28,29
 90 840 90 840 172 926 c 128,-1,30
 254 1012 254 1012 372 1019 c 1,31,-1
 240 1149 l 2,32,33
 190 1199 190 1199 190 1270 c 0,34,35
 190 1336 190 1336 236 1378 c 128,-1,36
 282 1420 282 1420 370 1420 c 0,0,1
390 920 m 128,-1,38
 308 920 308 920 249 861 c 128,-1,39
 190 802 190 802 190 720 c 2,40,-1
 190 280 l 2,41,42
 190 198 190 198 249 139 c 128,-1,43
 308 80 308 80 390 80 c 128,-1,44
 472 80 472 80 531 139 c 128,-1,45
 590 198 590 198 590 280 c 2,46,-1
 590 720 l 2,47,48
 590 802 590 802 531 861 c 128,-1,37
 472 920 472 920 390 920 c 128,-1,38
EndSplineSet
EndChar

StartChar: epsilon
Encoding: 949 949 226
Width: 770
Flags: W
LayerCount: 2
Back
Fore
SplineSet
375 1020 m 0,0,1
 459 1020 459 1020 519 1008 c 128,-1,2
 579 996 579 996 642 965 c 0,3,4
 670 951 670 951 670 920 c 0,5,6
 670 899 670 899 655.5 884.5 c 128,-1,7
 641 870 641 870 620 870 c 0,8,9
 610 870 610 870 598 875 c 0,10,11
 544 902 544 902 498.5 911 c 128,-1,12
 453 920 453 920 375 920 c 0,13,14
 298 920 298 920 244 866 c 128,-1,15
 190 812 190 812 190 735 c 128,-1,16
 190 658 190 658 244 604 c 128,-1,17
 298 550 298 550 375 550 c 2,18,-1
 440 550 l 2,19,20
 461 550 461 550 475.5 535.5 c 128,-1,21
 490 521 490 521 490 500 c 128,-1,22
 490 479 490 479 475.5 464.5 c 128,-1,23
 461 450 461 450 440 450 c 2,24,-1
 375 450 l 2,25,26
 298 450 298 450 244 396 c 128,-1,27
 190 342 190 342 190 265 c 128,-1,28
 190 188 190 188 244 134 c 128,-1,29
 298 80 298 80 375 80 c 0,30,31
 458 80 458 80 502.5 88.5 c 128,-1,32
 547 97 547 97 621 126 c 0,33,34
 633 130 633 130 640 130 c 0,35,36
 661 130 661 130 675.5 115.5 c 128,-1,37
 690 101 690 101 690 80 c 0,38,39
 690 46 690 46 659 34 c 0,40,41
 581 3 581 3 521.5 -8.5 c 128,-1,42
 462 -20 462 -20 375 -20 c 0,43,44
 257 -20 257 -20 173.5 63.5 c 128,-1,45
 90 147 90 147 90 265 c 0,46,47
 90 337 90 337 123.5 399 c 128,-1,48
 157 461 157 461 214 500 c 1,49,50
 157 539 157 539 123.5 601 c 128,-1,51
 90 663 90 663 90 735 c 0,52,53
 90 853 90 853 173.5 936.5 c 128,-1,54
 257 1020 257 1020 375 1020 c 0,0,1
EndSplineSet
EndChar

StartChar: zeta
Encoding: 950 950 227
Width: 710
Flags: W
LayerCount: 2
Back
Fore
SplineSet
130 1400 m 128,-1,1
 151 1400 151 1400 165.5 1385.5 c 128,-1,2
 180 1371 180 1371 180 1350 c 0,3,4
 180 1288 180 1288 224 1244 c 128,-1,5
 268 1200 268 1200 330 1200 c 2,6,-1
 580 1200 l 2,7,8
 601 1200 601 1200 615.5 1185.5 c 128,-1,9
 630 1171 630 1171 630 1150 c 0,10,11
 630 1124 630 1124 608 1109 c 0,12,13
 403 964 403 964 291.5 746.5 c 128,-1,14
 180 529 180 529 180 300 c 0,15,16
 180 218 180 218 239 159 c 128,-1,17
 298 100 298 100 380 100 c 2,18,-1
 430 100 l 2,19,20
 534 100 534 100 607 27 c 128,-1,21
 680 -46 680 -46 680 -150 c 128,-1,22
 680 -254 680 -254 607 -327 c 128,-1,23
 534 -400 534 -400 430 -400 c 2,24,-1
 230 -400 l 2,25,26
 209 -400 209 -400 194.5 -385.5 c 128,-1,27
 180 -371 180 -371 180 -350 c 128,-1,28
 180 -329 180 -329 194.5 -314.5 c 128,-1,29
 209 -300 209 -300 230 -300 c 2,30,-1
 430 -300 l 2,31,32
 492 -300 492 -300 536 -256 c 128,-1,33
 580 -212 580 -212 580 -150 c 128,-1,34
 580 -88 580 -88 536 -44 c 128,-1,35
 492 0 492 0 430 0 c 2,36,-1
 380 0 l 2,37,38
 256 0 256 0 168 88 c 128,-1,39
 80 176 80 176 80 300 c 0,40,41
 80 515 80 515 171.5 727 c 128,-1,42
 263 939 263 939 438 1100 c 1,43,-1
 330 1100 l 2,44,45
 226 1100 226 1100 153 1173 c 128,-1,46
 80 1246 80 1246 80 1350 c 0,47,48
 80 1371 80 1371 94.5 1385.5 c 128,-1,0
 109 1400 109 1400 130 1400 c 128,-1,1
EndSplineSet
EndChar

StartChar: eta
Encoding: 951 951 228
Width: 830
Flags: W
LayerCount: 2
Back
Fore
SplineSet
430 1020 m 0,0,1
 554 1020 554 1020 642 932 c 128,-1,2
 730 844 730 844 730 720 c 2,3,-1
 730 -350 l 2,4,5
 730 -371 730 -371 715.5 -385.5 c 128,-1,6
 701 -400 701 -400 680 -400 c 128,-1,7
 659 -400 659 -400 644.5 -385.5 c 128,-1,8
 630 -371 630 -371 630 -350 c 2,9,-1
 630 720 l 2,10,11
 630 802 630 802 571 861 c 128,-1,12
 512 920 512 920 430 920 c 128,-1,13
 348 920 348 920 289 861 c 128,-1,14
 230 802 230 802 230 720 c 2,15,-1
 230 50 l 2,16,17
 230 29 230 29 215.5 14.5 c 128,-1,18
 201 0 201 0 180 0 c 128,-1,19
 159 0 159 0 144.5 14.5 c 128,-1,20
 130 29 130 29 130 50 c 2,21,-1
 130 850 l 2,22,23
 130 871 130 871 115.5 885.5 c 128,-1,24
 101 900 101 900 80 900 c 128,-1,25
 59 900 59 900 44.5 914.5 c 128,-1,26
 30 929 30 929 30 950 c 128,-1,27
 30 971 30 971 44.5 985.5 c 128,-1,28
 59 1000 59 1000 80 1000 c 0,29,30
 121 1000 121 1000 155.5 979.5 c 128,-1,31
 190 959 190 959 210 924 c 1,32,33
 299 1020 299 1020 430 1020 c 0,0,1
EndSplineSet
EndChar

StartChar: theta
Encoding: 952 952 229
Width: 980
Flags: W
LayerCount: 2
Back
Fore
SplineSet
550 1420 m 128,-1,1
 674 1420 674 1420 762 1332 c 128,-1,2
 850 1244 850 1244 850 1120 c 2,3,-1
 850 900 l 1,4,-1
 900 900 l 2,5,6
 921 900 921 900 935.5 885.5 c 128,-1,7
 950 871 950 871 950 850 c 128,-1,8
 950 829 950 829 935.5 814.5 c 128,-1,9
 921 800 921 800 900 800 c 2,10,-1
 850 800 l 1,11,-1
 850 180 l 2,12,13
 850 98 850 98 791 39 c 128,-1,14
 732 -20 732 -20 650 -20 c 0,15,16
 596 -20 596 -20 550.5 6.5 c 128,-1,17
 505 33 505 33 478 78 c 2,18,-1
 243 475 l 2,19,20
 228 500 228 500 200 500 c 0,21,22
 179 500 179 500 164.5 485.5 c 128,-1,23
 150 471 150 471 150 450 c 128,-1,24
 150 429 150 429 135.5 414.5 c 128,-1,25
 121 400 121 400 100 400 c 128,-1,26
 79 400 79 400 64.5 414.5 c 128,-1,27
 50 429 50 429 50 450 c 0,28,29
 50 512 50 512 94 556 c 128,-1,30
 138 600 138 600 200 600 c 0,31,32
 240 600 240 600 274.5 580 c 128,-1,33
 309 560 309 560 329 526 c 2,34,-1
 564 129 l 2,35,36
 593 80 593 80 650 80 c 0,37,38
 691 80 691 80 720.5 109.5 c 128,-1,39
 750 139 750 139 750 180 c 2,40,-1
 750 800 l 1,41,-1
 550 800 l 2,42,43
 426 800 426 800 338 888 c 128,-1,44
 250 976 250 976 250 1100 c 2,45,-1
 250 1120 l 2,46,47
 250 1244 250 1244 338 1332 c 128,-1,0
 426 1420 426 1420 550 1420 c 128,-1,1
550 1320 m 128,-1,49
 468 1320 468 1320 409 1261 c 128,-1,50
 350 1202 350 1202 350 1120 c 2,51,-1
 350 1100 l 2,52,53
 350 1018 350 1018 409 959 c 128,-1,54
 468 900 468 900 550 900 c 2,55,-1
 750 900 l 1,56,-1
 750 1120 l 2,57,58
 750 1202 750 1202 691 1261 c 128,-1,48
 632 1320 632 1320 550 1320 c 128,-1,49
EndSplineSet
EndChar

StartChar: iota
Encoding: 953 953 230
Width: 480
Flags: W
LayerCount: 2
Back
Fore
SplineSet
140 1000 m 128,-1,1
 161 1000 161 1000 175.5 985.5 c 128,-1,2
 190 971 190 971 190 950 c 2,3,-1
 190 160 l 2,4,5
 190 127 190 127 213.5 103.5 c 128,-1,6
 237 80 237 80 270 80 c 0,7,8
 293 80 293 80 315 92.5 c 128,-1,9
 337 105 337 105 345 122 c 0,10,11
 359 150 359 150 390 150 c 0,12,13
 411 150 411 150 425.5 135.5 c 128,-1,14
 440 121 440 121 440 100 c 0,15,16
 440 90 440 90 435 78 c 0,17,18
 412 32 412 32 367.5 6 c 128,-1,19
 323 -20 323 -20 270 -20 c 0,20,21
 196 -20 196 -20 143 33 c 128,-1,22
 90 86 90 86 90 160 c 2,23,-1
 90 950 l 2,24,25
 90 971 90 971 104.5 985.5 c 128,-1,0
 119 1000 119 1000 140 1000 c 128,-1,1
EndSplineSet
EndChar

StartChar: kappa
Encoding: 954 954 231
Width: 810
Flags: W
LayerCount: 2
Back
Fore
SplineSet
80 1000 m 0,0,1
 142 1000 142 1000 186 956 c 128,-1,2
 230 912 230 912 230 850 c 2,3,-1
 230 488 l 1,4,-1
 642 982 l 2,5,6
 657 1000 657 1000 680 1000 c 0,7,8
 701 1000 701 1000 715.5 985.5 c 128,-1,9
 730 971 730 971 730 950 c 0,10,11
 730 933 730 933 718 918 c 2,12,-1
 398 533 l 1,13,-1
 637 125 l 2,14,15
 652 100 652 100 680 100 c 2,16,-1
 730 100 l 2,17,18
 751 100 751 100 765.5 85.5 c 128,-1,19
 780 71 780 71 780 50 c 128,-1,20
 780 29 780 29 765.5 14.5 c 128,-1,21
 751 0 751 0 730 0 c 2,22,-1
 680 0 l 2,23,24
 640 0 640 0 605.5 20 c 128,-1,25
 571 40 571 40 551 74 c 2,26,-1
 330 452 l 1,27,-1
 230 332 l 1,28,-1
 230 50 l 2,29,30
 230 29 230 29 215.5 14.5 c 128,-1,31
 201 0 201 0 180 0 c 128,-1,32
 159 0 159 0 144.5 14.5 c 128,-1,33
 130 29 130 29 130 50 c 2,34,-1
 130 850 l 2,35,36
 130 871 130 871 115.5 885.5 c 128,-1,37
 101 900 101 900 80 900 c 128,-1,38
 59 900 59 900 44.5 914.5 c 128,-1,39
 30 929 30 929 30 950 c 128,-1,40
 30 971 30 971 44.5 985.5 c 128,-1,41
 59 1000 59 1000 80 1000 c 0,0,1
EndSplineSet
EndChar

StartChar: lambda
Encoding: 955 955 232
Width: 760
Flags: W
LayerCount: 2
Back
Fore
SplineSet
180 1400 m 0,0,1
 243 1400 243 1400 287 1358 c 128,-1,2
 331 1316 331 1316 349 1250 c 2,3,-1
 664 115 l 2,4,5
 668 100 668 100 680 100 c 0,6,7
 701 100 701 100 715.5 85.5 c 128,-1,8
 730 71 730 71 730 50 c 128,-1,9
 730 29 730 29 715.5 14.5 c 128,-1,10
 701 0 701 0 680 0 c 0,11,12
 592 0 592 0 564 100 c 2,13,-1
 380 763 l 1,14,-1
 178 37 l 2,15,16
 173 21 173 21 160 10.5 c 128,-1,17
 147 0 147 0 130 0 c 0,18,19
 109 0 109 0 94.5 14.5 c 128,-1,20
 80 29 80 29 80 50 c 0,21,22
 80 55 80 55 82 63 c 2,23,-1
 328 950 l 1,24,-1
 245 1250 l 2,25,26
 239 1273 239 1273 221.5 1286.5 c 128,-1,27
 204 1300 204 1300 180 1300 c 0,28,29
 159 1300 159 1300 144.5 1314.5 c 128,-1,30
 130 1329 130 1329 130 1350 c 128,-1,31
 130 1371 130 1371 144.5 1385.5 c 128,-1,32
 159 1400 159 1400 180 1400 c 0,0,1
EndSplineSet
EndChar

StartChar: mu
Encoding: 956 956 233
Width: 830
Flags: W
LayerCount: 2
Back
Fore
SplineSet
150 1000 m 128,-1,1
 171 1000 171 1000 185.5 985.5 c 128,-1,2
 200 971 200 971 200 950 c 2,3,-1
 200 280 l 2,4,5
 200 198 200 198 259 139 c 128,-1,6
 318 80 318 80 400 80 c 128,-1,7
 482 80 482 80 541 139 c 128,-1,8
 600 198 600 198 600 280 c 2,9,-1
 600 950 l 2,10,11
 600 971 600 971 614.5 985.5 c 128,-1,12
 629 1000 629 1000 650 1000 c 128,-1,13
 671 1000 671 1000 685.5 985.5 c 128,-1,14
 700 971 700 971 700 950 c 2,15,-1
 700 150 l 2,16,17
 700 129 700 129 714.5 114.5 c 128,-1,18
 729 100 729 100 750 100 c 128,-1,19
 771 100 771 100 785.5 85.5 c 128,-1,20
 800 71 800 71 800 50 c 128,-1,21
 800 29 800 29 785.5 14.5 c 128,-1,22
 771 0 771 0 750 0 c 0,23,24
 709 0 709 0 674.5 20.5 c 128,-1,25
 640 41 640 41 620 76 c 1,26,27
 531 -20 531 -20 400 -20 c 0,28,29
 284 -20 284 -20 200 56 c 1,30,-1
 200 -350 l 2,31,32
 200 -371 200 -371 185.5 -385.5 c 128,-1,33
 171 -400 171 -400 150 -400 c 128,-1,34
 129 -400 129 -400 114.5 -385.5 c 128,-1,35
 100 -371 100 -371 100 -350 c 2,36,-1
 100 950 l 2,37,38
 100 971 100 971 114.5 985.5 c 128,-1,0
 129 1000 129 1000 150 1000 c 128,-1,1
EndSplineSet
EndChar

StartChar: nu
Encoding: 957 957 234
Width: 700
Flags: W
LayerCount: 2
Back
Fore
SplineSet
80 1000 m 0,0,1
 142 1000 142 1000 186 956 c 128,-1,2
 230 912 230 912 230 850 c 0,3,4
 230 710 230 710 251 513 c 128,-1,5
 272 316 272 316 305 160 c 1,6,7
 415 314 415 314 472.5 523 c 128,-1,8
 530 732 530 732 530 950 c 0,9,10
 530 971 530 971 544.5 985.5 c 128,-1,11
 559 1000 559 1000 580 1000 c 128,-1,12
 601 1000 601 1000 615.5 985.5 c 128,-1,13
 630 971 630 971 630 950 c 0,14,15
 630 684 630 684 551 435.5 c 128,-1,16
 472 187 472 187 317 16 c 0,17,18
 303 0 303 0 280 0 c 0,19,20
 266 0 266 0 251 11 c 128,-1,21
 236 22 236 22 232 38 c 0,22,23
 186 203 186 203 158 437.5 c 128,-1,24
 130 672 130 672 130 850 c 0,25,26
 130 871 130 871 115.5 885.5 c 128,-1,27
 101 900 101 900 80 900 c 128,-1,28
 59 900 59 900 44.5 914.5 c 128,-1,29
 30 929 30 929 30 950 c 128,-1,30
 30 971 30 971 44.5 985.5 c 128,-1,31
 59 1000 59 1000 80 1000 c 0,0,1
EndSplineSet
EndChar

StartChar: xi
Encoding: 958 958 235
Width: 810
Flags: W
LayerCount: 2
Back
Fore
SplineSet
130 1400 m 128,-1,1
 151 1400 151 1400 165.5 1385.5 c 128,-1,2
 180 1371 180 1371 180 1350 c 128,-1,3
 180 1329 180 1329 194.5 1314.5 c 128,-1,4
 209 1300 209 1300 230 1300 c 2,5,-1
 580 1300 l 2,6,7
 601 1300 601 1300 615.5 1285.5 c 128,-1,8
 630 1271 630 1271 630 1250 c 128,-1,9
 630 1229 630 1229 615.5 1214.5 c 128,-1,10
 601 1200 601 1200 580 1200 c 2,11,-1
 480 1200 l 2,12,13
 398 1200 398 1200 339 1141 c 128,-1,14
 280 1082 280 1082 280 1000 c 128,-1,15
 280 918 280 918 339 859 c 128,-1,16
 398 800 398 800 480 800 c 2,17,-1
 580 800 l 2,18,19
 601 800 601 800 615.5 785.5 c 128,-1,20
 630 771 630 771 630 750 c 128,-1,21
 630 729 630 729 615.5 714.5 c 128,-1,22
 601 700 601 700 580 700 c 2,23,-1
 480 700 l 2,24,25
 356 700 356 700 268 612 c 128,-1,26
 180 524 180 524 180 400 c 128,-1,27
 180 276 180 276 268 188 c 128,-1,28
 356 100 356 100 480 100 c 2,29,-1
 530 100 l 2,30,31
 634 100 634 100 707 27 c 128,-1,32
 780 -46 780 -46 780 -150 c 128,-1,33
 780 -254 780 -254 707 -327 c 128,-1,34
 634 -400 634 -400 530 -400 c 2,35,-1
 330 -400 l 2,36,37
 309 -400 309 -400 294.5 -385.5 c 128,-1,38
 280 -371 280 -371 280 -350 c 128,-1,39
 280 -329 280 -329 294.5 -314.5 c 128,-1,40
 309 -300 309 -300 330 -300 c 2,41,-1
 530 -300 l 2,42,43
 592 -300 592 -300 636 -256 c 128,-1,44
 680 -212 680 -212 680 -150 c 128,-1,45
 680 -88 680 -88 636 -44 c 128,-1,46
 592 0 592 0 530 0 c 2,47,-1
 480 0 l 2,48,49
 314 0 314 0 197 117 c 128,-1,50
 80 234 80 234 80 400 c 0,51,52
 80 516 80 516 141 612.5 c 128,-1,53
 202 709 202 709 302 758 c 1,54,55
 245 800 245 800 212.5 863.5 c 128,-1,56
 180 927 180 927 180 1000 c 0,57,58
 180 1116 180 1116 256 1200 c 1,59,-1
 230 1200 l 2,60,61
 168 1200 168 1200 124 1244 c 128,-1,62
 80 1288 80 1288 80 1350 c 0,63,64
 80 1371 80 1371 94.5 1385.5 c 128,-1,0
 109 1400 109 1400 130 1400 c 128,-1,1
EndSplineSet
EndChar

StartChar: pi
Encoding: 960 960 237
Width: 900
Flags: W
LayerCount: 2
Back
Fore
SplineSet
810 1050 m 0,0,1
 831 1050 831 1050 845.5 1035.5 c 128,-1,2
 860 1021 860 1021 860 1000 c 0,3,4
 860 974 860 974 841 960 c 0,5,6
 781 915 781 915 710 904 c 1,7,-1
 710 150 l 2,8,9
 710 129 710 129 724.5 114.5 c 128,-1,10
 739 100 739 100 760 100 c 128,-1,11
 781 100 781 100 795.5 85.5 c 128,-1,12
 810 71 810 71 810 50 c 128,-1,13
 810 29 810 29 795.5 14.5 c 128,-1,14
 781 0 781 0 760 0 c 0,15,16
 698 0 698 0 654 44 c 128,-1,17
 610 88 610 88 610 150 c 2,18,-1
 610 900 l 1,19,-1
 310 900 l 1,20,-1
 310 150 l 2,21,22
 310 88 310 88 266 44 c 128,-1,23
 222 0 222 0 160 0 c 0,24,25
 139 0 139 0 124.5 14.5 c 128,-1,26
 110 29 110 29 110 50 c 128,-1,27
 110 71 110 71 124.5 85.5 c 128,-1,28
 139 100 139 100 160 100 c 128,-1,29
 181 100 181 100 195.5 114.5 c 128,-1,30
 210 129 210 129 210 150 c 2,31,-1
 210 900 l 1,32,-1
 110 900 l 2,33,34
 89 900 89 900 74.5 914.5 c 128,-1,35
 60 929 60 929 60 950 c 128,-1,36
 60 971 60 971 74.5 985.5 c 128,-1,37
 89 1000 89 1000 110 1000 c 2,38,-1
 660 1000 l 2,39,40
 728 1000 728 1000 779 1040 c 0,41,42
 792 1050 792 1050 810 1050 c 0,0,1
EndSplineSet
EndChar

StartChar: rho
Encoding: 961 961 238
Width: 780
Flags: W
LayerCount: 2
Back
Fore
SplineSet
390 1020 m 128,-1,1
 514 1020 514 1020 602 932 c 128,-1,2
 690 844 690 844 690 720 c 2,3,-1
 690 280 l 2,4,5
 690 156 690 156 602 68 c 128,-1,6
 514 -20 514 -20 390 -20 c 0,7,8
 374 -20 374 -20 366 -19 c 1,9,10
 410 -107 410 -107 410 -200 c 0,11,12
 410 -310 410 -310 386 -369 c 0,13,14
 374 -400 374 -400 340 -400 c 0,15,16
 319 -400 319 -400 304.5 -385.5 c 128,-1,17
 290 -371 290 -371 290 -350 c 0,18,19
 290 -343 290 -343 294 -331 c 0,20,21
 310 -288 310 -288 310 -200 c 0,22,23
 310 -133 310 -133 282.5 -71 c 128,-1,24
 255 -9 255 -9 178 68 c 0,25,26
 90 156 90 156 90 280 c 2,27,-1
 90 720 l 2,28,29
 90 844 90 844 178 932 c 128,-1,0
 266 1020 266 1020 390 1020 c 128,-1,1
390 920 m 128,-1,31
 308 920 308 920 249 861 c 128,-1,32
 190 802 190 802 190 720 c 2,33,-1
 190 280 l 2,34,35
 190 198 190 198 249 139 c 128,-1,36
 308 80 308 80 390 80 c 128,-1,37
 472 80 472 80 531 139 c 128,-1,38
 590 198 590 198 590 280 c 2,39,-1
 590 720 l 2,40,41
 590 802 590 802 531 861 c 128,-1,30
 472 920 472 920 390 920 c 128,-1,31
EndSplineSet
EndChar

StartChar: sigma1
Encoding: 962 962 239
Width: 800
Flags: W
LayerCount: 2
Back
Fore
SplineSet
350 1000 m 0,0,1
 493 1000 493 1000 620 946 c 0,2,3
 633 940 633 940 641.5 927.5 c 128,-1,4
 650 915 650 915 650 900 c 0,5,6
 650 879 650 879 635.5 864.5 c 128,-1,7
 621 850 621 850 600 850 c 0,8,9
 590 850 590 850 580 854 c 0,10,11
 474 900 474 900 350 900 c 0,12,13
 288 900 288 900 244 856 c 128,-1,14
 200 812 200 812 200 750 c 2,15,-1
 200 250 l 2,16,17
 200 188 200 188 244 144 c 128,-1,18
 288 100 288 100 350 100 c 2,19,-1
 450 100 l 2,20,21
 554 100 554 100 627 27 c 128,-1,22
 700 -46 700 -46 700 -150 c 128,-1,23
 700 -254 700 -254 627 -327 c 128,-1,24
 554 -400 554 -400 450 -400 c 2,25,-1
 250 -400 l 2,26,27
 229 -400 229 -400 214.5 -385.5 c 128,-1,28
 200 -371 200 -371 200 -350 c 128,-1,29
 200 -329 200 -329 214.5 -314.5 c 128,-1,30
 229 -300 229 -300 250 -300 c 2,31,-1
 450 -300 l 2,32,33
 512 -300 512 -300 556 -256 c 128,-1,34
 600 -212 600 -212 600 -150 c 128,-1,35
 600 -88 600 -88 556 -44 c 128,-1,36
 512 0 512 0 450 0 c 2,37,-1
 350 0 l 2,38,39
 246 0 246 0 173 73 c 128,-1,40
 100 146 100 146 100 250 c 2,41,-1
 100 750 l 2,42,43
 100 854 100 854 173 927 c 128,-1,44
 246 1000 246 1000 350 1000 c 0,0,1
EndSplineSet
EndChar

StartChar: sigma
Encoding: 963 963 240
Width: 810
Flags: W
LayerCount: 2
Back
Fore
SplineSet
740 1050 m 0,0,1
 761 1050 761 1050 775.5 1035.5 c 128,-1,2
 790 1021 790 1021 790 1000 c 0,3,4
 790 974 790 974 771 960 c 0,5,6
 708 912 708 912 628 902 c 1,7,8
 690 821 690 821 690 720 c 2,9,-1
 690 280 l 2,10,11
 690 156 690 156 602 68 c 128,-1,12
 514 -20 514 -20 390 -20 c 128,-1,13
 266 -20 266 -20 178 68 c 128,-1,14
 90 156 90 156 90 280 c 2,15,-1
 90 720 l 2,16,17
 90 844 90 844 178 932 c 128,-1,18
 266 1020 266 1020 390 1020 c 0,19,20
 433 1020 433 1020 467 1010 c 128,-1,21
 501 1000 501 1000 590 1000 c 0,22,23
 658 1000 658 1000 709 1040 c 0,24,25
 722 1050 722 1050 740 1050 c 0,0,1
390 920 m 128,-1,27
 308 920 308 920 249 861 c 128,-1,28
 190 802 190 802 190 720 c 2,29,-1
 190 280 l 2,30,31
 190 198 190 198 249 139 c 128,-1,32
 308 80 308 80 390 80 c 128,-1,33
 472 80 472 80 531 139 c 128,-1,34
 590 198 590 198 590 280 c 2,35,-1
 590 720 l 2,36,37
 590 802 590 802 531 861 c 128,-1,26
 472 920 472 920 390 920 c 128,-1,27
EndSplineSet
EndChar

StartChar: tau
Encoding: 964 964 241
Width: 730
Flags: W
LayerCount: 2
Back
Fore
SplineSet
650 1050 m 0,0,1
 671 1050 671 1050 685.5 1035.5 c 128,-1,2
 700 1021 700 1021 700 1000 c 0,3,4
 700 974 700 974 681 960 c 0,5,6
 601 900 601 900 500 900 c 2,7,-1
 400 900 l 1,8,-1
 400 150 l 2,9,10
 400 129 400 129 414.5 114.5 c 128,-1,11
 429 100 429 100 450 100 c 2,12,-1
 500 100 l 2,13,14
 521 100 521 100 535.5 85.5 c 128,-1,15
 550 71 550 71 550 50 c 128,-1,16
 550 29 550 29 535.5 14.5 c 128,-1,17
 521 0 521 0 500 0 c 2,18,-1
 450 0 l 2,19,20
 388 0 388 0 344 44 c 128,-1,21
 300 88 300 88 300 150 c 2,22,-1
 300 900 l 1,23,-1
 100 900 l 2,24,25
 79 900 79 900 64.5 914.5 c 128,-1,26
 50 929 50 929 50 950 c 128,-1,27
 50 971 50 971 64.5 985.5 c 128,-1,28
 79 1000 79 1000 100 1000 c 2,29,-1
 500 1000 l 2,30,31
 568 1000 568 1000 619 1040 c 0,32,33
 632 1050 632 1050 650 1050 c 0,0,1
EndSplineSet
EndChar

StartChar: upsilon
Encoding: 965 965 242
Width: 730
Flags: W
LayerCount: 2
Back
Fore
SplineSet
100 1000 m 0,0,1
 141 1000 141 1000 170.5 970.5 c 128,-1,2
 200 941 200 941 200 900 c 2,3,-1
 200 180 l 2,4,5
 200 139 200 139 229.5 109.5 c 128,-1,6
 259 80 259 80 300 80 c 0,7,8
 379 80 379 80 446 177 c 0,9,10
 550 328 550 328 550 650 c 0,11,12
 550 795 550 795 503 933 c 0,13,14
 500 940 500 940 500 950 c 0,15,16
 500 971 500 971 514.5 985.5 c 128,-1,17
 529 1000 529 1000 550 1000 c 0,18,19
 585 1000 585 1000 597 966 c 0,20,21
 650 811 650 811 650 650 c 0,22,23
 650 298 650 298 529 120 c 0,24,25
 480 48 480 48 418.5 14 c 128,-1,26
 357 -20 357 -20 300 -20 c 0,27,28
 218 -20 218 -20 159 39 c 128,-1,29
 100 98 100 98 100 180 c 2,30,-1
 100 880 l 2,31,32
 100 896 100 896 81 904 c 0,33,34
 50 918 50 918 50 950 c 0,35,36
 50 971 50 971 64.5 985.5 c 128,-1,37
 79 1000 79 1000 100 1000 c 0,0,1
EndSplineSet
EndChar

StartChar: phi
Encoding: 966 966 243
Width: 960
Flags: W
LayerCount: 2
Back
Fore
SplineSet
610 1020 m 0,0,1
 660 1020 660 1020 711.5 989.5 c 128,-1,2
 763 959 763 959 798 893 c 0,3,4
 880 740 880 740 880 380 c 0,5,6
 880 228 880 228 779.5 115 c 128,-1,7
 679 2 679 2 530 -17 c 1,8,-1
 530 -350 l 2,9,10
 530 -371 530 -371 515.5 -385.5 c 128,-1,11
 501 -400 501 -400 480 -400 c 128,-1,12
 459 -400 459 -400 444.5 -385.5 c 128,-1,13
 430 -371 430 -371 430 -350 c 2,14,-1
 430 -17 l 1,15,16
 281 2 281 2 180.5 115 c 128,-1,17
 80 228 80 228 80 380 c 0,18,19
 80 550 80 550 100 665 c 128,-1,20
 120 780 120 780 183 966 c 0,21,22
 195 1000 195 1000 230 1000 c 0,23,24
 251 1000 251 1000 265.5 985.5 c 128,-1,25
 280 971 280 971 280 950 c 0,26,27
 280 942 280 942 277 934 c 0,28,29
 215 751 215 751 197.5 649 c 128,-1,30
 180 547 180 547 180 380 c 0,31,32
 180 269 180 269 251.5 185.5 c 128,-1,33
 323 102 323 102 430 84 c 1,34,-1
 430 840 l 2,35,36
 430 914 430 914 483 967 c 128,-1,37
 536 1020 536 1020 610 1020 c 0,0,1
610 920 m 0,38,39
 577 920 577 920 553.5 896.5 c 128,-1,40
 530 873 530 873 530 840 c 2,41,-1
 530 84 l 1,42,43
 637 102 637 102 708.5 185.5 c 128,-1,44
 780 269 780 269 780 380 c 0,45,46
 780 715 780 715 710 847 c 0,47,48
 693 880 693 880 674 897 c 128,-1,49
 655 914 655 914 642.5 917 c 128,-1,50
 630 920 630 920 610 920 c 0,38,39
EndSplineSet
EndChar

StartChar: chi
Encoding: 967 967 244
Width: 780
Flags: W
LayerCount: 2
Back
Fore
SplineSet
110 1000 m 0,0,1
 158 1000 158 1000 197 972 c 128,-1,2
 236 944 236 944 252 900 c 2,3,-1
 412 445 l 1,4,-1
 613 968 l 2,5,6
 625 1000 625 1000 660 1000 c 0,7,8
 681 1000 681 1000 695.5 985.5 c 128,-1,9
 710 971 710 971 710 950 c 0,10,11
 710 941 710 941 707 932 c 2,12,-1
 463 299 l 1,13,-1
 663 -267 l 2,14,15
 675 -300 675 -300 710 -300 c 0,16,17
 731 -300 731 -300 745.5 -314.5 c 128,-1,18
 760 -329 760 -329 760 -350 c 128,-1,19
 760 -371 760 -371 745.5 -385.5 c 128,-1,20
 731 -400 731 -400 710 -400 c 0,21,22
 662 -400 662 -400 623 -372 c 128,-1,23
 584 -344 584 -344 568 -300 c 2,24,-1
 408 155 l 1,25,-1
 207 -368 l 2,26,27
 195 -400 195 -400 160 -400 c 0,28,29
 139 -400 139 -400 124.5 -385.5 c 128,-1,30
 110 -371 110 -371 110 -350 c 0,31,32
 110 -341 110 -341 113 -332 c 2,33,-1
 357 301 l 1,34,-1
 157 867 l 2,35,36
 145 900 145 900 110 900 c 0,37,38
 89 900 89 900 74.5 914.5 c 128,-1,39
 60 929 60 929 60 950 c 128,-1,40
 60 971 60 971 74.5 985.5 c 128,-1,41
 89 1000 89 1000 110 1000 c 0,0,1
EndSplineSet
EndChar

StartChar: psi
Encoding: 968 968 245
Width: 1000
Flags: W
LayerCount: 2
Back
Fore
SplineSet
500 1200 m 128,-1,1
 521 1200 521 1200 535.5 1185.5 c 128,-1,2
 550 1171 550 1171 550 1150 c 2,3,-1
 550 84 l 1,4,5
 657 102 657 102 728.5 185.5 c 128,-1,6
 800 269 800 269 800 380 c 2,7,-1
 800 950 l 2,8,9
 800 971 800 971 814.5 985.5 c 128,-1,10
 829 1000 829 1000 850 1000 c 128,-1,11
 871 1000 871 1000 885.5 985.5 c 128,-1,12
 900 971 900 971 900 950 c 2,13,-1
 900 380 l 2,14,15
 900 228 900 228 799.5 115 c 128,-1,16
 699 2 699 2 550 -17 c 1,17,-1
 550 -350 l 2,18,19
 550 -371 550 -371 535.5 -385.5 c 128,-1,20
 521 -400 521 -400 500 -400 c 128,-1,21
 479 -400 479 -400 464.5 -385.5 c 128,-1,22
 450 -371 450 -371 450 -350 c 2,23,-1
 450 -17 l 1,24,25
 301 2 301 2 200.5 115 c 128,-1,26
 100 228 100 228 100 380 c 2,27,-1
 100 950 l 2,28,29
 100 971 100 971 114.5 985.5 c 128,-1,30
 129 1000 129 1000 150 1000 c 128,-1,31
 171 1000 171 1000 185.5 985.5 c 128,-1,32
 200 971 200 971 200 950 c 2,33,-1
 200 380 l 2,34,35
 200 269 200 269 271.5 185.5 c 128,-1,36
 343 102 343 102 450 84 c 1,37,-1
 450 1150 l 2,38,39
 450 1171 450 1171 464.5 1185.5 c 128,-1,0
 479 1200 479 1200 500 1200 c 128,-1,1
EndSplineSet
EndChar

StartChar: omega
Encoding: 969 969 246
Width: 1080
Flags: W
LayerCount: 2
Back
Fore
SplineSet
240 1000 m 0,0,1
 261 1000 261 1000 275.5 985.5 c 128,-1,2
 290 971 290 971 290 950 c 0,3,4
 290 943 290 943 286 931 c 0,5,6
 244 827 244 827 217 675 c 128,-1,7
 190 523 190 523 190 400 c 2,8,-1
 190 230 l 2,9,10
 190 168 190 168 234 124 c 128,-1,11
 278 80 278 80 340 80 c 128,-1,12
 402 80 402 80 446 124 c 128,-1,13
 490 168 490 168 490 230 c 2,14,-1
 490 450 l 2,15,16
 490 471 490 471 504.5 485.5 c 128,-1,17
 519 500 519 500 540 500 c 128,-1,18
 561 500 561 500 575.5 485.5 c 128,-1,19
 590 471 590 471 590 450 c 2,20,-1
 590 230 l 2,21,22
 590 168 590 168 634 124 c 128,-1,23
 678 80 678 80 740 80 c 128,-1,24
 802 80 802 80 846 124 c 128,-1,25
 890 168 890 168 890 230 c 2,26,-1
 890 400 l 2,27,28
 890 523 890 523 863 675 c 128,-1,29
 836 827 836 827 794 931 c 0,30,31
 790 943 790 943 790 950 c 0,32,33
 790 971 790 971 804.5 985.5 c 128,-1,34
 819 1000 819 1000 840 1000 c 0,35,36
 874 1000 874 1000 886 969 c 0,37,38
 933 851 933 851 961.5 693.5 c 128,-1,39
 990 536 990 536 990 400 c 2,40,-1
 990 230 l 2,41,42
 990 126 990 126 917 53 c 128,-1,43
 844 -20 844 -20 740 -20 c 0,44,45
 680 -20 680 -20 627.5 6.5 c 128,-1,46
 575 33 575 33 540 80 c 1,47,48
 505 33 505 33 452.5 6.5 c 128,-1,49
 400 -20 400 -20 340 -20 c 0,50,51
 236 -20 236 -20 163 53 c 128,-1,52
 90 126 90 126 90 230 c 2,53,-1
 90 400 l 2,54,55
 90 536 90 536 118.5 693.5 c 128,-1,56
 147 851 147 851 194 969 c 0,57,58
 206 1000 206 1000 240 1000 c 0,0,1
EndSplineSet
EndChar

StartChar: afii10051
Encoding: 1026 1026 249
Width: 1130
Flags: W
LayerCount: 2
Back
Fore
SplineSet
100 1400 m 2,0,-1
 700 1400 l 2,1,2
 721 1400 721 1400 735.5 1385.5 c 128,-1,3
 750 1371 750 1371 750 1350 c 128,-1,4
 750 1329 750 1329 735.5 1314.5 c 128,-1,5
 721 1300 721 1300 700 1300 c 2,6,-1
 450 1300 l 1,7,-1
 450 800 l 1,8,-1
 750 800 l 2,9,10
 874 800 874 800 962 712 c 128,-1,11
 1050 624 1050 624 1050 500 c 2,12,-1
 1050 300 l 2,13,14
 1050 176 1050 176 962 88 c 128,-1,15
 874 0 874 0 750 0 c 2,16,-1
 700 0 l 2,17,18
 679 0 679 0 664.5 14.5 c 128,-1,19
 650 29 650 29 650 50 c 128,-1,20
 650 71 650 71 664.5 85.5 c 128,-1,21
 679 100 679 100 700 100 c 2,22,-1
 750 100 l 2,23,24
 832 100 832 100 891 159 c 128,-1,25
 950 218 950 218 950 300 c 2,26,-1
 950 500 l 2,27,28
 950 582 950 582 891 641 c 128,-1,29
 832 700 832 700 750 700 c 2,30,-1
 450 700 l 1,31,-1
 450 50 l 2,32,33
 450 29 450 29 435.5 14.5 c 128,-1,34
 421 0 421 0 400 0 c 128,-1,35
 379 0 379 0 364.5 14.5 c 128,-1,36
 350 29 350 29 350 50 c 2,37,-1
 350 1300 l 1,38,-1
 100 1300 l 2,39,40
 79 1300 79 1300 64.5 1314.5 c 128,-1,41
 50 1329 50 1329 50 1350 c 128,-1,42
 50 1371 50 1371 64.5 1385.5 c 128,-1,43
 79 1400 79 1400 100 1400 c 2,0,-1
EndSplineSet
Colour: ff0000
EndChar

StartChar: afii10053
Encoding: 1028 1028 251
Width: 880
Flags: W
LayerCount: 2
Back
Fore
SplineSet
750 1400 m 2,0,1
 771 1400 771 1400 785.5 1385.5 c 128,-1,2
 800 1371 800 1371 800 1350 c 128,-1,3
 800 1329 800 1329 785.5 1314.5 c 128,-1,4
 771 1300 771 1300 750 1300 c 2,5,-1
 450 1300 l 2,6,7
 346 1300 346 1300 273 1227 c 128,-1,8
 200 1154 200 1154 200 1050 c 2,9,-1
 200 800 l 1,10,-1
 550 800 l 2,11,12
 571 800 571 800 585.5 785.5 c 128,-1,13
 600 771 600 771 600 750 c 128,-1,14
 600 729 600 729 585.5 714.5 c 128,-1,15
 571 700 571 700 550 700 c 2,16,-1
 200 700 l 1,17,-1
 200 350 l 2,18,19
 200 246 200 246 273 173 c 128,-1,20
 346 100 346 100 450 100 c 2,21,-1
 750 100 l 2,22,23
 771 100 771 100 785.5 85.5 c 128,-1,24
 800 71 800 71 800 50 c 128,-1,25
 800 29 800 29 785.5 14.5 c 128,-1,26
 771 0 771 0 750 0 c 2,27,-1
 450 0 l 2,28,29
 305 0 305 0 202.5 102.5 c 128,-1,30
 100 205 100 205 100 350 c 2,31,-1
 100 1050 l 2,32,33
 100 1195 100 1195 202.5 1297.5 c 128,-1,34
 305 1400 305 1400 450 1400 c 2,35,-1
 750 1400 l 2,0,1
EndSplineSet
EndChar

StartChar: afii10058
Encoding: 1033 1033 256
Width: 1420
Flags: W
LayerCount: 2
Back
Fore
SplineSet
410 1400 m 2,0,-1
 700 1400 l 2,1,2
 721 1400 721 1400 735.5 1385.5 c 128,-1,3
 750 1371 750 1371 750 1350 c 2,4,-1
 750 800 l 1,5,-1
 950 800 l 2,6,7
 1116 800 1116 800 1233 683 c 128,-1,8
 1350 566 1350 566 1350 400 c 128,-1,9
 1350 234 1350 234 1233 117 c 128,-1,10
 1116 0 1116 0 950 0 c 2,11,-1
 700 0 l 2,12,13
 679 0 679 0 664.5 14.5 c 128,-1,14
 650 29 650 29 650 50 c 2,15,-1
 650 1300 l 1,16,-1
 449 1300 l 1,17,-1
 149 38 l 2,18,19
 145 21 145 21 131.5 10.5 c 128,-1,20
 118 0 118 0 100 0 c 0,21,22
 79 0 79 0 64.5 14.5 c 128,-1,23
 50 29 50 29 50 50 c 0,24,25
 50 58 50 58 51 62 c 2,26,-1
 361 1362 l 2,27,28
 365 1379 365 1379 378.5 1389.5 c 128,-1,29
 392 1400 392 1400 410 1400 c 2,0,-1
750 700 m 1,30,-1
 750 100 l 1,31,-1
 950 100 l 2,32,33
 1074 100 1074 100 1162 188 c 128,-1,34
 1250 276 1250 276 1250 400 c 128,-1,35
 1250 524 1250 524 1162 612 c 128,-1,36
 1074 700 1074 700 950 700 c 2,37,-1
 750 700 l 1,30,-1
EndSplineSet
EndChar

StartChar: afii10059
Encoding: 1034 1034 257
Width: 1470
Flags: W
LayerCount: 2
Back
Fore
SplineSet
150 1400 m 128,-1,1
 171 1400 171 1400 185.5 1385.5 c 128,-1,2
 200 1371 200 1371 200 1350 c 2,3,-1
 200 800 l 1,4,-1
 700 800 l 1,5,-1
 700 1350 l 2,6,7
 700 1371 700 1371 714.5 1385.5 c 128,-1,8
 729 1400 729 1400 750 1400 c 128,-1,9
 771 1400 771 1400 785.5 1385.5 c 128,-1,10
 800 1371 800 1371 800 1350 c 2,11,-1
 800 800 l 1,12,-1
 1000 800 l 2,13,14
 1166 800 1166 800 1283 683 c 128,-1,15
 1400 566 1400 566 1400 400 c 128,-1,16
 1400 234 1400 234 1283 117 c 128,-1,17
 1166 0 1166 0 1000 0 c 2,18,-1
 750 0 l 2,19,20
 729 0 729 0 714.5 14.5 c 128,-1,21
 700 29 700 29 700 50 c 2,22,-1
 700 700 l 1,23,-1
 200 700 l 1,24,-1
 200 50 l 2,25,26
 200 29 200 29 185.5 14.5 c 128,-1,27
 171 0 171 0 150 0 c 128,-1,28
 129 0 129 0 114.5 14.5 c 128,-1,29
 100 29 100 29 100 50 c 2,30,-1
 100 1350 l 2,31,32
 100 1371 100 1371 114.5 1385.5 c 128,-1,0
 129 1400 129 1400 150 1400 c 128,-1,1
800 700 m 1,33,-1
 800 100 l 1,34,-1
 1000 100 l 2,35,36
 1124 100 1124 100 1212 188 c 128,-1,37
 1300 276 1300 276 1300 400 c 128,-1,38
 1300 524 1300 524 1212 612 c 128,-1,39
 1124 700 1124 700 1000 700 c 2,40,-1
 800 700 l 1,33,-1
EndSplineSet
EndChar

StartChar: afii10060
Encoding: 1035 1035 258
Width: 1130
Flags: W
LayerCount: 2
Back
Fore
SplineSet
100 1400 m 2,0,-1
 700 1400 l 2,1,2
 721 1400 721 1400 735.5 1385.5 c 128,-1,3
 750 1371 750 1371 750 1350 c 128,-1,4
 750 1329 750 1329 735.5 1314.5 c 128,-1,5
 721 1300 721 1300 700 1300 c 2,6,-1
 450 1300 l 1,7,-1
 450 800 l 1,8,-1
 750 800 l 2,9,10
 874 800 874 800 962 712 c 128,-1,11
 1050 624 1050 624 1050 500 c 2,12,-1
 1050 50 l 2,13,14
 1050 29 1050 29 1035.5 14.5 c 128,-1,15
 1021 0 1021 0 1000 0 c 128,-1,16
 979 0 979 0 964.5 14.5 c 128,-1,17
 950 29 950 29 950 50 c 2,18,-1
 950 500 l 2,19,20
 950 582 950 582 891 641 c 128,-1,21
 832 700 832 700 750 700 c 2,22,-1
 450 700 l 1,23,-1
 450 50 l 2,24,25
 450 29 450 29 435.5 14.5 c 128,-1,26
 421 0 421 0 400 0 c 128,-1,27
 379 0 379 0 364.5 14.5 c 128,-1,28
 350 29 350 29 350 50 c 2,29,-1
 350 1300 l 1,30,-1
 100 1300 l 2,31,32
 79 1300 79 1300 64.5 1314.5 c 128,-1,33
 50 1329 50 1329 50 1350 c 128,-1,34
 50 1371 50 1371 64.5 1385.5 c 128,-1,35
 79 1400 79 1400 100 1400 c 2,0,-1
EndSplineSet
Colour: ff0000
EndChar

StartChar: afii10062
Encoding: 1038 1038 261
Width: 900
Flags: W
LayerCount: 2
Back
Fore
SplineSet
150 1400 m 128,-1,1
 171 1400 171 1400 185.5 1385.5 c 128,-1,2
 200 1371 200 1371 200 1350 c 2,3,-1
 200 1000 l 2,4,5
 200 876 200 876 288 788 c 128,-1,6
 376 700 376 700 500 700 c 2,7,-1
 700 700 l 1,8,-1
 700 1350 l 2,9,10
 700 1371 700 1371 714.5 1385.5 c 128,-1,11
 729 1400 729 1400 750 1400 c 128,-1,12
 771 1400 771 1400 785.5 1385.5 c 128,-1,13
 800 1371 800 1371 800 1350 c 2,14,-1
 800 300 l 2,15,16
 800 176 800 176 712 88 c 128,-1,17
 624 0 624 0 500 0 c 2,18,-1
 250 0 l 2,19,20
 229 0 229 0 214.5 14.5 c 128,-1,21
 200 29 200 29 200 50 c 128,-1,22
 200 71 200 71 214.5 85.5 c 128,-1,23
 229 100 229 100 250 100 c 2,24,-1
 500 100 l 2,25,26
 582 100 582 100 641 159 c 128,-1,27
 700 218 700 218 700 300 c 2,28,-1
 700 600 l 1,29,-1
 500 600 l 2,30,31
 334 600 334 600 217 717 c 128,-1,32
 100 834 100 834 100 1000 c 2,33,-1
 100 1350 l 2,34,35
 100 1371 100 1371 114.5 1385.5 c 128,-1,0
 129 1400 129 1400 150 1400 c 128,-1,1
350 1600 m 2,36,-1
 550 1600 l 2,37,38
 571 1600 571 1600 585.5 1585.5 c 128,-1,39
 600 1571 600 1571 600 1550 c 128,-1,40
 600 1529 600 1529 585.5 1514.5 c 128,-1,41
 571 1500 571 1500 550 1500 c 2,42,-1
 350 1500 l 2,43,44
 329 1500 329 1500 314.5 1514.5 c 128,-1,45
 300 1529 300 1529 300 1550 c 128,-1,46
 300 1571 300 1571 314.5 1585.5 c 128,-1,47
 329 1600 329 1600 350 1600 c 2,36,-1
EndSplineSet
EndChar

StartChar: afii10145
Encoding: 1039 1039 262
Width: 900
Flags: W
LayerCount: 2
Back
Fore
SplineSet
150 1400 m 128,-1,1
 171 1400 171 1400 185.5 1385.5 c 128,-1,2
 200 1371 200 1371 200 1350 c 2,3,-1
 200 100 l 1,4,-1
 700 100 l 1,5,-1
 700 1350 l 2,6,7
 700 1371 700 1371 714.5 1385.5 c 128,-1,8
 729 1400 729 1400 750 1400 c 128,-1,9
 771 1400 771 1400 785.5 1385.5 c 128,-1,10
 800 1371 800 1371 800 1350 c 2,11,-1
 800 50 l 2,12,13
 800 29 800 29 785.5 14.5 c 128,-1,14
 771 0 771 0 750 0 c 2,15,-1
 500 0 l 1,16,-1
 500 -200 l 2,17,18
 500 -221 500 -221 485.5 -235.5 c 128,-1,19
 471 -250 471 -250 450 -250 c 128,-1,20
 429 -250 429 -250 414.5 -235.5 c 128,-1,21
 400 -221 400 -221 400 -200 c 2,22,-1
 400 0 l 1,23,-1
 150 0 l 2,24,25
 129 0 129 0 114.5 14.5 c 128,-1,26
 100 29 100 29 100 50 c 2,27,-1
 100 1350 l 2,28,29
 100 1371 100 1371 114.5 1385.5 c 128,-1,0
 129 1400 129 1400 150 1400 c 128,-1,1
EndSplineSet
EndChar

StartChar: afii10018
Encoding: 1041 1041 264
Width: 870
Flags: W
LayerCount: 2
Back
Fore
SplineSet
150 1400 m 2,0,-1
 650 1400 l 2,1,2
 671 1400 671 1400 685.5 1385.5 c 128,-1,3
 700 1371 700 1371 700 1350 c 128,-1,4
 700 1329 700 1329 685.5 1314.5 c 128,-1,5
 671 1300 671 1300 650 1300 c 2,6,-1
 200 1300 l 1,7,-1
 200 800 l 1,8,-1
 400 800 l 2,9,10
 566 800 566 800 683 683 c 128,-1,11
 800 566 800 566 800 400 c 128,-1,12
 800 234 800 234 683 117 c 128,-1,13
 566 0 566 0 400 0 c 2,14,-1
 150 0 l 2,15,16
 129 0 129 0 114.5 14.5 c 128,-1,17
 100 29 100 29 100 50 c 2,18,-1
 100 1350 l 2,19,20
 100 1371 100 1371 114.5 1385.5 c 128,-1,21
 129 1400 129 1400 150 1400 c 2,0,-1
200 700 m 1,22,-1
 200 100 l 1,23,-1
 400 100 l 2,24,25
 524 100 524 100 612 188 c 128,-1,26
 700 276 700 276 700 400 c 128,-1,27
 700 524 700 524 612 612 c 128,-1,28
 524 700 524 700 400 700 c 2,29,-1
 200 700 l 1,22,-1
EndSplineSet
EndChar

StartChar: afii10020
Encoding: 1043 1043 266
Width: 750
Flags: W
LayerCount: 2
Back
Fore
SplineSet
150 1400 m 2,0,-1
 650 1400 l 2,1,2
 671 1400 671 1400 685.5 1385.5 c 128,-1,3
 700 1371 700 1371 700 1350 c 128,-1,4
 700 1329 700 1329 685.5 1314.5 c 128,-1,5
 671 1300 671 1300 650 1300 c 2,6,-1
 200 1300 l 1,7,-1
 200 50 l 2,8,9
 200 29 200 29 185.5 14.5 c 128,-1,10
 171 0 171 0 150 0 c 128,-1,11
 129 0 129 0 114.5 14.5 c 128,-1,12
 100 29 100 29 100 50 c 2,13,-1
 100 1350 l 2,14,15
 100 1371 100 1371 114.5 1385.5 c 128,-1,16
 129 1400 129 1400 150 1400 c 2,0,-1
EndSplineSet
EndChar

StartChar: afii10021
Encoding: 1044 1044 267
Width: 850
Flags: W
LayerCount: 2
Back
Fore
SplineSet
370 1400 m 2,0,-1
 670 1400 l 2,1,2
 691 1400 691 1400 705.5 1385.5 c 128,-1,3
 720 1371 720 1371 720 1350 c 2,4,-1
 720 100 l 1,5,-1
 770 100 l 2,6,7
 791 100 791 100 805.5 85.5 c 128,-1,8
 820 71 820 71 820 50 c 2,9,-1
 820 -50 l 2,10,11
 820 -71 820 -71 805.5 -85.5 c 128,-1,12
 791 -100 791 -100 770 -100 c 128,-1,13
 749 -100 749 -100 734.5 -85.5 c 128,-1,14
 720 -71 720 -71 720 -50 c 2,15,-1
 720 0 l 1,16,-1
 120 0 l 1,17,-1
 120 -50 l 2,18,19
 120 -71 120 -71 105.5 -85.5 c 128,-1,20
 91 -100 91 -100 70 -100 c 128,-1,21
 49 -100 49 -100 34.5 -85.5 c 128,-1,22
 20 -71 20 -71 20 -50 c 2,23,-1
 20 50 l 2,24,25
 20 71 20 71 34.5 85.5 c 128,-1,26
 49 100 49 100 70 100 c 2,27,-1
 127 100 l 1,28,-1
 321 1358 l 2,29,30
 324 1376 324 1376 337.5 1388 c 128,-1,31
 351 1400 351 1400 370 1400 c 2,0,-1
413 1300 m 1,32,-1
 228 100 l 1,33,-1
 620 100 l 1,34,-1
 620 1300 l 1,35,-1
 413 1300 l 1,32,-1
EndSplineSet
EndChar

StartChar: afii10024
Encoding: 1046 1046 269
Width: 1060
Flags: W
LayerCount: 2
Back
Fore
SplineSet
130 1400 m 0,0,1
 158 1400 158 1400 173 1375 c 2,2,-1
 480 838 l 1,3,-1
 480 1350 l 2,4,5
 480 1371 480 1371 494.5 1385.5 c 128,-1,6
 509 1400 509 1400 530 1400 c 128,-1,7
 551 1400 551 1400 565.5 1385.5 c 128,-1,8
 580 1371 580 1371 580 1350 c 2,9,-1
 580 838 l 1,10,-1
 887 1375 l 2,11,12
 902 1400 902 1400 930 1400 c 0,13,14
 951 1400 951 1400 965.5 1385.5 c 128,-1,15
 980 1371 980 1371 980 1350 c 0,16,17
 980 1337 980 1337 973 1325 c 2,18,-1
 640 742 l 1,19,-1
 975 72 l 2,20,21
 980 60 980 60 980 50 c 0,22,23
 980 29 980 29 965.5 14.5 c 128,-1,24
 951 0 951 0 930 0 c 0,25,26
 899 0 899 0 885 28 c 2,27,-1
 580 638 l 1,28,-1
 580 50 l 2,29,30
 580 29 580 29 565.5 14.5 c 128,-1,31
 551 0 551 0 530 0 c 128,-1,32
 509 0 509 0 494.5 14.5 c 128,-1,33
 480 29 480 29 480 50 c 2,34,-1
 480 638 l 1,35,-1
 175 28 l 2,36,37
 161 0 161 0 130 0 c 0,38,39
 109 0 109 0 94.5 14.5 c 128,-1,40
 80 29 80 29 80 50 c 0,41,42
 80 60 80 60 85 72 c 2,43,-1
 420 742 l 1,44,-1
 87 1325 l 2,45,46
 80 1337 80 1337 80 1350 c 0,47,48
 80 1371 80 1371 94.5 1385.5 c 128,-1,49
 109 1400 109 1400 130 1400 c 0,0,1
EndSplineSet
EndChar

StartChar: afii10025
Encoding: 1047 1047 270
Width: 840
Flags: W
LayerCount: 2
Back
Fore
SplineSet
420 1430 m 0,0,1
 560 1430 560 1430 648 1333 c 0,2,3
 740 1231 740 1231 740 1065 c 128,-1,4
 740 899 740 899 648 797 c 0,5,6
 624 771 624 771 598 754 c 1,7,8
 638 731 638 731 669 697 c 0,9,10
 770 587 770 587 770 385 c 128,-1,11
 770 183 770 183 669 73 c 0,12,13
 575 -30 575 -30 420 -30 c 0,14,15
 279 -30 279 -30 197 15 c 0,16,17
 173 28 173 28 149.5 47.5 c 128,-1,18
 126 67 126 67 114.5 80 c 128,-1,19
 103 93 103 93 82 117 c 0,20,21
 70 130 70 130 70 150 c 0,22,23
 70 171 70 171 84.5 185.5 c 128,-1,24
 99 200 99 200 120 200 c 0,25,26
 144 200 144 200 158 183 c 0,27,28
 211 121 211 121 245 103 c 0,29,30
 306 70 306 70 420 70 c 0,31,32
 530 70 530 70 595 141 c 0,33,34
 670 223 670 223 670 385 c 128,-1,35
 670 547 670 547 595 629 c 0,36,37
 530 700 530 700 420 700 c 2,38,-1
 320 700 l 2,39,40
 299 700 299 700 284.5 714.5 c 128,-1,41
 270 729 270 729 270 750 c 128,-1,42
 270 771 270 771 284.5 785.5 c 128,-1,43
 299 800 299 800 320 800 c 2,44,-1
 420 800 l 2,45,46
 516 800 516 800 574 864 c 0,47,48
 640 937 640 937 640 1065 c 128,-1,49
 640 1193 640 1193 574 1266 c 0,50,51
 516 1330 516 1330 420 1330 c 0,52,53
 334 1330 334 1330 286 1314 c 128,-1,54
 238 1298 238 1298 205 1265 c 0,55,56
 190 1250 190 1250 170 1250 c 0,57,58
 149 1250 149 1250 134.5 1264.5 c 128,-1,59
 120 1279 120 1279 120 1300 c 0,60,61
 120 1320 120 1320 135 1335 c 0,62,63
 228 1430 228 1430 420 1430 c 0,0,1
EndSplineSet
EndChar

StartChar: afii10026
Encoding: 1048 1048 271
Width: 900
Flags: W
LayerCount: 2
Back
Fore
SplineSet
150 1400 m 128,-1,1
 171 1400 171 1400 185.5 1385.5 c 128,-1,2
 200 1371 200 1371 200 1350 c 2,3,-1
 200 278 l 1,4,-1
 705 1371 l 2,5,6
 718 1400 718 1400 750 1400 c 0,7,8
 771 1400 771 1400 785.5 1385.5 c 128,-1,9
 800 1371 800 1371 800 1350 c 2,10,-1
 800 50 l 2,11,12
 800 29 800 29 785.5 14.5 c 128,-1,13
 771 0 771 0 750 0 c 128,-1,14
 729 0 729 0 714.5 14.5 c 128,-1,15
 700 29 700 29 700 50 c 2,16,-1
 700 1122 l 1,17,-1
 195 29 l 2,18,19
 182 0 182 0 150 0 c 0,20,21
 129 0 129 0 114.5 14.5 c 128,-1,22
 100 29 100 29 100 50 c 2,23,-1
 100 1350 l 2,24,25
 100 1371 100 1371 114.5 1385.5 c 128,-1,0
 129 1400 129 1400 150 1400 c 128,-1,1
EndSplineSet
EndChar

StartChar: afii10027
Encoding: 1049 1049 272
Width: 900
Flags: W
LayerCount: 2
Back
Fore
SplineSet
150 1400 m 128,-1,1
 171 1400 171 1400 185.5 1385.5 c 128,-1,2
 200 1371 200 1371 200 1350 c 2,3,-1
 200 278 l 1,4,-1
 705 1371 l 2,5,6
 718 1400 718 1400 750 1400 c 0,7,8
 771 1400 771 1400 785.5 1385.5 c 128,-1,9
 800 1371 800 1371 800 1350 c 2,10,-1
 800 50 l 2,11,12
 800 29 800 29 785.5 14.5 c 128,-1,13
 771 0 771 0 750 0 c 128,-1,14
 729 0 729 0 714.5 14.5 c 128,-1,15
 700 29 700 29 700 50 c 2,16,-1
 700 1122 l 1,17,-1
 195 29 l 2,18,19
 182 0 182 0 150 0 c 0,20,21
 129 0 129 0 114.5 14.5 c 128,-1,22
 100 29 100 29 100 50 c 2,23,-1
 100 1350 l 2,24,25
 100 1371 100 1371 114.5 1385.5 c 128,-1,0
 129 1400 129 1400 150 1400 c 128,-1,1
350 1600 m 2,26,-1
 550 1600 l 2,27,28
 571 1600 571 1600 585.5 1585.5 c 128,-1,29
 600 1571 600 1571 600 1550 c 128,-1,30
 600 1529 600 1529 585.5 1514.5 c 128,-1,31
 571 1500 571 1500 550 1500 c 2,32,-1
 350 1500 l 2,33,34
 329 1500 329 1500 314.5 1514.5 c 128,-1,35
 300 1529 300 1529 300 1550 c 128,-1,36
 300 1571 300 1571 314.5 1585.5 c 128,-1,37
 329 1600 329 1600 350 1600 c 2,26,-1
EndSplineSet
EndChar

StartChar: afii10029
Encoding: 1051 1051 274
Width: 850
Flags: W
LayerCount: 2
Back
Fore
SplineSet
410 1400 m 2,0,-1
 700 1400 l 2,1,2
 721 1400 721 1400 735.5 1385.5 c 128,-1,3
 750 1371 750 1371 750 1350 c 2,4,-1
 750 50 l 2,5,6
 750 29 750 29 735.5 14.5 c 128,-1,7
 721 0 721 0 700 0 c 128,-1,8
 679 0 679 0 664.5 14.5 c 128,-1,9
 650 29 650 29 650 50 c 2,10,-1
 650 1300 l 1,11,-1
 449 1300 l 1,12,-1
 149 38 l 2,13,14
 145 21 145 21 131.5 10.5 c 128,-1,15
 118 0 118 0 100 0 c 0,16,17
 79 0 79 0 64.5 14.5 c 128,-1,18
 50 29 50 29 50 50 c 0,19,20
 50 58 50 58 51 62 c 2,21,-1
 361 1362 l 2,22,23
 365 1379 365 1379 378.5 1389.5 c 128,-1,24
 392 1400 392 1400 410 1400 c 2,0,-1
EndSplineSet
EndChar

StartChar: afii10033
Encoding: 1055 1055 278
Width: 900
Flags: W
LayerCount: 2
Back
Fore
SplineSet
150 1400 m 2,0,-1
 750 1400 l 2,1,2
 771 1400 771 1400 785.5 1385.5 c 128,-1,3
 800 1371 800 1371 800 1350 c 2,4,-1
 800 50 l 2,5,6
 800 29 800 29 785.5 14.5 c 128,-1,7
 771 0 771 0 750 0 c 128,-1,8
 729 0 729 0 714.5 14.5 c 128,-1,9
 700 29 700 29 700 50 c 2,10,-1
 700 1300 l 1,11,-1
 200 1300 l 1,12,-1
 200 50 l 2,13,14
 200 29 200 29 185.5 14.5 c 128,-1,15
 171 0 171 0 150 0 c 128,-1,16
 129 0 129 0 114.5 14.5 c 128,-1,17
 100 29 100 29 100 50 c 2,18,-1
 100 1350 l 2,19,20
 100 1371 100 1371 114.5 1385.5 c 128,-1,21
 129 1400 129 1400 150 1400 c 2,0,-1
EndSplineSet
EndChar

StartChar: afii10037
Encoding: 1059 1059 282
Width: 890
Flags: W
LayerCount: 2
Back
Fore
SplineSet
140 1400 m 128,-1,1
 161 1400 161 1400 175.5 1385.5 c 128,-1,2
 190 1371 190 1371 190 1350 c 2,3,-1
 190 1000 l 2,4,5
 190 876 190 876 278 788 c 128,-1,6
 366 700 366 700 490 700 c 2,7,-1
 690 700 l 1,8,-1
 690 1350 l 2,9,10
 690 1371 690 1371 704.5 1385.5 c 128,-1,11
 719 1400 719 1400 740 1400 c 128,-1,12
 761 1400 761 1400 775.5 1385.5 c 128,-1,13
 790 1371 790 1371 790 1350 c 2,14,-1
 790 300 l 2,15,16
 790 176 790 176 702 88 c 128,-1,17
 614 0 614 0 490 0 c 2,18,-1
 240 0 l 2,19,20
 219 0 219 0 204.5 14.5 c 128,-1,21
 190 29 190 29 190 50 c 128,-1,22
 190 71 190 71 204.5 85.5 c 128,-1,23
 219 100 219 100 240 100 c 2,24,-1
 490 100 l 2,25,26
 572 100 572 100 631 159 c 128,-1,27
 690 218 690 218 690 300 c 2,28,-1
 690 600 l 1,29,-1
 490 600 l 2,30,31
 324 600 324 600 207 717 c 128,-1,32
 90 834 90 834 90 1000 c 2,33,-1
 90 1350 l 2,34,35
 90 1371 90 1371 104.5 1385.5 c 128,-1,0
 119 1400 119 1400 140 1400 c 128,-1,1
EndSplineSet
EndChar

StartChar: afii10038
Encoding: 1060 1060 283
Width: 1200
Flags: W
LayerCount: 2
Back
Fore
SplineSet
600 1400 m 128,-1,1
 621 1400 621 1400 635.5 1385.5 c 128,-1,2
 650 1371 650 1371 650 1350 c 2,3,-1
 650 1200 l 1,4,-1
 700 1200 l 2,5,6
 822 1200 822 1200 926 1140 c 128,-1,7
 1030 1080 1030 1080 1090 976 c 128,-1,8
 1150 872 1150 872 1150 750 c 128,-1,9
 1150 628 1150 628 1090 524 c 128,-1,10
 1030 420 1030 420 926 360 c 128,-1,11
 822 300 822 300 700 300 c 2,12,-1
 650 300 l 1,13,-1
 650 50 l 2,14,15
 650 29 650 29 635.5 14.5 c 128,-1,16
 621 0 621 0 600 0 c 128,-1,17
 579 0 579 0 564.5 14.5 c 128,-1,18
 550 29 550 29 550 50 c 2,19,-1
 550 300 l 1,20,-1
 500 300 l 2,21,22
 378 300 378 300 274 360 c 128,-1,23
 170 420 170 420 110 524 c 128,-1,24
 50 628 50 628 50 750 c 128,-1,25
 50 872 50 872 110 976 c 128,-1,26
 170 1080 170 1080 274 1140 c 128,-1,27
 378 1200 378 1200 500 1200 c 2,28,-1
 550 1200 l 1,29,-1
 550 1350 l 2,30,31
 550 1371 550 1371 564.5 1385.5 c 128,-1,0
 579 1400 579 1400 600 1400 c 128,-1,1
500 1100 m 2,32,33
 355 1100 355 1100 252.5 997.5 c 128,-1,34
 150 895 150 895 150 750 c 128,-1,35
 150 605 150 605 252.5 502.5 c 128,-1,36
 355 400 355 400 500 400 c 2,37,-1
 550 400 l 1,38,-1
 550 1100 l 1,39,-1
 500 1100 l 2,32,33
650 1100 m 1,40,-1
 650 400 l 1,41,-1
 700 400 l 2,42,43
 845 400 845 400 947.5 502.5 c 128,-1,44
 1050 605 1050 605 1050 750 c 128,-1,45
 1050 895 1050 895 947.5 997.5 c 128,-1,46
 845 1100 845 1100 700 1100 c 2,47,-1
 650 1100 l 1,40,-1
EndSplineSet
EndChar

StartChar: afii10040
Encoding: 1062 1062 285
Width: 930
Flags: W
LayerCount: 2
Back
Fore
SplineSet
150 1400 m 128,-1,1
 171 1400 171 1400 185.5 1385.5 c 128,-1,2
 200 1371 200 1371 200 1350 c 2,3,-1
 200 100 l 1,4,-1
 700 100 l 1,5,-1
 700 1350 l 2,6,7
 700 1371 700 1371 714.5 1385.5 c 128,-1,8
 729 1400 729 1400 750 1400 c 128,-1,9
 771 1400 771 1400 785.5 1385.5 c 128,-1,10
 800 1371 800 1371 800 1350 c 2,11,-1
 800 100 l 1,12,-1
 850 100 l 2,13,14
 871 100 871 100 885.5 85.5 c 128,-1,15
 900 71 900 71 900 50 c 2,16,-1
 900 -150 l 2,17,18
 900 -171 900 -171 885.5 -185.5 c 128,-1,19
 871 -200 871 -200 850 -200 c 128,-1,20
 829 -200 829 -200 814.5 -185.5 c 128,-1,21
 800 -171 800 -171 800 -150 c 2,22,-1
 800 0 l 1,23,-1
 150 0 l 2,24,25
 129 0 129 0 114.5 14.5 c 128,-1,26
 100 29 100 29 100 50 c 2,27,-1
 100 1350 l 2,28,29
 100 1371 100 1371 114.5 1385.5 c 128,-1,0
 129 1400 129 1400 150 1400 c 128,-1,1
EndSplineSet
EndChar

StartChar: afii10041
Encoding: 1063 1063 286
Width: 890
Flags: W
LayerCount: 2
Back
Fore
SplineSet
140 1400 m 128,-1,1
 161 1400 161 1400 175.5 1385.5 c 128,-1,2
 190 1371 190 1371 190 1350 c 2,3,-1
 190 1000 l 2,4,5
 190 876 190 876 278 788 c 128,-1,6
 366 700 366 700 490 700 c 2,7,-1
 690 700 l 1,8,-1
 690 1350 l 2,9,10
 690 1371 690 1371 704.5 1385.5 c 128,-1,11
 719 1400 719 1400 740 1400 c 128,-1,12
 761 1400 761 1400 775.5 1385.5 c 128,-1,13
 790 1371 790 1371 790 1350 c 2,14,-1
 790 50 l 2,15,16
 790 29 790 29 775.5 14.5 c 128,-1,17
 761 0 761 0 740 0 c 128,-1,18
 719 0 719 0 704.5 14.5 c 128,-1,19
 690 29 690 29 690 50 c 2,20,-1
 690 600 l 1,21,-1
 490 600 l 2,22,23
 324 600 324 600 207 717 c 128,-1,24
 90 834 90 834 90 1000 c 2,25,-1
 90 1350 l 2,26,27
 90 1371 90 1371 104.5 1385.5 c 128,-1,0
 119 1400 119 1400 140 1400 c 128,-1,1
EndSplineSet
EndChar

StartChar: afii10042
Encoding: 1064 1064 287
Width: 1100
Flags: W
LayerCount: 2
Back
Fore
SplineSet
150 1400 m 128,-1,1
 171 1400 171 1400 185.5 1385.5 c 128,-1,2
 200 1371 200 1371 200 1350 c 2,3,-1
 200 100 l 1,4,-1
 500 100 l 1,5,-1
 500 1350 l 2,6,7
 500 1371 500 1371 514.5 1385.5 c 128,-1,8
 529 1400 529 1400 550 1400 c 128,-1,9
 571 1400 571 1400 585.5 1385.5 c 128,-1,10
 600 1371 600 1371 600 1350 c 2,11,-1
 600 100 l 1,12,-1
 900 100 l 1,13,-1
 900 1350 l 2,14,15
 900 1371 900 1371 914.5 1385.5 c 128,-1,16
 929 1400 929 1400 950 1400 c 128,-1,17
 971 1400 971 1400 985.5 1385.5 c 128,-1,18
 1000 1371 1000 1371 1000 1350 c 2,19,-1
 1000 50 l 2,20,21
 1000 29 1000 29 985.5 14.5 c 128,-1,22
 971 0 971 0 950 0 c 2,23,-1
 150 0 l 2,24,25
 129 0 129 0 114.5 14.5 c 128,-1,26
 100 29 100 29 100 50 c 2,27,-1
 100 1350 l 2,28,29
 100 1371 100 1371 114.5 1385.5 c 128,-1,0
 129 1400 129 1400 150 1400 c 128,-1,1
EndSplineSet
EndChar

StartChar: afii10043
Encoding: 1065 1065 288
Width: 1130
Flags: W
LayerCount: 2
Back
Fore
SplineSet
150 1400 m 128,-1,1
 171 1400 171 1400 185.5 1385.5 c 128,-1,2
 200 1371 200 1371 200 1350 c 2,3,-1
 200 100 l 1,4,-1
 500 100 l 1,5,-1
 500 1350 l 2,6,7
 500 1371 500 1371 514.5 1385.5 c 128,-1,8
 529 1400 529 1400 550 1400 c 128,-1,9
 571 1400 571 1400 585.5 1385.5 c 128,-1,10
 600 1371 600 1371 600 1350 c 2,11,-1
 600 100 l 1,12,-1
 900 100 l 1,13,-1
 900 1350 l 2,14,15
 900 1371 900 1371 914.5 1385.5 c 128,-1,16
 929 1400 929 1400 950 1400 c 128,-1,17
 971 1400 971 1400 985.5 1385.5 c 128,-1,18
 1000 1371 1000 1371 1000 1350 c 2,19,-1
 1000 100 l 1,20,-1
 1050 100 l 2,21,22
 1071 100 1071 100 1085.5 85.5 c 128,-1,23
 1100 71 1100 71 1100 50 c 2,24,-1
 1100 -150 l 2,25,26
 1100 -171 1100 -171 1085.5 -185.5 c 128,-1,27
 1071 -200 1071 -200 1050 -200 c 128,-1,28
 1029 -200 1029 -200 1014.5 -185.5 c 128,-1,29
 1000 -171 1000 -171 1000 -150 c 2,30,-1
 1000 0 l 1,31,-1
 150 0 l 2,32,33
 129 0 129 0 114.5 14.5 c 128,-1,34
 100 29 100 29 100 50 c 2,35,-1
 100 1350 l 2,36,37
 100 1371 100 1371 114.5 1385.5 c 128,-1,0
 129 1400 129 1400 150 1400 c 128,-1,1
EndSplineSet
EndChar

StartChar: afii10044
Encoding: 1066 1066 289
Width: 1000
Flags: W
LayerCount: 2
Back
Fore
SplineSet
80 1400 m 2,0,-1
 280 1400 l 2,1,2
 301 1400 301 1400 315.5 1385.5 c 128,-1,3
 330 1371 330 1371 330 1350 c 2,4,-1
 330 800 l 1,5,-1
 530 800 l 2,6,7
 696 800 696 800 813 683 c 128,-1,8
 930 566 930 566 930 400 c 128,-1,9
 930 234 930 234 813 117 c 128,-1,10
 696 0 696 0 530 0 c 2,11,-1
 280 0 l 2,12,13
 259 0 259 0 244.5 14.5 c 128,-1,14
 230 29 230 29 230 50 c 2,15,-1
 230 1300 l 1,16,-1
 80 1300 l 2,17,18
 59 1300 59 1300 44.5 1314.5 c 128,-1,19
 30 1329 30 1329 30 1350 c 128,-1,20
 30 1371 30 1371 44.5 1385.5 c 128,-1,21
 59 1400 59 1400 80 1400 c 2,0,-1
330 700 m 1,22,-1
 330 100 l 1,23,-1
 530 100 l 2,24,25
 654 100 654 100 742 188 c 128,-1,26
 830 276 830 276 830 400 c 128,-1,27
 830 524 830 524 742 612 c 128,-1,28
 654 700 654 700 530 700 c 2,29,-1
 330 700 l 1,22,-1
EndSplineSet
EndChar

StartChar: afii10045
Encoding: 1067 1067 290
Width: 1000
Flags: W
LayerCount: 2
Back
Fore
SplineSet
150 1400 m 128,-1,1
 171 1400 171 1400 185.5 1385.5 c 128,-1,2
 200 1371 200 1371 200 1350 c 2,3,-1
 200 800 l 1,4,-1
 300 800 l 2,5,6
 466 800 466 800 583 683 c 128,-1,7
 700 566 700 566 700 400 c 128,-1,8
 700 234 700 234 583 117 c 128,-1,9
 466 0 466 0 300 0 c 2,10,-1
 150 0 l 2,11,12
 129 0 129 0 114.5 14.5 c 128,-1,13
 100 29 100 29 100 50 c 2,14,-1
 100 1350 l 2,15,16
 100 1371 100 1371 114.5 1385.5 c 128,-1,0
 129 1400 129 1400 150 1400 c 128,-1,1
200 700 m 1,17,-1
 200 100 l 1,18,-1
 300 100 l 2,19,20
 424 100 424 100 512 188 c 128,-1,21
 600 276 600 276 600 400 c 128,-1,22
 600 524 600 524 512 612 c 128,-1,23
 424 700 424 700 300 700 c 2,24,-1
 200 700 l 1,17,-1
850 1400 m 128,-1,26
 871 1400 871 1400 885.5 1385.5 c 128,-1,27
 900 1371 900 1371 900 1350 c 2,28,-1
 900 50 l 2,29,30
 900 29 900 29 885.5 14.5 c 128,-1,31
 871 0 871 0 850 0 c 128,-1,32
 829 0 829 0 814.5 14.5 c 128,-1,33
 800 29 800 29 800 50 c 2,34,-1
 800 1350 l 2,35,36
 800 1371 800 1371 814.5 1385.5 c 128,-1,25
 829 1400 829 1400 850 1400 c 128,-1,26
EndSplineSet
EndChar

StartChar: afii10046
Encoding: 1068 1068 291
Width: 870
Flags: W
LayerCount: 2
Back
Fore
SplineSet
150 1400 m 128,-1,1
 171 1400 171 1400 185.5 1385.5 c 128,-1,2
 200 1371 200 1371 200 1350 c 2,3,-1
 200 800 l 1,4,-1
 400 800 l 2,5,6
 566 800 566 800 683 683 c 128,-1,7
 800 566 800 566 800 400 c 128,-1,8
 800 234 800 234 683 117 c 128,-1,9
 566 0 566 0 400 0 c 2,10,-1
 150 0 l 2,11,12
 129 0 129 0 114.5 14.5 c 128,-1,13
 100 29 100 29 100 50 c 2,14,-1
 100 1350 l 2,15,16
 100 1371 100 1371 114.5 1385.5 c 128,-1,0
 129 1400 129 1400 150 1400 c 128,-1,1
200 700 m 1,17,-1
 200 100 l 1,18,-1
 400 100 l 2,19,20
 524 100 524 100 612 188 c 128,-1,21
 700 276 700 276 700 400 c 128,-1,22
 700 524 700 524 612 612 c 128,-1,23
 524 700 524 700 400 700 c 2,24,-1
 200 700 l 1,17,-1
EndSplineSet
EndChar

StartChar: afii10047
Encoding: 1069 1069 292
Width: 870
Flags: W
LayerCount: 2
Back
Fore
SplineSet
130 1400 m 2,0,-1
 430 1400 l 2,1,2
 575 1400 575 1400 677.5 1297.5 c 128,-1,3
 780 1195 780 1195 780 1050 c 2,4,-1
 780 350 l 2,5,6
 780 205 780 205 677.5 102.5 c 128,-1,7
 575 0 575 0 430 0 c 2,8,-1
 130 0 l 2,9,10
 109 0 109 0 94.5 14.5 c 128,-1,11
 80 29 80 29 80 50 c 128,-1,12
 80 71 80 71 94.5 85.5 c 128,-1,13
 109 100 109 100 130 100 c 2,14,-1
 430 100 l 2,15,16
 534 100 534 100 607 173 c 128,-1,17
 680 246 680 246 680 350 c 2,18,-1
 680 700 l 1,19,-1
 330 700 l 2,20,21
 309 700 309 700 294.5 714.5 c 128,-1,22
 280 729 280 729 280 750 c 128,-1,23
 280 771 280 771 294.5 785.5 c 128,-1,24
 309 800 309 800 330 800 c 2,25,-1
 680 800 l 1,26,-1
 680 1050 l 2,27,28
 680 1154 680 1154 607 1227 c 128,-1,29
 534 1300 534 1300 430 1300 c 2,30,-1
 130 1300 l 2,31,32
 109 1300 109 1300 94.5 1314.5 c 128,-1,33
 80 1329 80 1329 80 1350 c 128,-1,34
 80 1371 80 1371 94.5 1385.5 c 128,-1,35
 109 1400 109 1400 130 1400 c 2,0,-1
EndSplineSet
EndChar

StartChar: afii10048
Encoding: 1070 1070 293
Width: 990
Flags: W
LayerCount: 2
Back
Fore
SplineSet
150 1400 m 128,-1,1
 171 1400 171 1400 185.5 1385.5 c 128,-1,2
 200 1371 200 1371 200 1350 c 2,3,-1
 200 800 l 1,4,-1
 300 800 l 1,5,-1
 300 1130 l 2,6,7
 300 1254 300 1254 388 1342 c 128,-1,8
 476 1430 476 1430 600 1430 c 128,-1,9
 724 1430 724 1430 812 1342 c 128,-1,10
 900 1254 900 1254 900 1130 c 2,11,-1
 900 270 l 2,12,13
 900 146 900 146 812 58 c 128,-1,14
 724 -30 724 -30 600 -30 c 128,-1,15
 476 -30 476 -30 388 58 c 128,-1,16
 300 146 300 146 300 270 c 2,17,-1
 300 700 l 1,18,-1
 200 700 l 1,19,-1
 200 50 l 2,20,21
 200 29 200 29 185.5 14.5 c 128,-1,22
 171 0 171 0 150 0 c 128,-1,23
 129 0 129 0 114.5 14.5 c 128,-1,24
 100 29 100 29 100 50 c 2,25,-1
 100 1350 l 2,26,27
 100 1371 100 1371 114.5 1385.5 c 128,-1,0
 129 1400 129 1400 150 1400 c 128,-1,1
600 1330 m 128,-1,29
 518 1330 518 1330 459 1271 c 128,-1,30
 400 1212 400 1212 400 1130 c 2,31,-1
 400 270 l 2,32,33
 400 188 400 188 459 129 c 128,-1,34
 518 70 518 70 600 70 c 128,-1,35
 682 70 682 70 741 129 c 128,-1,36
 800 188 800 188 800 270 c 2,37,-1
 800 1130 l 2,38,39
 800 1212 800 1212 741 1271 c 128,-1,28
 682 1330 682 1330 600 1330 c 128,-1,29
EndSplineSet
EndChar

StartChar: afii10049
Encoding: 1071 1071 294
Width: 880
Flags: W
LayerCount: 2
Back
Fore
SplineSet
730 1400 m 2,0,1
 751 1400 751 1400 765.5 1385.5 c 128,-1,2
 780 1371 780 1371 780 1350 c 2,3,-1
 780 50 l 2,4,5
 780 29 780 29 765.5 14.5 c 128,-1,6
 751 0 751 0 730 0 c 128,-1,7
 709 0 709 0 694.5 14.5 c 128,-1,8
 680 29 680 29 680 50 c 2,9,-1
 680 600 l 1,10,-1
 509 600 l 1,11,-1
 173 25 l 2,12,13
 158 0 158 0 130 0 c 0,14,15
 109 0 109 0 94.5 14.5 c 128,-1,16
 80 29 80 29 80 50 c 0,17,18
 80 63 80 63 87 75 c 2,19,-1
 398 608 l 1,20,21
 260 637 260 637 170 746.5 c 128,-1,22
 80 856 80 856 80 1000 c 0,23,24
 80 1166 80 1166 197 1283 c 128,-1,25
 314 1400 314 1400 480 1400 c 2,26,-1
 730 1400 l 2,0,1
680 1300 m 1,27,-1
 480 1300 l 2,28,29
 356 1300 356 1300 268 1212 c 128,-1,30
 180 1124 180 1124 180 1000 c 128,-1,31
 180 876 180 876 268 788 c 128,-1,32
 356 700 356 700 480 700 c 2,33,-1
 680 700 l 1,34,-1
 680 1300 l 1,27,-1
EndSplineSet
EndChar

StartChar: afii10066
Encoding: 1073 1073 296
Width: 780
Flags: W
LayerCount: 2
Back
Fore
SplineSet
140 1400 m 2,0,-1
 640 1400 l 2,1,2
 661 1400 661 1400 675.5 1385.5 c 128,-1,3
 690 1371 690 1371 690 1350 c 128,-1,4
 690 1329 690 1329 675.5 1314.5 c 128,-1,5
 661 1300 661 1300 640 1300 c 2,6,-1
 256 1300 l 1,7,-1
 608 926 l 2,8,9
 690 839 690 839 690 720 c 2,10,-1
 690 280 l 2,11,12
 690 156 690 156 602 68 c 128,-1,13
 514 -20 514 -20 390 -20 c 128,-1,14
 266 -20 266 -20 178 68 c 128,-1,15
 90 156 90 156 90 280 c 2,16,-1
 90 720 l 2,17,18
 90 842 90 842 175 929.5 c 128,-1,19
 260 1017 260 1017 382 1020 c 1,20,-1
 104 1316 l 2,21,22
 90 1332 90 1332 90 1350 c 0,23,24
 90 1371 90 1371 104.5 1385.5 c 128,-1,25
 119 1400 119 1400 140 1400 c 2,0,-1
390 920 m 128,-1,27
 308 920 308 920 249 861 c 128,-1,28
 190 802 190 802 190 720 c 2,29,-1
 190 280 l 2,30,31
 190 198 190 198 249 139 c 128,-1,32
 308 80 308 80 390 80 c 128,-1,33
 472 80 472 80 531 139 c 128,-1,34
 590 198 590 198 590 280 c 2,35,-1
 590 720 l 2,36,37
 590 802 590 802 531 861 c 128,-1,26
 472 920 472 920 390 920 c 128,-1,27
EndSplineSet
EndChar

StartChar: afii10067
Encoding: 1074 1074 297
Width: 790
Flags: W
LayerCount: 2
Back
Fore
SplineSet
300 1420 m 128,-1,1
 382 1420 382 1420 441 1361 c 128,-1,2
 500 1302 500 1302 500 1220 c 0,3,4
 500 1146 500 1146 452 1090 c 2,5,-1
 392 1020 l 1,6,-1
 400 1020 l 2,7,8
 524 1020 524 1020 612 932 c 128,-1,9
 700 844 700 844 700 720 c 2,10,-1
 700 280 l 2,11,12
 700 156 700 156 612 68 c 128,-1,13
 524 -20 524 -20 400 -20 c 128,-1,14
 276 -20 276 -20 188 68 c 128,-1,15
 100 156 100 156 100 280 c 2,16,-1
 100 1220 l 2,17,18
 100 1302 100 1302 159 1361 c 128,-1,0
 218 1420 218 1420 300 1420 c 128,-1,1
300 1320 m 128,-1,20
 259 1320 259 1320 229.5 1290.5 c 128,-1,21
 200 1261 200 1261 200 1220 c 2,22,-1
 200 948 l 1,23,-1
 376 1155 l 2,24,25
 400 1182 400 1182 400 1220 c 0,26,27
 400 1261 400 1261 370.5 1290.5 c 128,-1,19
 341 1320 341 1320 300 1320 c 128,-1,20
400 920 m 128,-1,29
 318 920 318 920 259 861 c 128,-1,30
 200 802 200 802 200 720 c 2,31,-1
 200 280 l 2,32,33
 200 198 200 198 259 139 c 128,-1,34
 318 80 318 80 400 80 c 128,-1,35
 482 80 482 80 541 139 c 128,-1,36
 600 198 600 198 600 280 c 2,37,-1
 600 720 l 2,38,39
 600 802 600 802 541 861 c 128,-1,28
 482 920 482 920 400 920 c 128,-1,29
EndSplineSet
EndChar

StartChar: afii10068
Encoding: 1075 1075 298
Width: 750
Flags: W
LayerCount: 2
Back
Fore
SplineSet
380 1020 m 0,0,1
 518 1020 518 1020 595 960 c 0,2,3
 670 901 670 901 670 800 c 0,4,5
 670 691 670 691 585 626 c 2,6,-1
 228 348 l 2,7,8
 170 303 170 303 170 230 c 0,9,10
 170 164 170 164 211 126 c 0,11,12
 261 80 261 80 370 80 c 0,13,14
 530 80 530 80 585 135 c 0,15,16
 600 150 600 150 620 150 c 0,17,18
 641 150 641 150 655.5 135.5 c 128,-1,19
 670 121 670 121 670 100 c 0,20,21
 670 80 670 80 655 65 c 0,22,23
 571 -20 571 -20 370 -20 c 0,24,25
 224 -20 224 -20 144 52 c 0,26,27
 70 119 70 119 70 230 c 0,28,29
 70 352 70 352 166 427 c 2,30,-1
 524 705 l 2,31,32
 570 741 570 741 570 800 c 0,33,34
 570 852 570 852 533 881 c 0,35,36
 483 920 483 920 380 920 c 0,37,38
 296 920 296 920 250 907 c 128,-1,39
 204 894 204 894 175 865 c 0,40,41
 160 850 160 850 140 850 c 0,42,43
 119 850 119 850 104.5 864.5 c 128,-1,44
 90 879 90 879 90 900 c 0,45,46
 90 920 90 920 105 935 c 0,47,48
 189 1020 189 1020 380 1020 c 0,0,1
EndSplineSet
EndChar

StartChar: afii10069
Encoding: 1076 1076 299
Width: 790
Flags: W
LayerCount: 2
Back
Fore
SplineSet
240 1400 m 2,0,-1
 490 1400 l 2,1,2
 572 1400 572 1400 631 1341 c 128,-1,3
 690 1282 690 1282 690 1200 c 2,4,-1
 690 280 l 2,5,6
 690 156 690 156 602 68 c 128,-1,7
 514 -20 514 -20 390 -20 c 128,-1,8
 266 -20 266 -20 178 68 c 128,-1,9
 90 156 90 156 90 280 c 2,10,-1
 90 750 l 2,11,12
 90 854 90 854 163 927 c 128,-1,13
 236 1000 236 1000 340 1000 c 2,14,-1
 590 1000 l 1,15,-1
 590 1200 l 2,16,17
 590 1241 590 1241 560.5 1270.5 c 128,-1,18
 531 1300 531 1300 490 1300 c 2,19,-1
 240 1300 l 2,20,21
 219 1300 219 1300 204.5 1314.5 c 128,-1,22
 190 1329 190 1329 190 1350 c 128,-1,23
 190 1371 190 1371 204.5 1385.5 c 128,-1,24
 219 1400 219 1400 240 1400 c 2,0,-1
340 900 m 2,25,26
 278 900 278 900 234 856 c 128,-1,27
 190 812 190 812 190 750 c 2,28,-1
 190 280 l 2,29,30
 190 198 190 198 249 139 c 128,-1,31
 308 80 308 80 390 80 c 128,-1,32
 472 80 472 80 531 139 c 128,-1,33
 590 198 590 198 590 280 c 2,34,-1
 590 900 l 1,35,-1
 340 900 l 2,25,26
EndSplineSet
EndChar

StartChar: afii10072
Encoding: 1078 1078 301
Width: 960
Flags: W
LayerCount: 2
Back
Fore
SplineSet
130 1000 m 0,0,1
 157 1000 157 1000 172 977 c 2,2,-1
 430 572 l 1,3,-1
 430 950 l 2,4,5
 430 971 430 971 444.5 985.5 c 128,-1,6
 459 1000 459 1000 480 1000 c 128,-1,7
 501 1000 501 1000 515.5 985.5 c 128,-1,8
 530 971 530 971 530 950 c 2,9,-1
 530 572 l 1,10,-1
 788 977 l 2,11,12
 803 1000 803 1000 830 1000 c 0,13,14
 851 1000 851 1000 865.5 985.5 c 128,-1,15
 880 971 880 971 880 950 c 0,16,17
 880 936 880 936 872 923 c 2,18,-1
 603 500 l 1,19,-1
 872 77 l 2,20,21
 880 64 880 64 880 50 c 0,22,23
 880 29 880 29 865.5 14.5 c 128,-1,24
 851 0 851 0 830 0 c 0,25,26
 803 0 803 0 788 23 c 2,27,-1
 530 428 l 1,28,-1
 530 50 l 2,29,30
 530 29 530 29 515.5 14.5 c 128,-1,31
 501 0 501 0 480 0 c 128,-1,32
 459 0 459 0 444.5 14.5 c 128,-1,33
 430 29 430 29 430 50 c 2,34,-1
 430 428 l 1,35,-1
 172 23 l 2,36,37
 157 0 157 0 130 0 c 0,38,39
 109 0 109 0 94.5 14.5 c 128,-1,40
 80 29 80 29 80 50 c 0,41,42
 80 64 80 64 88 77 c 2,43,-1
 357 500 l 1,44,-1
 88 923 l 2,45,46
 80 936 80 936 80 950 c 0,47,48
 80 971 80 971 94.5 985.5 c 128,-1,49
 109 1000 109 1000 130 1000 c 0,0,1
EndSplineSet
EndChar

StartChar: afii10073
Encoding: 1079 1079 302
Width: 680
Flags: W
LayerCount: 2
Back
Fore
SplineSet
325 1020 m 128,-1,1
 443 1020 443 1020 526.5 936.5 c 128,-1,2
 610 853 610 853 610 735 c 0,3,4
 610 663 610 663 576.5 601 c 128,-1,5
 543 539 543 539 486 500 c 1,6,7
 543 461 543 461 576.5 399 c 128,-1,8
 610 337 610 337 610 265 c 0,9,10
 610 147 610 147 526.5 63.5 c 128,-1,11
 443 -20 443 -20 325 -20 c 0,12,13
 176 -20 176 -20 78 62 c 0,14,15
 60 77 60 77 60 100 c 0,16,17
 60 121 60 121 74.5 135.5 c 128,-1,18
 89 150 89 150 110 150 c 0,19,20
 127 150 127 150 142 138 c 0,21,22
 184 104 184 104 220.5 92 c 128,-1,23
 257 80 257 80 325 80 c 0,24,25
 402 80 402 80 456 134 c 128,-1,26
 510 188 510 188 510 265 c 128,-1,27
 510 342 510 342 456 396 c 128,-1,28
 402 450 402 450 325 450 c 2,29,-1
 310 450 l 2,30,31
 289 450 289 450 274.5 464.5 c 128,-1,32
 260 479 260 479 260 500 c 128,-1,33
 260 521 260 521 274.5 535.5 c 128,-1,34
 289 550 289 550 310 550 c 2,35,-1
 325 550 l 2,36,37
 402 550 402 550 456 604 c 128,-1,38
 510 658 510 658 510 735 c 128,-1,39
 510 812 510 812 456 866 c 128,-1,40
 402 920 402 920 325 920 c 0,41,42
 249 920 249 920 196 865 c 0,43,44
 181 850 181 850 160 850 c 128,-1,45
 139 850 139 850 124.5 864.5 c 128,-1,46
 110 879 110 879 110 900 c 128,-1,47
 110 921 110 921 124 935 c 0,48,0
 207 1020 207 1020 325 1020 c 128,-1,1
EndSplineSet
EndChar

